<?xml version="1.0" encoding="UTF-8" standalone="no"?>
<!-- Created with Inkscape (http://www.inkscape.org/) -->

<svg
   version="1.1"
   id="svg2037"
   xml:space="preserve"
   width="682.66669"
   height="682.66669"
   viewBox="0 0 682.66669 682.66669"
   xmlns="http://www.w3.org/2000/svg"
   xmlns:svg="http://www.w3.org/2000/svg"><defs
     id="defs2041"><clipPath
       clipPathUnits="userSpaceOnUse"
       id="clipPath2051"><path
         d="M 0,512 H 512 V 0 H 0 Z"
         id="path2049" /></clipPath></defs><g
     id="g2043"
     transform="matrix(1.3333333,0,0,-1.3333333,0,682.66667)"><g
       id="g2045"><g
         id="g2047"
         clip-path="url(#clipPath2051)"><g
           id="g2053"
           transform="translate(120.9995,412.0015)"><path
             d="M 0,0 C 12.375,0 22.5,10.125 22.5,22.5 V 45 67.5 C 22.5,79.875 12.375,90 0,90 -12.375,90 -22.5,79.875 -22.5,67.5 V 45 22.5 C -22.5,10.125 -12.375,0 0,0"
             style="fill:#cfd3df;fill-opacity:1;fill-rule:evenodd;stroke:none"
             id="path2055" /></g><g
           id="g2057"
           transform="translate(188.4995,434.5015)"><path
             d="M 0,0 C 0,-12.375 10.125,-22.5 22.5,-22.5 34.875,-22.5 45,-12.375 45,0 V 22.5 45 C 45,57.375 34.875,67.5 22.5,67.5 10.125,67.5 0,57.375 0,45 V 22.5 Z"
             style="fill:#cfd3df;fill-opacity:1;fill-rule:evenodd;stroke:none"
             id="path2059" /></g><g
           id="g2061"
           transform="translate(278.5,434.5015)"><path
             d="M 0,0 C 0,-12.375 10.124,-22.5 22.5,-22.5 34.875,-22.5 45,-12.375 45,0 V 22.5 45 C 45,57.375 34.875,67.5 22.5,67.5 10.124,67.5 0,57.375 0,45 V 22.5 Z"
             style="fill:#cfd3df;fill-opacity:1;fill-rule:evenodd;stroke:none"
             id="path2063" /></g><g
           id="g2065"
           transform="translate(368.5,457.0015)"><path
             d="M 0,0 V -22.5 C 0,-34.875 10.124,-45 22.5,-45 34.875,-45 45,-34.875 45,-22.5 V 0 22.5 C 45,34.875 34.875,45 22.5,45 10.124,45 0,34.875 0,22.5 Z"
             style="fill:#cfd3df;fill-opacity:1;fill-rule:evenodd;stroke:none"
             id="path2067" /></g><g
           id="g2069"
           transform="translate(69.9985,367.002)"><path
             d="m 0,0 h 372.002 c 8.161,0 15,-6.839 15,-15 v -282.002 c 0,-8.16 -6.84,-15 -15,-15 H 0 c -8.16,0 -15,6.839 -15,15 V -15 c 0,8.161 6.839,15 15,15 m 321.001,45 c -12.376,0 -22.5,10.124 -22.5,22.5 V 90 h -45 V 67.5 c 0,-12.376 -10.125,-22.5 -22.5,-22.5 -12.376,0 -22.5,10.124 -22.5,22.5 V 90 h -45 V 67.5 c 0,-12.376 -10.125,-22.5 -22.5,-22.5 -12.375,0 -22.5,10.124 -22.5,22.5 V 90 h -45 V 67.5 C 73.501,55.124 63.376,45 51.001,45 38.626,45 28.501,55.124 28.501,67.5 V 90 H 0 C -33,90 -60,63 -60,30 v -327.002 c 0,-33 27.002,-60 60,-60 h 372.002 c 32.998,0 59.999,27.001 59.999,60 V 30 c 0,32.998 -26.999,60 -59.999,60 H 343.501 V 67.5 c 0,-12.376 -10.125,-22.5 -22.5,-22.5"
             style="fill:#ff5d7d;fill-opacity:1;fill-rule:evenodd;stroke:none"
             id="path2071" /></g><g
           id="g2073"
           transform="translate(285.5088,245.0439)"><path
             d="m 0,0 47.216,-8.796 c 6.785,-1.253 9.192,-9.518 4.557,-14.272 l -32.618,-33.712 6.229,-47.654 c 0.904,-6.934 -6.461,-11.82 -12.463,-8.561 l -41.821,20.449 -43.44,-20.671 c -6.073,-2.878 -13.046,2.161 -12.023,9 l 6.559,46.338 -33.036,34.877 c -4.713,4.964 -1.902,13.095 4.691,14.24 l 46.237,8.106 22.959,42.194 c 3.26,5.986 11.857,5.83 14.973,-0.1 z M 156.492,121.958 H -215.51 c -8.161,0 -15,-6.839 -15,-15 v -282.002 c 0,-8.161 6.84,-15 15,-15 h 372.002 c 8.159,0 15,6.84 15,15 v 282.002 c 0,8.161 -6.84,15 -15,15"
             style="fill:#ffffff;fill-opacity:1;fill-rule:evenodd;stroke:none"
             id="path2075" /></g><g
           id="g2077"
           transform="translate(285.5088,245.0439)"><path
             d="m 0,0 -21.98,41.438 c -3.116,5.93 -11.713,6.086 -14.973,0.1 l -22.959,-42.194 -46.237,-8.106 c -6.593,-1.145 -9.404,-9.276 -4.691,-14.24 l 33.036,-34.877 -6.559,-46.338 c -1.023,-6.839 5.95,-11.878 12.023,-9 l 43.44,20.671 41.821,-20.449 c 6.002,-3.259 13.367,1.627 12.463,8.561 l -6.229,47.654 32.618,33.712 c 4.635,4.754 2.228,13.019 -4.557,14.272 z"
             style="fill:#ffc144;fill-opacity:1;fill-rule:evenodd;stroke:none"
             id="path2079" /></g><g
           id="g2081"
           transform="translate(243.5,457.0015)"><path
             d="M 0,0 H 24.999 M -90,0 h 24.999 M 180,0 h 18.501 c 33,0 59.999,-27.001 59.999,-60 v -327.002 c 0,-32.998 -27.001,-60 -59.999,-60 h -372.002 c -32.999,0 -60,27 -60,60 V -60 c 0,33 27,60 60,60 h 18.5 M 90,0 h 24.999"
             style="fill:none;stroke:#000000;stroke-width:20;stroke-linecap:round;stroke-linejoin:round;stroke-miterlimit:22.926;stroke-dasharray:none;stroke-opacity:1"
             id="path2083" /></g><g
           id="g2085"
           transform="translate(120.9995,367.002)"><path
             d="m 0,0 h -51.001 c -8.161,0 -15,-6.839 -15,-15 v -282.002 c 0,-8.161 6.84,-15 15,-15 h 372.002 c 8.16,0 15,6.84 15,15 V -15 c 0,8.161 -6.839,15 -15,15 H 90"
             style="fill:none;stroke:#000000;stroke-width:20;stroke-linecap:round;stroke-linejoin:round;stroke-miterlimit:22.926;stroke-dasharray:none;stroke-opacity:1"
             id="path2087" /></g><g
           id="g2089"
           transform="translate(301,502.0015)"><path
             d="m 0,0 v 0 c 12.375,0 22.5,-10.125 22.5,-22.5 v -45 C 22.5,-79.875 12.375,-90 0,-90 c -12.376,0 -22.5,10.125 -22.5,22.5 v 45 C -22.5,-10.125 -12.376,0 0,0 Z"
             style="fill:none;stroke:#000000;stroke-width:20;stroke-linecap:round;stroke-linejoin:round;stroke-miterlimit:22.926;stroke-dasharray:none;stroke-opacity:1"
             id="path2091" /></g><g
           id="g2093"
           transform="translate(210.9995,502.0015)"><path
             d="m 0,0 v 0 c 12.375,0 22.5,-10.125 22.5,-22.5 v -45 C 22.5,-79.875 12.375,-90 0,-90 c -12.375,0 -22.5,10.125 -22.5,22.5 v 45 C -22.5,-10.125 -12.375,0 0,0 Z"
             style="fill:none;stroke:#000000;stroke-width:20;stroke-linecap:round;stroke-linejoin:round;stroke-miterlimit:22.926;stroke-dasharray:none;stroke-opacity:1"
             id="path2095" /></g><g
           id="g2097"
           transform="translate(120.9995,502.0015)"><path
             d="m 0,0 v 0 c 12.375,0 22.5,-10.125 22.5,-22.5 v -45 C 22.5,-79.875 12.375,-90 0,-90 c -12.375,0 -22.5,10.125 -22.5,22.5 v 45 C -22.5,-10.125 -12.375,0 0,0 Z"
             style="fill:none;stroke:#000000;stroke-width:20;stroke-linecap:round;stroke-linejoin:round;stroke-miterlimit:22.926;stroke-dasharray:none;stroke-opacity:1"
             id="path2099" /></g><g
           id="g2101"
           transform="translate(391,502.0015)"><path
             d="m 0,0 v 0 c 12.375,0 22.5,-10.125 22.5,-22.5 v -45 C 22.5,-79.875 12.375,-90 0,-90 c -12.376,0 -22.5,10.125 -22.5,22.5 v 45 C -22.5,-10.125 -12.376,0 0,0 Z"
             style="fill:none;stroke:#000000;stroke-width:20;stroke-linecap:round;stroke-linejoin:round;stroke-miterlimit:22.926;stroke-dasharray:none;stroke-opacity:1"
             id="path2103" /></g><g
           id="g2105"
           transform="translate(285.5088,245.0439)"><path
             d="m 0,0 47.216,-8.796 c 6.785,-1.253 9.192,-9.518 4.557,-14.272 l -32.618,-33.712 6.229,-47.654 c 0.904,-6.934 -6.461,-11.82 -12.463,-8.561 l -41.821,20.449 -43.44,-20.671 c -6.073,-2.878 -13.046,2.161 -12.023,9 l 6.559,46.338 -33.036,34.877 c -4.713,4.964 -1.902,13.095 4.691,14.24 l 46.237,8.106 22.959,42.194 c 3.26,5.986 11.857,5.83 14.973,-0.1 z"
             style="fill:none;stroke:#000000;stroke-width:20;stroke-linecap:round;stroke-linejoin:round;stroke-miterlimit:22.926;stroke-dasharray:none;stroke-opacity:1"
             id="path2107" /></g><g
           id="g2109"
           transform="translate(165.9956,367.002)"><path
             d="M 0,0 H 0.007"
             style="fill:none;stroke:#000000;stroke-width:20;stroke-linecap:round;stroke-linejoin:round;stroke-miterlimit:2.613;stroke-dasharray:none;stroke-opacity:1"
             id="path2111" /></g></g></g></g></svg>
