<?xml version="1.0" encoding="utf-8"?>
<!-- Generator: Adobe Illustrator 26.2.1, SVG Export Plug-In . SVG Version: 6.00 Build 0)  -->
<svg version="1.1" id="Layer_1" xmlns="http://www.w3.org/2000/svg" xmlns:xlink="http://www.w3.org/1999/xlink" x="0px" y="0px"
	 viewBox="0 0 50 50" style="enable-background:new 0 0 50 50;" xml:space="preserve">
<g>
	<path d="M2,17.1c0.4,0,0.7-0.4,0.7-0.8l-0.2-1.6c0-0.1,0.1-0.2,0.2-0.2c1.6,0.1,2.9,1.3,3.3,2.9l2.7,9.7c-0.2,1.1,0.2,2.1,0.9,2.7
		l4.5,4.5c0.3,0.3,0.8,0.3,1.1,0s0.3-0.8,0-1.1l-4.5-4.5c-0.7-0.7-0.7-1.7,0-2.4c0.7-0.7,1.8-0.6,2.4,0l5.1,5.1c0,0,2.1,1.7,2.1,4.8
		l0.1,1c0,0.4,0.4,0.7,0.7,0.7c0,0,0,0,0.1,0c0.4,0,0.7-0.4,0.7-0.8l-0.1-1c-0.1-3.7-2.6-5.8-2.6-5.8l-5-5c-1.2-1.2-3.1-1.3-4.3-0.1
		L7.5,17c-0.5-2.2-2.4-3.8-4.7-4c-1.1-0.1-1.9,0.8-1.8,1.9l0.2,1.6C1.2,16.9,1.6,17.2,2,17.1z"/>
	<path d="M22.5,40.8h-0.4L22,39.9c0-0.4-0.4-0.7-0.8-0.7c-0.4,0-0.7,0.4-0.7,0.8l0.1,0.8H12c-0.5-0.9-1.1-1.8-1.8-2.5L5.8,34
		c-0.9-0.9-1.5-2.1-1.6-3.4L2.9,18.9c0-0.4-0.4-0.7-0.8-0.7c-0.4,0-0.7,0.4-0.7,0.8l1.3,11.7c0.2,1.6,0.9,3.1,2,4.3l4.4,4.4
		c0.4,0.4,0.8,0.9,1.1,1.4h-0.1c-0.8,0-1.4,0.6-1.4,1.4v5.3c0,0.8,0.6,1.4,1.4,1.4h12.3c0.8,0,1.4-0.6,1.4-1.4v-5.3
		C23.9,41.5,23.3,40.8,22.5,40.8z M22.4,47.5H10.3v-5.2h12.2L22.4,47.5L22.4,47.5z"/>
	<path d="M20.4,45.8c0.5-0.5,0.5-1.2,0-1.7c-0.5-0.5-1.2-0.5-1.7,0l0,0c-0.5,0.5-0.5,1.2,0,1.7C19.2,46.2,19.9,46.2,20.4,45.8z"/>
	<path d="M47.2,13c-2.2,0.2-4.1,1.8-4.6,3.9l-2.3,8.2c-1.2-1.1-3.2-1.1-4.3,0.1l-5,5c-0.1,0.1-2.6,2.2-2.7,5.8l-0.1,1
		c0,0.4,0.3,0.8,0.7,0.8c0,0,0,0,0.1,0c0.4,0,0.7-0.3,0.7-0.7l0.1-1c0.1-3,2-4.7,2.2-4.8l5-5c0.7-0.7,1.7-0.7,2.4,0
		c0.7,0.7,0.7,1.7,0,2.4l-4.5,4.5c-0.3,0.3-0.3,0.8,0,1.1s0.8,0.3,1.1,0l4.5-4.5c0.7-0.7,1.1-1.7,0.9-2.7l2.7-9.7
		c0.4-1.6,1.7-2.7,3.3-2.8c0.1,0,0.2,0.1,0.2,0.2l-0.2,1.6c0,0.4,0.3,0.8,0.7,0.8c0.4,0,0.8-0.3,0.8-0.7l0.2-1.6
		C49.1,13.9,48.3,12.9,47.2,13z"/>
	<path d="M47.9,18.2c-0.4,0-0.8,0.3-0.8,0.7l-1.3,11.8c-0.1,1.3-0.7,2.5-1.6,3.4l-4.4,4.4c-0.7,0.7-1.3,1.6-1.8,2.5h-8.6l0.1-0.8
		c0-0.4-0.3-0.8-0.7-0.8c-0.4,0-0.8,0.3-0.8,0.7l-0.1,0.9h-0.4c-0.8,0-1.4,0.6-1.4,1.4v5.3c0,0.8,0.6,1.4,1.4,1.4h12.3
		c0.8,0,1.4-0.6,1.4-1.4v-5.3c0-0.8-0.6-1.4-1.4-1.4h-0.1c0.3-0.5,0.7-1,1.1-1.4l4.4-4.4c1.1-1.1,1.9-2.7,2-4.3L48.5,19
		C48.6,18.6,48.3,18.2,47.9,18.2z M39.7,47.5H27.6v-5.2h12.2V47.5z"/>
	<path d="M31.3,45.8c0.5-0.5,0.5-1.2,0-1.7c-0.5-0.5-1.2-0.5-1.7,0c-0.5,0.5-0.5,1.2,0,1.7C30.1,46.2,30.8,46.2,31.3,45.8z"/>
	<path d="M29.2,17.7L29.2,17.7c0.3-0.4,0.2-0.9-0.1-1.1c-0.3-0.2-0.8-0.1-1,0.2l-0.1,0.2C27.4,17.8,28.7,18.6,29.2,17.7z"/>
	<path d="M31,15.5c0.9-1.3,1.4-2.9,1.3-4.6c0-0.4-0.4-0.8-0.8-0.7c-0.4,0-0.7,0.4-0.7,0.8c0.1,1.3-0.3,2.6-1.1,3.6
		c-0.2,0.3-0.2,0.8,0.2,1C30.3,15.9,30.7,15.9,31,15.5z"/>
	<path d="M28.9,27.8c0.9-0.2,1.6-1,1.6-2c0-0.1,0-2.2,0-2.1c0-2,0.7-3.9,2.1-5.3c2.1-2.2,3.1-5.2,2.7-8.3c-0.5-4.7-4.4-8.5-9.1-9
		C20,0.4,14.7,5.2,14.7,11.3c0,2.6,0.9,5,2.7,6.9c1.4,1.6,2.2,3.5,2.2,5.5c0,0.1,0,2.2,0,2.1c0,1,0.7,1.8,1.6,2
		c0.6,1.6,2.1,2.7,3.9,2.7C26.8,30.5,28.3,29.4,28.9,27.8z M21.6,26.4c-0.3,0-0.6-0.3-0.6-0.6v-1h7.9v1c0,0.3-0.3,0.6-0.6,0.6H21.6z
		 M18.5,17.2c-1.5-1.6-2.3-3.7-2.3-5.9c0-5.1,4.4-9.3,9.8-8.8c4,0.4,7.3,3.7,7.8,7.7c0.3,2.6-0.5,5.2-2.3,7.1
		c-1.5,1.6-2.4,3.7-2.5,6h-7.9C21,21.1,20,19,18.5,17.2z M25,29c-0.9,0-1.7-0.4-2.2-1.1h4.3C26.7,28.5,25.9,29,25,29z"/>
</g>
<path d="M25.6,15.8c-0.2,0-0.3-0.1-0.4-0.2L21.5,12c-0.2-0.2-0.2-0.4-0.1-0.7c0.1-0.2,0.3-0.4,0.6-0.4h1.8c0.5,0,1-0.2,1.3-0.6
	c0.4-0.3,0.6-0.8,0.6-1.3s-0.2-1-0.6-1.3c-0.3-0.4-0.8-0.6-1.3-0.6h-1.8c-0.4,0-0.6-0.2-0.6-0.6S21.5,6,21.9,6h6.8
	c0.4,0,0.6,0.2,0.6,0.6S29,7.2,28.7,7.2h-2.5c0.4,0.6,0.6,1.2,0.6,1.8c0,0.8-0.3,1.6-0.9,2.2c-0.6,0.6-1.4,0.9-2.2,0.9h-0.4l2.6,2.6
	c0.2,0.2,0.2,0.6,0,0.9C25.9,15.8,25.8,15.8,25.6,15.8L25.6,15.8z M28.7,9.7h-6.8c-0.4,0-0.6-0.2-0.6-0.6s0.2-0.6,0.6-0.6h6.8
	c0.4,0,0.6,0.2,0.6,0.6S29,9.7,28.7,9.7z"/>
</svg>
