<svg id="Icons" height="512" viewBox="0 0 60 60" width="512" xmlns="http://www.w3.org/2000/svg"><path d="m13.242 36.63a.5.5 0 0 1 -.263-.926l3.821-2.354-3.52 2.033a.5.5 0 0 1 -.524-.852l15.244-9.952-14.72 8.501a.5.5 0 0 1 -.518-.855l7.216-4.569-6.7 3.866a.5.5 0 0 1 -.516-.856l2.61-1.637-2.092 1.208a.5.5 0 0 1 -.516-.855l1.19-.749-.674.388a.5.5 0 0 1 -.534-.844l9.4-6.475-8.866 5.115a.5.5 0 0 1 -.542-.838l7.627-5.472-7.085 4.093a.5.5 0 0 1 -.533-.845l2.826-1.942-2.293 1.32a.5.5 0 0 1 -.542-.839l2.519-1.81-1.977 1.142a.5.5 0 0 1 -.579-.809l3.211-2.81-2.632 1.518a.5.5 0 0 1 -.626-.762l1.567-1.78-.941.543a.5.5 0 0 1 -.736-.55l.29-1.2a.5.5 0 0 1 -.054-.892l.5-.289a.5.5 0 0 1 .736.55l-.226.93 2.569-1.483a.5.5 0 0 1 .625.762l-1.567 1.781 4.411-2.546a.5.5 0 0 1 .579.808l-3.207 2.813 6.275-3.622a.5.5 0 0 1 .542.839l-2.52 1.809 4.592-2.65a.5.5 0 0 1 .533.845l-2.822 1.939 4.828-2.787a.5.5 0 0 1 .542.839l-7.632 5.478 10.941-6.32a.5.5 0 0 1 .534.845l-9.388 6.475 12.675-7.324a.5.5 0 0 1 .516.856l-1.21.76 2.8-1.617a.5.5 0 0 1 .516.857l-2.62 1.643 4.335-2.5a.5.5 0 0 1 .517.856l-7.2 4.559 9.386-5.418a.5.5 0 0 1 .523.852l-15.248 9.951 18.106-10.453a.5.5 0 0 1 .512.858l-3.82 2.353 3.31-1.91a.5.5 0 0 1 .52.853l-12.584 8.084 12.067-6.966a.5.5 0 0 1 .523.852l-11.6 7.575 11.076-6.393a.5.5 0 0 1 .529.846l-11.054 7.459 10.53-6.079a.5.5 0 0 1 .536.844l-9.138 6.334 8.605-4.968a.5.5 0 0 1 .535.844l-5.836 4.036 5.3-3.063a.5.5 0 0 1 .532.846l-2.322 1.583 1.8-1.037a.5.5 0 0 1 .556.828l-4.216 3.258 3.663-2.114a.5.5 0 0 1 .577.81l-2.755 2.381 2.18-1.258a.5.5 0 0 1 .639.747l-1.454 1.8.818-.471a.5.5 0 0 1 .6.073.5.5 0 0 1 .093.6l-.29.54a.5.5 0 0 1 .1.91l-.975.562a.5.5 0 0 1 -.6-.073.5.5 0 0 1 -.093-.6l.145-.27-1.631.941a.5.5 0 0 1 -.639-.747l1.454-1.8-4.414 2.548a.5.5 0 0 1 -.577-.81l2.755-2.381-5.535 3.2a.5.5 0 0 1 -.556-.828l4.213-3.263-7.083 4.089a.5.5 0 0 1 -.531-.846l2.327-1.584-4.213 2.432a.5.5 0 0 1 -.534-.844l5.834-4.034-8.454 4.881a.5.5 0 0 1 -.534-.844l9.14-6.336-12.442 7.183a.5.5 0 0 1 -.53-.847l11.052-7.456-14.387 8.307a.5.5 0 0 1 -.524-.852l11.6-7.58-14.607 8.435a.5.5 0 0 1 -.52-.854l12.577-8.08-15.479 8.937a.5.5 0 0 1 -.25.067z" fill="#e1efff"/><path d="m20.1 36.488a.5.5 0 0 1 -.352-.855l2.152-2.133-4.62 2.666a.5.5 0 0 1 -.565-.821l3.05-2.475-2.485 1.435a.5.5 0 0 1 -.566-.821l3.078-2.5-2.512 1.449a.5.5 0 0 1 -.567-.82l3.197-2.613-2.631 1.519a.5.5 0 0 1 -.555-.829l1.976-1.523-1.417.817a.5.5 0 0 1 -.579-.808l3.5-3.071-2.926 1.689a.5.5 0 0 1 -.574-.814l.925-.789-.351.2a.5.5 0 0 1 -.712-.624l.663-1.6a.5.5 0 0 1 -.365-.919l1.127-.65a.5.5 0 0 1 .712.624l-.65 1.57 3.8-2.2a.5.5 0 0 1 .658.144.5.5 0 0 1 -.083.669l-.925.788 2.607-1.5a.5.5 0 0 1 .579.809l-3.506 3.072 3.535-2.041a.5.5 0 0 1 .555.829l-1.973 1.522 1.425-.822a.5.5 0 0 1 .566.819l-3.191 2.619 2.63-1.518a.5.5 0 0 1 .565.82l-3.079 2.5 2.518-1.453a.5.5 0 0 1 .565.821l-3.052 2.477 2.492-1.439a.5.5 0 0 1 .6.788l-2.15 2.131 1.553-.9a.5.5 0 0 1 .7.649l-.651 1.362a.5.5 0 0 1 .454.89l-1.347.777a.5.5 0 0 1 -.7-.648l.649-1.359-3.5 2.021a.494.494 0 0 1 -.247.069z" fill="#a9725e"/><path d="m17.658 8.5a.5.5 0 0 1 -.293-.9l1.687-1.219-2.772 1.6a.5.5 0 0 1 -.563-.824l3-2.4-2.438 1.399a.5.5 0 0 1 -.583-.8l1.645-1.476-1.062.612a.5.5 0 0 1 -.672-.7l.844-1.324a.5.5 0 0 1 -.378-.916l1.627-.941a.5.5 0 0 1 .672.7l-.824 1.292 3.479-2.003a.5.5 0 0 1 .583.805l-1.644 1.47 3.944-2.275a.5.5 0 0 1 .563.823l-3 2.4 5.586-3.223a.5.5 0 0 1 .543.838l-1.691 1.22 3.567-2.058a.5.5 0 0 1 .564.821l-3.642 2.935 6.516-3.756a.5.5 0 0 1 .54.84l-1.239.882 2.983-1.722a.5.5 0 0 1 .564.822l-3.594 2.89 6.43-3.712a.5.5 0 0 1 .56.824l-3.43 2.717 6.096-3.522a.5.5 0 0 1 .541.84l-1.274.909 2-1.154a.5.5 0 0 1 .559.825l-2.574 2.027 2.636-1.521a.5.5 0 0 1 .573.814l-1.661 1.409 1.1-.637a.5.5 0 0 1 .635.752l-1.045 1.264.424-.247a.5.5 0 0 1 .729.576l-.23.765a.5.5 0 0 1 .192.189.5.5 0 0 1 -.183.682l-.5.288a.5.5 0 0 1 -.728-.576l.127-.428-1.742 1.004a.5.5 0 0 1 -.634-.752l1.047-1.264-3.5 2.02a.5.5 0 0 1 -.573-.814l1.662-1.408-3.856 2.23a.5.5 0 0 1 -.56-.825l2.575-2.027-4.947 2.855a.5.5 0 0 1 -.541-.84l1.275-.909-3.036 1.752a.5.5 0 0 1 -.56-.824l3.431-2.718-6.141 3.545a.5.5 0 0 1 -.563-.822l3.593-2.89-6.436 3.716a.5.5 0 0 1 -.54-.84l1.237-.885-2.985 1.727a.5.5 0 0 1 -.564-.822l3.638-2.938-6.52 3.764a.488.488 0 0 1 -.249.069z" fill="#b0ccdd"/><path d="m13.538 16.471a.5.5 0 0 1 -.3-.9l.091-.069-1.076.621a.5.5 0 0 1 -.6-.791l1.917-1.864-2.2 1.272a.5.5 0 0 1 -.663-.714l1-1.473-.408.235a.5.5 0 1 1 -.5-.865l2.3-1.326a.5.5 0 0 1 .664.714l-1 1.472 3.79-2.187a.5.5 0 0 1 .6.791l-1.917 1.864 4.6-2.655a.5.5 0 0 1 .551.831l-.091.07 1.561-.9a.5.5 0 0 1 .6.786l-2.257 2.254 5.263-3.037a.5.5 0 0 1 .573.814l-1.563 1.319 3.7-2.133a.5.5 0 0 1 .579.809l-1.771 1.54 4.068-2.349a.5.5 0 0 1 .573.813l-1.61 1.368 3.78-2.181a.5.5 0 0 1 .574.813l-1.622 1.377 3.8-2.195a.5.5 0 0 1 .583.8l-1.922 1.718 4.374-2.513a.5.5 0 0 1 .564.822l-1.085.872 2.935-1.694a.5.5 0 0 1 .616.773l-2.329 2.501 5.681-3.28a.5.5 0 0 1 .58.808l-1.833 1.611 3.166-1.827a.5.5 0 0 1 .59.8l-1.427 1.321 1.684-.972a.5.5 0 0 1 .661.718l-.95 1.368.069-.04a.5.5 0 1 1 .5.865l-2.001 1.154a.5.5 0 0 1 -.661-.717l.95-1.369-3.617 2.086a.5.5 0 0 1 -.59-.8l1.426-1.32-3.671 2.12a.5.5 0 0 1 -.58-.808l1.832-1.61-4.189 2.418a.5.5 0 0 1 -.616-.773l2.33-2.506-5.683 3.279a.5.5 0 0 1 -.564-.822l1.083-.87-2.932 1.692a.5.5 0 0 1 -.584-.8l1.922-1.718-4.372 2.518a.5.5 0 0 1 -.574-.813l1.624-1.382-3.8 2.195a.5.5 0 0 1 -.574-.813l1.611-1.368-3.783 2.181a.5.5 0 0 1 -.578-.809l1.77-1.54-4.07 2.349a.5.5 0 0 1 -.573-.814l1.563-1.316-3.7 2.13a.5.5 0 0 1 -.646-.128.5.5 0 0 1 .043-.658l2.255-2.255-5.264 3.041a.5.5 0 0 1 -.25.071z" fill="#cd4c60"/><path d="m25.549 16.494a.5.5 0 0 1 -.359-.848l1.359-1.4-3.269 1.888a.5.5 0 0 1 -.612-.778l1.111-1.167-.5.289a.5.5 0 0 1 -.736-.554l.286-1.147a.5.5 0 0 1 -.05-.892l.5-.289a.506.506 0 0 1 .551.034.5.5 0 0 1 .184.52l-.218.873 2.485-1.433a.5.5 0 0 1 .612.777l-1.11 1.166 3.377-1.949a.5.5 0 0 1 .608.781l-1.358 1.4 3.79-2.188a.5.5 0 0 1 .614.776l-1.413 1.5 3.952-2.282a.5.5 0 0 1 .637.75l-1.52 1.853 2.258-1.3a.5.5 0 0 1 .623.767l-.4.45a.485.485 0 0 1 .474.248.5.5 0 0 1 -.183.683l-2.412 1.386a.5.5 0 0 1 -.622-.766l.3-.336-1.919 1.107a.5.5 0 0 1 -.637-.75l1.522-1.853-4.524 2.611a.5.5 0 0 1 -.614-.775l1.414-1.5-3.95 2.281a.494.494 0 0 1 -.251.067z" fill="#b0ccdd"/><path d="m38.61 53.468a.5.5 0 0 1 -.25-.933l11.361-6.558a.5.5 0 0 1 .553.829l-2.474 1.894 1.919-1.107a.5.5 0 0 1 .606.783l-2.277 2.324 1.446-.835a.5.5 0 0 1 .5.866l-4.624 2.669a.5.5 0 0 1 -.606-.783l2.279-2.321-5.38 3.104a.5.5 0 0 1 -.554-.829l2.473-1.9-4.722 2.729a.5.5 0 0 1 -.25.068z" fill="#e3c84c"/><path d="m30.079 59.419a.5.5 0 0 1 -.279-.919l5.062-3.316-6.155 3.552a.5.5 0 0 1 -.523-.851l6.1-3.976-6.718 3.879a.5.5 0 0 1 -.529-.848l10.41-6.99-11.4 6.581a.5.5 0 0 1 -.522-.852l8-5.189-8.705 5.026a.5.5 0 0 1 -.522-.853l8.486-5.479-9.2 5.31a.5.5 0 0 1 -.524-.85l11.5-7.552-12.66 7.308a.5.5 0 0 1 -.526-.849l12.7-8.41-16.039 9.259a.5.5 0 0 1 -.519-.854l8.989-5.731-11.405 6.585a.5.5 0 0 1 -.525-.85l13.015-8.574-15.321 8.845a.5.5 0 0 1 -.524-.85l11.512-7.532-12.324 7.116a.5.5 0 0 1 -.525-.851l10.226-6.734-10.278 5.93a.5.5 0 0 1 -.518-.854l3.191-2.031-2.749 1.585a.5.5 0 0 1 -.533-.844l8.51-5.834-7.977 4.6a.5.5 0 0 1 -.538-.841l6.675-4.707-6.137 3.552a.5.5 0 0 1 -.54-.839l4.138-2.944-3.6 2.077a.5.5 0 0 1 -.558-.826l3.811-2.985-3.251 1.878a.5.5 0 0 1 -.652-.136.5.5 0 0 1 .061-.663l2.6-2.42-1.9 1.1a.5.5 0 0 1 -.606-.785l1.02-1.033a.5.5 0 0 1 -.079-.9l2.309-1.333a.5.5 0 0 1 .606.784l-.546.553 2.516-1.454a.5.5 0 0 1 .591.8l-2.6 2.419 5.574-3.219a.5.5 0 0 1 .558.826l-3.814 2.987 6.606-3.813a.5.5 0 0 1 .54.84l-4.136 2.94 6.551-3.78a.5.5 0 0 1 .538.84l-6.675 4.707 9.609-5.547a.5.5 0 0 1 .533.844l-8.507 5.832 11.566-6.676a.5.5 0 0 1 .519.854l-3.191 2.031 5-2.885a.5.5 0 0 1 .526.85l-10.227 6.73 13.135-7.58a.5.5 0 0 1 .523.85l-11.514 7.53 14.521-8.38a.5.5 0 0 1 .525.85l-13.024 8.572 16.328-9.422a.5.5 0 0 1 .519.854l-8.994 5.735 10.473-6.049a.5.5 0 0 1 .526.849l-12.693 8.411 13.62-7.863a.5.5 0 0 1 .525.851l-11.495 7.55 11.528-6.657a.5.5 0 0 1 .521.853l-8.494 5.479 8.018-4.628a.5.5 0 0 1 .522.853l-8 5.188 7.48-4.316a.5.5 0 0 1 .528.848l-10.409 6.99 9.881-5.7a.5.5 0 0 1 .523.851l-6.1 3.981 5.58-3.222a.5.5 0 0 1 .524.851l-17.297 11.326a.5.5 0 0 1 -.241.342l-2.381 1.375a.5.5 0 0 1 -.249.067z" fill="#e3c84c"/><path d="m18.77 12.47a.5.5 0 0 1 -.312-.891l.971-.774-2.768 1.6a.5.5 0 0 1 -.573-.815l1.541-1.3-3.659 2.11a.5.5 0 0 1 -.593-.8l2.121-2-3.264 1.884a.5.5 0 0 1 -.583-.806l3.2-2.842a.5.5 0 0 1 .233-.563l1.179-.673a.5.5 0 0 1 .582.806l-.868.772 2.736-1.578a.5.5 0 0 1 .593.8l-2.121 2 4.844-2.8a.5.5 0 0 1 .573.815l-1.541 1.3 3.661-2.115a.5.5 0 0 1 .562.823l-.971.773 2.769-1.6a.5.5 0 0 1 .615.773l-2.328 2.5 5.666-3.27a.5.5 0 0 1 .6.793l-2.182 2.1 5.011-2.892a.5.5 0 0 1 .581.807l-1.855 1.624 4.228-2.44a.5.5 0 0 1 .6.788l-2.242 2.221 5.213-3.01a.5.5 0 0 1 .565.821l-1.148.927 3.032-1.749a.5.5 0 0 1 .591.8l-2.1 1.965 2.891-1.673a.5.5 0 0 1 .655.727l-1.421 1.946 2.181-1.254a.5.5 0 0 1 .7.656l-.478.952.881-.508a.5.5 0 0 1 .743.348l.109.636.083-.048a.5.5 0 1 1 .5.865l-.7.406a.5.5 0 0 1 -.462.021.5.5 0 0 1 -.281-.368l-.109-.636-1.7.983a.5.5 0 0 1 -.7-.656l.478-.952-2.794 1.601a.5.5 0 0 1 -.654-.727l1.42-1.946-4.63 2.673a.5.5 0 0 1 -.592-.8l2.1-1.965-4.784 2.765a.5.5 0 0 1 -.564-.821l1.147-.927-3.029 1.748a.5.5 0 0 1 -.6-.788l2.242-2.212-5.211 3a.5.5 0 0 1 -.58-.807l1.851-1.632-4.221 2.439a.5.5 0 0 1 -.6-.793l2.181-2.1-5.01 2.893a.5.5 0 0 1 -.616-.773l2.328-2.5-5.664 3.273a.494.494 0 0 1 -.249.07z" fill="#f26376"/><path d="m25.519 12.47a.5.5 0 0 1 -.3-.9l.1-.078-1.575.909a.5.5 0 0 1 -.583-.8l1.923-1.72-.406.234a.5.5 0 0 1 -.643-.742l1.291-1.636-.007-.011a.5.5 0 0 1 .183-.683l.767-.442a.5.5 0 0 1 .642.742l-.476.6 2.339-1.35a.5.5 0 0 1 .584.805l-1.924 1.72 4.385-2.532a.5.5 0 0 1 .552.831l-.106.081 1.492-.861a.5.5 0 0 1 .589.8l-2.007 1.85 2.234-1.287a.5.5 0 0 1 .589.8l-.535.494.537-.31a.5.5 0 0 1 .685.68l-.542.954.622-.359a.5.5 0 0 1 .739.33l.141.669a.612.612 0 0 1 .443.25.5.5 0 0 1 -.184.683l-.368.209a.5.5 0 0 1 -.739-.331l-.127-.6-1.62.934a.5.5 0 0 1 -.685-.679l.542-.954-2.833 1.63a.5.5 0 0 1 -.589-.8l.536-.495-2.243 1.295a.5.5 0 0 1 -.589-.8l2.006-1.851-4.591 2.651a.492.492 0 0 1 -.249.07z" fill="#e1efff"/><path d="m33.45 31.471a.5.5 0 0 1 -.311-.891l4.3-3.432-7.31 4.222a.5.5 0 0 1 -.54-.84l3.855-2.746-4.164 2.4a.5.5 0 0 1 -.532-.845l.466-.319a.5.5 0 0 1 -.512-.841l3.6-3.136-3.024 1.745a.5.5 0 0 1 -.575-.813l.954-.816-.379.218a.5.5 0 0 1 -.711-.625l.661-1.587a.5.5 0 0 1 -.364-.92l1.129-.651a.5.5 0 0 1 .711.625l-.646 1.553 3.776-2.172a.5.5 0 0 1 .575.812l-.957.82 2.828-1.632a.5.5 0 0 1 .578.809l-3.6 3.134 6.832-3.943a.5.5 0 0 1 .532.845l-.416.284 1.825-1.053a.5.5 0 0 1 .54.84l-3.85 2.742 4-2.309a.5.5 0 0 1 .561.824l-4.3 3.431 3.742-2.16a.5.5 0 0 1 .6.794l-2.75 2.637 2.155-1.243a.494.494 0 0 1 .623.1.5.5 0 0 1 .028.631l-1.018 1.367.367-.211a.5.5 0 0 1 .5.865l-2.469 1.416a.494.494 0 0 1 -.623-.1.5.5 0 0 1 -.029-.631l1.018-1.369-3.638 2.1a.5.5 0 0 1 -.595-.794l2.749-2.636-5.942 3.43a.493.493 0 0 1 -.25.071z" fill="#5498c8"/><g fill="#fde05e"><path d="m28.654 48.352a.5.5 0 0 1 -.354-.852l2.494-2.532-3.362 1.94a.5.5 0 0 1 -.617-.772l2.085-2.256-1.891 1.092a.5.5 0 0 1 -.728-.58l.369-1.192-.292.168a.5.5 0 1 1 -.5-.865l1.4-.806a.5.5 0 0 1 .727.58l-.368 1.191 3.653-2.11a.5.5 0 0 1 .618.773l-2.088 2.258 3.689-2.13a.5.5 0 0 1 .607.783l-2.496 2.532.815-.47a.5.5 0 0 1 .663.713l-.327.482a.5.5 0 0 1 .335.926l-1.686.975a.5.5 0 0 1 -.616-.093.5.5 0 0 1 -.047-.621l.287-.422-2.124 1.22a.493.493 0 0 1 -.246.068z"/><path d="m28.992 41.239a.5.5 0 0 1 -.251-.932l1.156-.668a.5.5 0 1 1 .5.865l-1.156.668a.488.488 0 0 1 -.249.067z"/><path d="m19.2 48.3a.5.5 0 0 1 -.4-.8l.128-.178-.56.323a.5.5 0 0 1 -.6-.784l1.211-1.225-3.506 2.023a.5.5 0 0 1 -.58-.808l1.907-1.674-1.206.7a.5.5 0 0 1 -.576-.811l.158-.137-.134.071a.5.5 0 0 1 -.73-.573l.365-1.24-.315.18a.5.5 0 1 1 -.5-.865l1.4-.806a.5.5 0 0 1 .729.574l-.364 1.24 3.662-2.11a.5.5 0 0 1 .576.811l-.158.137.993-.573a.5.5 0 0 1 .58.808l-1.911 1.675 2.316-1.337a.5.5 0 0 1 .606.784l-1.514 1.532a.5.5 0 0 1 .324.787l-.245.338a.5.5 0 0 1 .222.932l-1.625.939a.5.5 0 0 1 -.253.067z"/><path d="m16.992 41.239a.5.5 0 0 1 -.251-.932l1.156-.668a.5.5 0 1 1 .5.865l-1.156.668a.488.488 0 0 1 -.249.067z"/><path d="m39.911 48.385a.5.5 0 0 1 -.33-.876l2.055-1.8-2.219 1.28a.5.5 0 0 1 -.611-.778l2-2.082-1.672.965a.5.5 0 0 1 -.735-.554l.344-1.385-.377.217a.5.5 0 0 1 -.5-.865l1.4-.806a.5.5 0 0 1 .735.554l-.345 1.385 3.686-2.14a.5.5 0 0 1 .611.778l-2 2.083 3.561-2.055a.5.5 0 0 1 .58.808l-2.055 1.8.354-.2a.5.5 0 0 1 .6.074.5.5 0 0 1 .092.6l-.594 1.1.082-.047a.5.5 0 0 1 .5.866l-1.608.928a.494.494 0 0 1 -.6-.074.5.5 0 0 1 -.092-.6l.594-1.1-3.21 1.852a.49.49 0 0 1 -.246.072z"/><path d="m40.991 41.239a.5.5 0 0 1 -.25-.932l1.156-.668a.5.5 0 1 1 .5.865l-1.156.668a.494.494 0 0 1 -.25.067z"/></g><path d="m32.293 41.654-.574-1.207c-.61-1.167-2.384-.951-3.179-.085a3.439 3.439 0 0 0 -.481.863l-.237.5c-.952.12-2.016.3-2.429 1.209-.473 1.042.569 1.811 1.232 2.463-.167.917-.579 2.168.4 2.741.9.527 1.895.049 2.761-.44.267.146.533.292.8.436a2.312 2.312 0 0 0 2.278-.189 1.526 1.526 0 0 0 .711-1.627c-.066-.407-.135-.813-.2-1.219.637-.622 1.627-1.362 1.279-2.358-.328-.947-1.485-.981-2.361-1.087zm-5.237.791c.011.012-.018.024-.057.036.026-.029.047-.047.057-.036zm6.183 1.3a2.49 2.49 0 0 1 -.755.937c-.2.2-.57.444-.563.748a9.119 9.119 0 0 0 .2 1.223 1.657 1.657 0 0 1 .039.491.961.961 0 0 1 -.149.4l-.038.042c-.1-.043-.218-.1-.252-.115l-.629-.343c-.155-.085-.31-.189-.473-.258a1.346 1.346 0 0 0 -1.072.148c-.364.186-.719.393-1.078.588l-.017.008a1 1 0 0 1 -.568-.6 2.625 2.625 0 0 1 .076-1.211c.043-.259.209-.694.05-.92-.461-.655-1.636-1.155-1.2-2.14a2.135 2.135 0 0 1 .163-.245c.2-.021.4-.063.6-.093.512-.077 1.248-.088 1.527-.583.218-.385.379-.808.574-1.206a1.433 1.433 0 0 1 .082-.161l.049-.059a.637.637 0 0 1 .114.043.98.98 0 0 1 .344.387q.24.5.479 1.007a2.133 2.133 0 0 0 .156.327c.118.162.331.162.517.191.384.057.791.082 1.167.175a.992.992 0 0 1 .657 1.223z" fill="#262626"/><path d="m20.287 41.64q-.284-.6-.568-1.193c-.615-1.176-2.381-.978-3.182-.094a3.522 3.522 0 0 0 -.479.867l-.23.484c-.957.121-2.025.3-2.436 1.223-.468 1.048.563 1.813 1.231 2.469-.171.937-.574 2.173.427 2.758.9.525 1.888.044 2.751-.445.263.145.527.29.792.432a2.285 2.285 0 0 0 2.28-.184 1.545 1.545 0 0 0 .707-1.641c-.065-.4-.133-.806-.2-1.209.639-.626 1.627-1.365 1.277-2.368-.335-.955-1.488-.991-2.37-1.099zm.951 2.1c-.1.376-.492.666-.756.933-.207.209-.571.443-.561.757a9.625 9.625 0 0 0 .2 1.223 1.593 1.593 0 0 1 .037.486.914.914 0 0 1 -.149.4l-.035.041c-.1-.041-.222-.1-.255-.115l-.629-.342c-.156-.085-.311-.188-.474-.258a1.3 1.3 0 0 0 -1.073.141c-.364.188-.719.393-1.079.588l-.017.008c-.068-.039-.252-.128-.277-.15a.958.958 0 0 1 -.286-.43 2.631 2.631 0 0 1 .077-1.206c.044-.263.211-.7.048-.93-.456-.643-1.639-1.159-1.193-2.131a2.025 2.025 0 0 1 .149-.229c.206-.02.415-.064.618-.095.508-.076 1.266-.086 1.523-.6.2-.4.375-.808.574-1.206.028-.054.05-.106.083-.157l.049-.06a.505.505 0 0 1 .114.04.97.97 0 0 1 .342.382q.24.5.479 1.007a2.28 2.28 0 0 0 .156.327c.122.173.327.174.521.2.384.058.789.084 1.166.175a.97.97 0 0 1 .648 1.205z" fill="#262626"/><path d="m44.286 41.638-.567-1.191c-.616-1.177-2.38-.983-3.182-.1a3.5 3.5 0 0 0 -.479.868l-.23.482c-.957.12-2.025.3-2.436 1.225-.467 1.049.562 1.813 1.23 2.47-.171.938-.573 2.173.428 2.76.9.527 1.889.045 2.752-.445.264.145.527.29.792.432a2.28 2.28 0 0 0 2.28-.183 1.551 1.551 0 0 0 .706-1.644c-.065-.4-.133-.8-.2-1.207.64-.627 1.628-1.366 1.277-2.37-.335-.953-1.488-.989-2.371-1.097zm.952 2.105c-.1.375-.493.666-.756.932-.209.21-.572.444-.561.759a9.625 9.625 0 0 0 .2 1.223 1.584 1.584 0 0 1 .037.485.9.9 0 0 1 -.15.4l-.035.041c-.1-.041-.222-.1-.255-.114l-.629-.343c-.156-.085-.31-.187-.473-.258a1.3 1.3 0 0 0 -1.074.14c-.363.188-.719.393-1.078.588l-.019.009c-.069-.039-.251-.128-.276-.149a.955.955 0 0 1 -.285-.429 2.641 2.641 0 0 1 .078-1.205c.043-.264.21-.7.047-.932-.456-.641-1.64-1.159-1.193-2.129a2.2 2.2 0 0 1 .148-.227c.207-.019.416-.064.62-.094.509-.077 1.265-.087 1.523-.6.2-.4.373-.808.574-1.206a1.373 1.373 0 0 1 .083-.156s.027-.034.051-.063a.587.587 0 0 1 .111.042.974.974 0 0 1 .342.381q.24.5.479 1.007a2.332 2.332 0 0 0 .156.327c.123.175.326.177.522.206.384.058.788.085 1.166.176a.965.965 0 0 1 .647 1.189z" fill="#262626"/><path d="m47.724 34.915v-18.715a2.7 2.7 0 0 0 1.835-1.522 4.481 4.481 0 0 0 .028-2.837.209.209 0 0 0 -.142-.28 1.5 1.5 0 0 0 -.1-.155c-1.368-1.653-3.091-3.1-4.615-4.616.029-2.418.7-6.2-2.716-6.286-2.029-.048-4.065 0-6.095 0-5.848 0-11.707-.1-17.554 0a2.935 2.935 0 0 0 -3.075 2.24 26.667 26.667 0 0 0 -.026 4.324c-1.431 1.432-2.909 2.839-4.306 4.312a2.7 2.7 0 0 0 -.381.529.5.5 0 0 0 -.165.345c-.634 1.581.076 3.718 1.864 4.063v18.775a4.469 4.469 0 0 0 -2.993 3.929c-.17 3.35-.136 6.818-.007 10.17.106 2.774 2.358 4.142 4.9 4.149 2.159.006 4.317 0 6.475 0 1.38 0 2.465 1.4 3.481 2.246l2.8 2.313a9.145 9.145 0 0 0 1.468 1.145c1.962 1.025 3.641-.578 5.039-1.735q2.368-1.962 4.738-3.923a.267.267 0 0 0 .045-.045.461.461 0 0 0 .051 0c.388-.028.79 0 1.18 0h3.539c1.943 0 4 .226 5.715-.9 1.911-1.257 2.022-3.158 2.022-5.2v-8.436a4.158 4.158 0 0 0 -3.005-3.89zm-24-22.43h12.548v3.147c-4.182.008-8.365.03-12.548.037v-3.081c0-.031-.003-.069-.004-.103zm2.628-4.985h7.1l2.409 4.014h-11.917l.446-.745 1.41-2.352zm20.787 8.126a19.069 19.069 0 0 1 -3.023 0h-5.862-.526v-1.614c0-.5.018-1.017.012-1.527h10.407a3.008 3.008 0 0 1 .129.916c0 .905.004 2.034-1.137 2.226zm.409-4.112h-9.962c-.152-.3-.387-.6-.53-.834l-1.427-2.38-.481-.8h8.4l3.807 3.806c.079.075.129.14.193.209zm-30.816-8.281c.015-.828.2-1.6 1.2-1.732.127-.017.263.005.39 0 2.1-.086 4.215 0 6.313 0h16.481c1.082 0 2.036.256 2.152 1.612a32.4 32.4 0 0 1 .009 3.387h-26.547c-.004-1.089-.018-2.179.002-3.267zm-.584 4.267h8.9q-.987 1.646-1.975 3.291l-.433.723h-10.476c.015-.019.026-.041.042-.059 1.218-1.389 2.612-2.655 3.942-3.955zm-4.322 6.937a3.758 3.758 0 0 1 -.093-1.953h10.534c0 .055.009.113.009.16v3.026c-2.863 0-5.726-.006-8.587-.043a1.833 1.833 0 0 1 -1.863-1.189zm1.9 1.98c2.44.1 4.935-.045 7.358-.045h15.369a1.044 1.044 0 0 0 .833 0c2.983 0 5.985.1 8.968.008a4.911 4.911 0 0 0 .022.595v17.69c-.035 0-.067-.009-.1-.009-1.02-.015-2.041 0-3.061 0h-17.391v-10.586c0-.816.2-1.92-.749-2.3a3.557 3.557 0 0 0 -1.3-.112h-2.054c-1.1 0-2.216-.045-3.319 0-.921.037-1.966.509-2.026 1.535-.012.192 0 .389 0 .582v10.876c-.649-.006-1.3-.014-1.944 0a5.881 5.881 0 0 0 -.608.064zm4.046 6.154a1.706 1.706 0 0 1 .11-.225 4.057 4.057 0 0 0 .444-.006h4.074a6.536 6.536 0 0 1 1.251 0c.8.169.621 1.313.621 1.917v10.4h-6.548v-10.048a6.81 6.81 0 0 1 .046-2.037zm31.504 26.458a3.63 3.63 0 0 1 -2.063 3.44 6.468 6.468 0 0 1 -2.3.183c-1.965 0-3.933-.034-5.9 0-1.431.024-2.2.793-3.243 1.654-1.548 1.281-3.049 2.7-4.678 3.872a1.443 1.443 0 0 1 -1.916-.065c-.622-.464-1.2-1-1.8-1.491-1.432-1.185-2.82-2.5-4.33-3.584-1.023-.734-2.883-.386-4.063-.386-1.7 0-3.738.315-5.407-.1-2.523-.622-2.853-2.975-2.853-5.132v-6.349c0-2.006-.259-4.64 2.063-5.544a7.4 7.4 0 0 1 2.574-.183h28.679a10.214 10.214 0 0 1 2.384.1 3.908 3.908 0 0 1 2.853 3.753c0 3.271.087 6.558 0 9.832z" fill="#262626"/><path d="m31.027 31.4h3.383a1.118 1.118 0 0 0 .356 0h6.95c.041 0 .095-.008.145-.012h.037l.046-.008.044-.006a1.764 1.764 0 0 0 1.736-1.742c.01-.764 0-1.528 0-2.292 0-1.493.13-3.048 0-4.536s-2.078-1.241-3.209-1.212a.961.961 0 0 0 -.746 0h-5.407c-1.34 0-2.685-.036-4.025 0-.967.026-2.027.515-2.061 1.6-.018.541 0 1.086 0 1.628 0 1.745-.043 3.5 0 5.241.037 1.539 1.676 1.339 2.751 1.339zm-1.3-8.55c.015-.138 0-.425.044-.45.086-.051.356 0 .456 0h7.281c.364 0 .729-.006 1.1-.013l-5.188 3.706-.879.628c-.229.163-.392.474-.1.665a1.034 1.034 0 0 0 1.033-.109l6.121-4.372.752-.537c.385 0 .769.01 1.15.032.569.033.778.444.787.99.012.778 0 1.557 0 2.335v3.075c0 .131.125 1.721-.161 1.8h-6l2.808-2.006.528-.377c.186-.133.438-.409.126-.567a1.16 1.16 0 0 0 -1.026.135l-3.672 2.623-.27.192h-3.067a7.524 7.524 0 0 1 -1.2 0c-.6-.1-.625-.65-.625-1.133v-2.193c-.001-1.448-.148-2.981-.001-4.423z" fill="#262626"/></svg>