<?xml version="1.0" encoding="utf-8"?>
<!-- Generator: Adobe Illustrator 18.0.0, SVG Export Plug-In . SVG Version: 6.00 Build 0)  -->
<!DOCTYPE svg PUBLIC "-//W3C//DTD SVG 1.1//EN" "http://www.w3.org/Graphics/SVG/1.1/DTD/svg11.dtd">
<svg version="1.1" id="Layer_1" xmlns="http://www.w3.org/2000/svg" xmlns:xlink="http://www.w3.org/1999/xlink" x="0px" y="0px"
	 viewBox="0 0 700 700" enable-background="new 0 0 700 700" xml:space="preserve">
<g>
	<path d="M486.5,130.6c-59.6,0-81.3,43.4-81.3,72.5v4.2c0,5.1,4.2,8.8,8.8,8.8h25.4c5.1,0,8.8-4.2,8.8-8.8v-4.2
		c0-1.4,0.5-29.6,38.3-29.6c24.5,0,35.1,9.2,35.1,30.5c0,13.9-16.2,28.2-30.9,40.6c-20.3,16.6-30,34.2-30,54l0,9.7
		c0,5.1,4.2,8.8,8.8,8.8h25.4c5.1,0,8.8-4.2,8.8-8.8v-9.7c0-2.3,0-8.8,14.3-20.8c17.6-14.3,47.1-38.3,47.1-73.9
		C564.5,168.5,544.2,130.6,486.5,130.6L486.5,130.6z"/>
	<path d="M510.5,364.3c0,15.3-12.4,27.7-27.7,27.7c-15.3,0-27.7-12.4-27.7-27.7c0-15.3,12.4-27.7,27.7-27.7
		C498.1,336.6,510.5,349,510.5,364.3"/>
	<path d="M374.2,284.4c0,48.2-35.8,87.3-79.9,87.3c-44.1,0-79.9-39.1-79.9-87.3s35.8-87.3,79.9-87.3
		C338.5,197.1,374.2,236.2,374.2,284.4"/>
	<path d="M396,396.6l-26.8-12c-20.8,17.1-46.6,27.7-74.8,27.7c-28.2,0-54-10.2-74.8-27.7l-26.8,12c-35.1,15.7-57.7,50.8-57.7,89.6
		v47.1c0,19.9,16.2,36,36,36h247.1c19.9,0,36-16.2,36-36l0-47.1C453.7,447.5,431.1,412.8,396,396.6L396,396.6z"/>
</g>
</svg>
