<svg id="Capa_1" enable-background="new 0 0 511.999 511.999" height="512" viewBox="0 0 511.999 511.999" width="512" xmlns="http://www.w3.org/2000/svg"><g><path d="m75.761 147.404h115.094c4.142 0 7.5-3.358 7.5-7.5s-3.358-7.5-7.5-7.5h-115.094c-4.142 0-7.5 3.358-7.5 7.5s3.358 7.5 7.5 7.5z"/><path d="m75.761 312.404c-4.142 0-7.5 3.358-7.5 7.5s3.358 7.5 7.5 7.5h125.094c4.142 0 7.5-3.358 7.5-7.5s-3.358-7.5-7.5-7.5z"/><path d="m300.262 207.404c4.142 0 7.5-3.358 7.5-7.5s-3.358-7.5-7.5-7.5h-82.262c-4.142 0-7.5 3.358-7.5 7.5s3.358 7.5 7.5 7.5z"/><path d="m73.738 207.404h109.262c4.142 0 7.5-3.358 7.5-7.5s-3.358-7.5-7.5-7.5h-109.262c-4.142 0-7.5 3.358-7.5 7.5s3.358 7.5 7.5 7.5z"/><path d="m73.738 267.404h175.961c4.142 0 7.5-3.358 7.5-7.5s-3.358-7.5-7.5-7.5h-175.961c-4.142 0-7.5 3.358-7.5 7.5s3.358 7.5 7.5 7.5z"/><path d="m73.738 387.404h145.961c4.142 0 7.5-3.358 7.5-7.5s-3.358-7.5-7.5-7.5h-145.961c-4.142 0-7.5 3.358-7.5 7.5s3.358 7.5 7.5 7.5z"/><path d="m511.922 430.622c-.497-6.931-3.677-17.132-15.996-26.409l-65.196-51.541 14.823-14.815c2.846 1.361 6.038 2.102 9.404 2.103h.009c7.116 0 14.354-3.174 19.859-8.708.017-.017.034-.035.051-.053 10.263-10.362 11.461-25.98 2.658-34.847l-76.393-76.798c-6.827-7.091-18.514-7.613-27.143-2.94v-65.1c0-10.014-3.938-19.43-11.089-26.512l-115.08-113.982c-7.146-7.078-16.649-10.976-26.759-10.976h-173.119c-26.44 0-47.951 21.299-47.951 47.478v27.805c0 4.142 3.358 7.5 7.5 7.5s7.5-3.358 7.5-7.5v-27.805c0-17.909 14.782-32.479 32.951-32.479l178.211.596v96.385c0 19.072 15.632 34.588 34.847 34.588h97.43l.561 87.554c-1.96 6.114-1.687 12.507.919 17.797l-67.724 67.689c-8.935-4.324-20.963-2.007-29.459 6.448-9.591 9.221-12.329 25.377-2.754 34.912l76.612 76.598c5.791 5.84 14.662 7.174 22.406 4.793.636 9.969-2.192 19.945-9.561 27.033-6.305 6.26-14.689 9.71-23.66 9.607l-15.358-.11c-3.484-6.919-9.801-12.174-17.422-14.229v-6.349c0-15.164-12.336-27.5-27.5-27.5h-92.346c-15.164 0-27.5 12.336-27.5 27.5v6.349c-7.201 1.942-13.238 6.74-16.821 13.101h-80.881c-18.169 0-32.951-14.57-32.951-32.479v-335.025c0-4.142-3.358-7.5-7.5-7.5s-7.5 3.358-7.5 7.5v335.025c0 26.18 21.511 47.479 47.951 47.479h77.355v6.65c0 6.893 5.607 12.5 12.5 12.5h34.194c4.142 0 7.5-3.358 7.5-7.5s-3.358-7.5-7.5-7.5h-31.694v-5.7c0-6.893 5.607-12.5 12.5-12.5h133.042c6.893 0 12.5 5.607 12.5 12.5v5.7h-91.348c-4.142 0-7.5 3.358-7.5 7.5s3.358 7.5 7.5 7.5h93.848c6.893 0 12.5-5.607 12.5-12.5v-5.501c.44.002 12.248.091 12.683.089 12.844 0 24.9-4.951 33.977-13.964 9.023-8.958 13.992-20.858 13.992-33.506v-14.576c5.983-7.629 8.147-17.999 3.961-26.582l14.399-14.392 51.438 65.398c18.444 22.414 37.217 20.159 55.637 3.516 8.776-8.796 13.211-19.208 12.487-29.315zm-338.768 15.233h92.346c6.893 0 12.5 5.607 12.5 12.5v5.4h-117.346v-5.4c0-6.893 5.607-12.5 12.5-12.5zm203.799-213.025c3.922-3.611 9.137-6.16 13.55-2.703l76.393 76.798c2.919 2.94 1.657 9.362-2.7 13.743-4.034 3.8-9.966 6.449-14.16 2.102l-28.296-28.446c-2.921-2.936-7.67-2.949-10.606-.028-2.937 2.921-2.949 7.67-.028 10.606l23.034 23.157c-19.854 19.823-46.15 46.123-65.998 65.965l-64.559-64.546 66.176-66.142 16.464 16.552c2.921 2.937 7.67 2.95 10.606.028 2.937-2.921 2.949-7.67.028-10.606l-21.779-21.894c-3.982-3.135-2.814-9.734 1.875-14.586zm-135.791-120.805v-86.497l107.108 106.085h-87.261c-10.944 0-19.847-8.787-19.847-19.588zm106.033 314.971-76.612-76.598c-3.443-4.421-.925-9.657 2.663-13.596 4.763-4.669 11.341-5.898 14.426-2.024l75.88 75.865c3.456 4.433.905 9.71-2.707 13.64-4.357 4.355-10.737 5.621-13.65 2.713zm141.62 22.35c-11.357 11.354-23.641 11.045-33.17-2.125l-52.6-66.875 17.004-16.996 66.646 52.688c13.153 9.562 13.455 21.921 2.12 33.308z"/></g></svg>