<svg id="Icons" viewBox="0 0 60 60" xmlns="http://www.w3.org/2000/svg"><path d="m26.307 59.47c-.167 0-.329-.084-.424-.235-.143-.228-.079-.528.145-.679l2.956-1.996-4.925 2.843c-.232.135-.528.062-.672-.164s-.084-.525.136-.679l4.695-3.275-7.134 4.118c-.233.135-.528.062-.672-.164s-.084-.525.136-.679l4.764-3.329-7.227 4.172c-.228.135-.523.063-.668-.159-.146-.222-.092-.519.121-.676l6.299-4.643-9.488 5.478c-.232.136-.529.062-.673-.167-.144-.228-.081-.527.141-.679l3.591-2.449-5.371 3.101c-.235.136-.531.061-.674-.168-.143-.228-.079-.528.144-.679l2.7-1.824-3.444 1.988c-.233.136-.528.062-.672-.164s-.084-.525.136-.679l3.487-2.437-3.864 2.23c-.226.133-.519.064-.666-.154-.146-.219-.098-.514.111-.675l4.429-3.406-4.418 2.551c-.225.132-.515.066-.662-.149s-.105-.508.098-.672l2.86-2.312-2.255 1.302c-.213.125-.488.072-.642-.122s-.143-.472.026-.652l1.826-1.947c-.214.06-.455-.026-.572-.23-.139-.239-.057-.545.183-.683l2.779-1.604c.213-.125.488-.072.642.122s.143.472-.026.652l-1.791 1.91 4.87-2.812c.224-.132.514-.066.662.149.147.216.105.508-.098.672l-2.861 2.312 5.432-3.136c.226-.133.519-.065.666.154.146.219.098.514-.111.675l-4.431 3.407 7.344-4.239c.232-.135.528-.062.672.164s.084.525-.136.679l-3.486 2.436 5.685-3.281c.233-.137.53-.062.674.168.143.228.079.528-.144.679l-2.694 1.82 4.623-2.669c.234-.135.53-.062.673.167.144.228.081.527-.141.679l-3.594 2.451 5.715-3.299c.229-.134.524-.063.668.159.146.222.092.519-.121.676l-6.3 4.644 9.495-5.481c.229-.135.529-.062.672.164.144.226.084.525-.136.679l-4.76 3.326 7.227-4.172c.229-.135.528-.062.672.164s.084.525-.136.679l-4.699 3.278 7.143-4.123c.233-.137.53-.062.674.168.143.228.079.528-.145.679l-2.951 1.992 4.924-2.842c.229-.133.523-.062.668.158.146.221.093.518-.119.676l-6.48 4.819 9.797-5.656c.229-.136.524-.062.67.161.145.224.088.521-.128.678l-5.737 4.126 7.733-4.465c.231-.135.525-.063.671.162.144.225.087.522-.131.678l-4.819 3.44 4.279-2.471c.229-.133.523-.062.668.158.146.222.093.518-.12.676l-3.348 2.486 2.8-1.616c.22-.128.503-.068.654.139.15.206.121.493-.068.665l-3.097 2.803 2.511-1.449c.211-.124.481-.075.637.116.155.189.15.463-.012.646l-1.329 1.511.704-.406c.199-.116.451-.08.61.086s.186.419.062.613l-.325.517c.115.036.217.114.281.227.139.239.057.545-.183.683l-1.161.67c-.198.116-.45.08-.61-.086-.159-.166-.186-.419-.062-.613l.139-.22-1.593.919c-.21.124-.481.075-.637-.116-.155-.189-.15-.463.012-.646l1.33-1.512-3.94 2.274c-.219.13-.502.069-.654-.139-.15-.206-.121-.493.068-.665l3.096-2.802-6.246 3.605c-.228.135-.521.063-.668-.158-.146-.222-.093-.518.12-.676l3.345-2.484-5.747 3.318c-.23.134-.526.062-.671-.162-.144-.225-.087-.522.131-.678l4.823-3.442-7.419 4.282c-.229.134-.525.062-.67-.161s-.088-.521.128-.678l5.736-4.124-8.598 4.963c-.227.135-.521.063-.668-.158-.146-.221-.093-.518.119-.676l6.481-4.819-9.793 5.653c-.079.046-.165.067-.25.067z" fill="#d9e1e5"/><path d="m12.306 51.538c-.172 0-.341-.09-.433-.25-.139-.239-.057-.545.183-.683l38.664-22.323c.237-.137.538-.06.679.175.141.233.068.536-.163.682l-12.788 8.035 12.272-7.085c.237-.137.536-.059.677.173.142.231.071.534-.157.681l-13.711 8.785 13.191-7.615c.237-.137.535-.059.678.173.141.232.07.534-.158.681l-10.197 6.52 9.678-5.587c.233-.137.532-.062.675.169.143.229.077.529-.146.68l-12.239 8.182 11.711-6.761c.236-.137.534-.061.676.171s.074.533-.153.681l-6.444 4.196 5.922-3.418c.232-.135.528-.061.673.165.144.227.082.526-.139.679l-8.337 5.768 7.803-4.505c.23-.136.525-.062.671.162.145.225.086.523-.131.678l-6.314 4.487 5.774-3.334c.227-.135.52-.064.666.155s.097.516-.113.675l-5.088 3.872 4.535-2.618c.224-.13.509-.066.657.143.149.211.114.5-.08.669l-3.593 3.101 3.016-1.74c.219-.127.501-.069.653.137.15.206.122.492-.065.664l-1.421 1.303.833-.48c.197-.116.448-.08.608.084.159.163.188.414.068.609l-.664 1.086c.236-.124.536-.044.67.19.139.239.057.545-.183.683l-1.688.974c-.197.115-.449.081-.608-.084-.159-.163-.188-.414-.068-.609l.663-1.085-3.081 1.778c-.218.129-.501.07-.653-.137-.15-.206-.122-.492.065-.664l1.421-1.303-3.645 2.104c-.221.13-.509.066-.657-.143-.149-.211-.114-.5.08-.669l3.592-3.1-6.775 3.911c-.228.133-.521.063-.666-.155-.146-.22-.097-.516.113-.675l5.088-3.872-8.145 4.702c-.23.135-.525.062-.671-.162-.145-.225-.086-.523.131-.678l6.314-4.487-9.227 5.327c-.232.137-.528.062-.673-.165-.144-.227-.082-.526.139-.679l8.34-5.77-11.455 6.613c-.235.137-.534.061-.676-.171s-.074-.533.153-.681l6.439-4.194-8.739 5.046c-.235.135-.532.06-.675-.169s-.077-.529.146-.68l12.238-8.182-15.641 9.03c-.235.138-.535.06-.677-.173s-.071-.534.157-.681l10.204-6.523-12.779 7.377c-.235.138-.535.06-.677-.173-.142-.231-.071-.534.157-.681l13.712-8.786-16.697 9.64c-.235.138-.537.061-.679-.175-.141-.233-.068-.536.163-.682l12.778-8.028-15.509 8.953c-.079.046-.165.067-.25.067z" fill="#46a0dd"/><path d="m9.069 54.524c-.174 0-.345-.078-.436-.229-.141-.233-.1-.519.132-.662l17.09-10.661-16.575 9.569c-.237.137-.54.058-.679-.176-.141-.234-.066-.538.166-.682l14.117-8.737-13.604 7.854c-.237.137-.539.059-.68-.177-.14-.234-.065-.538.168-.682l11.8-7.265-11.288 6.517c-.237.138-.539.059-.68-.177-.14-.234-.065-.538.167-.682l12.41-7.65-11.897 6.869c-.237.137-.54.058-.679-.176-.141-.234-.066-.538.165-.682l14.818-9.187-14.305 8.259c-.235.138-.537.06-.678-.174s-.069-.536.161-.682l20.471-12.92-19.954 11.521c-.237.137-.539.059-.68-.177-.14-.235-.064-.54.169-.683l8.302-5.078-7.791 4.498c-.237.138-.539.058-.679-.175-.141-.234-.067-.537.164-.682l17.792-11.123-17.277 9.975c-.237.137-.54.058-.679-.176-.141-.234-.066-.538.165-.682l14.744-9.139-14.23 8.216c-.237.138-.539.059-.68-.177-.14-.235-.064-.54.169-.683l8.278-5.063-7.768 4.484c-.237.138-.539.059-.68-.177-.14-.235-.064-.539.168-.682l9.618-5.897-9.106 5.258c-.237.137-.54.058-.679-.176-.141-.234-.066-.538.166-.682l13.913-8.606-13.4 7.736c-.235.138-.537.06-.678-.174s-.069-.536.16-.682l20.98-13.268-20.463 11.813c-.237.137-.54.058-.679-.176-.141-.234-.066-.538.165-.682l14.503-8.983-13.989 8.076c-.237.137-.539.059-.68-.177-.14-.235-.065-.539.168-.682l10.698-6.572-10.187 5.881c-.235.138-.537.061-.679-.175-.141-.233-.068-.536.163-.682l18.719-11.747-18.203 10.51c-.237.137-.539.058-.679-.176-.141-.234-.067-.538.165-.682l12.72-7.895-12.206 7.047c-.237.137-.539.059-.68-.177-.14-.234-.065-.538.167-.682l7.324-4.515-6.812 3.933c-.235.139-.537.06-.678-.174s-.069-.536.161-.682l12.527-7.916-12.011 6.935c-.235.138-.537.061-.678-.174-.141-.233-.069-.536.161-.682l9.611-6.073-9.095 5.251c-.235.138-.537.061-.678-.174-.141-.232-.07-.535.16-.681l7.936-5.038-7.418 4.282c-.235.137-.535.061-.676-.171-.142-.231-.074-.533.153-.681l9.227-6.01-8.704 5.025c-.235.137-.533.06-.676-.17-.142-.23-.075-.532.151-.681l7.239-4.752-6.715 3.877c-.232.137-.53.062-.674-.167-.143-.228-.08-.527.143-.679l7.423-5.058-6.892 3.979c-.23.134-.526.062-.669-.16-.146-.224-.09-.521.125-.677l6.984-5.072-6.44 3.718c-.23.135-.528.062-.672-.164s-.084-.525.136-.679l2.627-1.833-2.091 1.206c-.227.135-.522.063-.668-.158s-.093-.519.12-.676l2.478-1.839-1.93 1.114c-.219.129-.503.07-.655-.14-.15-.207-.119-.494.071-.665l2.515-2.252-1.904 1.1c-.213.126-.488.073-.643-.123-.153-.194-.142-.473.029-.653l1.174-1.239c-.143-.022-.274-.107-.353-.243-.139-.239-.057-.545.183-.683l2.376-1.372c.213-.125.488-.073.643.123.153.194.142.473-.029.653l-.902.952 3.104-1.792c.221-.128.504-.069.655.14.15.207.119.494-.071.665l-2.516 2.253 5.296-3.058c.229-.134.522-.062.668.158.146.222.093.519-.12.676l-2.477 1.838 4.628-2.672c.23-.135.528-.062.672.164s.084.525-.136.679l-2.627 1.834 4.637-2.677c.229-.136.525-.062.669.16.146.224.09.521-.125.677l-6.984 5.072 10.244-5.897c.235-.136.53-.061.674.167.143.228.08.527-.143.679l-7.42 5.056 10.222-5.902c.235-.137.533-.059.676.17.142.23.075.532-.151.681l-7.246 4.756 9.711-5.607c.235-.137.534-.061.676.171s.074.533-.153.681l-9.225 6.008 11.882-6.86c.237-.137.538-.06.678.174.141.232.07.535-.16.681l-7.928 5.033 10.198-5.888c.236-.137.537-.06.678.174s.069.536-.161.682l-9.607 6.07 11.995-6.926c.236-.137.537-.06.678.174s.069.536-.161.682l-12.528 7.916 15.193-8.772c.236-.139.538-.06.68.177.14.234.065.538-.167.682l-7.327 4.517 9.309-5.376c.236-.139.538-.06.679.176.141.234.067.538-.165.682l-12.719 7.894 14.539-8.395c.237-.137.539-.061.679.175.141.233.068.536-.163.682l-18.723 11.749 18.426-10.638c.236-.138.538-.06.68.177.14.235.065.539-.168.682l-10.698 6.572 10.187-5.881c.236-.138.539-.059.679.176.141.234.066.538-.165.682l-14.503 8.983 13.989-8.076c.237-.137.537-.059.678.174s.069.536-.16.682l-20.971 13.262 20.453-11.809c.236-.139.539-.06.679.176.141.234.066.538-.166.682l-13.929 8.616 13.416-7.745c.236-.139.538-.06.68.177.14.235.064.539-.168.682l-9.618 5.897 9.106-5.258c.236-.139.538-.06.68.177.14.235.064.54-.169.683l-8.278 5.063 7.768-4.484c.236-.139.539-.06.679.176.141.234.066.538-.165.682l-14.744 9.139 14.23-8.216c.236-.139.537-.059.679.175.141.234.067.537-.164.682l-17.792 11.123 17.277-9.975c.236-.139.538-.06.68.177.14.235.064.54-.169.683l-8.302 5.078 7.791-4.498c.237-.137.537-.06.678.174s.069.536-.161.682l-20.471 12.92 19.954-11.521c.236-.139.539-.06.679.176.141.234.066.538-.165.682l-14.804 9.177 14.29-8.25c.236-.139.538-.06.68.177.14.234.065.538-.167.682l-12.428 7.661 11.915-6.879c.236-.139.538-.06.68.177.14.234.065.538-.168.682l-11.78 7.253 11.269-6.506c.236-.139.539-.06.679.176.141.234.066.538-.166.682l-14.133 8.747 13.62-7.863c.236-.138.537-.059.679.175.141.234.067.538-.164.682l-41.837 26.09c-.018.014-.037.026-.058.038-.01.005-.02.011-.029.016l-.02.012-.002-.002c-.07.031-.147.046-.224.046z" fill="#46a0dd"/><path d="m30.585 15.348c-.15 0-.298-.067-.396-.194-.153-.197-.137-.479.039-.656l1.66-1.686-2.639 1.522c-.224.132-.513.065-.661-.147-.148-.214-.107-.506.093-.671l.686-.564-.761.438c-.224.131-.51.066-.659-.146-.149-.213-.11-.504.088-.67l.742-.623-.478.275c-.207.121-.471.076-.629-.106-.156-.182-.162-.449-.013-.637l1.329-1.676c-.228.106-.514.024-.645-.203-.139-.239-.057-.545.183-.683l2.231-1.288c.206-.122.472-.077.629.106.156.182.162.449.013.637l-1.326 1.672 3.158-1.823c.224-.132.511-.066.659.146.149.213.11.504-.088.67l-.745.625 1.026-.592c.224-.132.513-.065.661.147.148.214.107.506-.093.671l-.686.564.615-.354c.215-.126.493-.072.646.127.153.197.137.479-.039.656l-1.659 1.686 1.076-.621c.238-.141.545-.058.683.183.139.239.057.545-.183.683l-4.27 2.465c-.078.046-.164.067-.25.067z" fill="#fff"/><path d="m30.442 43.438c-.134 0-.267-.054-.364-.157-.159-.169-.181-.425-.053-.618l1.025-1.552-3.216 1.856c-.217.127-.497.071-.649-.132-.151-.201-.13-.484.052-.66l.909-.881-1.388.801c-.222.132-.509.067-.658-.144s-.113-.501.083-.669l.675-.577-.701.404c-.222.132-.508.067-.658-.144-.148-.21-.113-.5.082-.668l1.752-1.508-1.44.831c-.222.131-.508.067-.657-.143s-.115-.499.079-.668l2.579-2.237-1.506.869c-.218.129-.501.07-.653-.137-.15-.206-.122-.492.065-.665l3.185-2.913-1.854 1.07c-.218.128-.5.069-.652-.136-.151-.204-.124-.49.062-.663l3.133-2.912-1.791 1.034c-.226.132-.516.065-.664-.152-.146-.217-.102-.51.104-.673l.775-.612c-.175.007-.345-.059-.45-.207-.15-.209-.117-.498.077-.667l2.113-1.852-.94.542c-.224.132-.512.066-.66-.146s-.109-.505.091-.671l1.113-.926-.101.058c-.214.127-.492.073-.646-.127-.153-.197-.137-.478.039-.656l2.119-2.158-1.93 1.114c-.218.128-.499.07-.651-.135-.151-.204-.126-.488.06-.662l1.032-.97-1.533.885c-.209.123-.476.074-.634-.111-.155-.187-.155-.458.002-.644l1.208-1.433-2.126 1.227c-.199.116-.45.079-.609-.085-.16-.165-.187-.418-.064-.612l.314-.504c-.126-.032-.24-.113-.311-.235-.139-.239-.057-.545.183-.683l1.206-.696c.197-.117.449-.08.609.085s.187.418.064.612l-.156.25 2.862-1.651c.209-.122.477-.074.634.111.155.187.155.458-.002.644l-1.207 1.432 2.806-1.619c.218-.127.499-.071.651.135.151.204.126.488-.06.662l-1.031.969 1.362-.786c.216-.125.492-.071.646.126.153.198.137.479-.039.657l-2.121 2.159 1.999-1.153c.225-.132.512-.066.66.146s.109.505-.091.671l-1.114.927.27-.155c.223-.13.507-.067.656.142.15.209.117.498-.077.667l-2.112 1.852 1.1-.635c.225-.133.516-.066.664.152.146.217.102.51-.104.673l-.696.55c.18-.027.367.043.481.197.151.204.124.49-.062.663l-3.133 2.912 1.994-1.151c.219-.128.502-.069.653.137.15.206.122.492-.065.665l-3.185 2.913 2.056-1.187c.221-.129.508-.067.657.143s.115.499-.079.668l-2.579 2.237 1.538-.888c.223-.13.509-.066.658.144.148.21.113.5-.082.668l-1.751 1.508.774-.447c.224-.13.51-.067.658.144.149.211.113.501-.083.669l-.677.579.205-.118c.217-.128.496-.071.649.132.151.201.13.484-.052.66l-.908.88 1.546-.893c.2-.116.454-.08.614.09.159.169.181.425.053.618l-1.025 1.552 3.354-1.937c.204-.12.467-.077.625.102.157.179.167.443.023.633l-.379.5.058-.032c.238-.141.545-.058.683.183.139.239.057.545-.183.683l-2.197 1.269c-.206.119-.468.077-.625-.102s-.167-.443-.023-.633l.378-.5-3.05 1.761c-.078.046-.164.067-.25.067z" fill="#fff"/><g fill="#262626"><path d="m48.848.674h-33.926c-3.655-.496-7.247 1.846-6.646 5.824.038 16.239-.074 32.541.038 48.751-.03 2.495 2.392 4.351 4.829 4.143 11.808.034 23.616-.018 35.424 0 3.801-.29 1.607-5.788 2.157-8.347 1.02-.491 1-1.473 1-2.693 0-8.513 0-17.026 0-25.539-.04-6.978.06-13.982 0-20.945-.185-1.461-1.786-1.194-2.876-1.194zm-35.934.652c10.596-.232 21.222 0 31.821 0 1.98.158 6.221-1.249 5.541 2.141-.071 15.709.136 31.458-.071 47.142h-34.972c-1.969 0-4.006-.034-5.509 1.339 0-14.044 0-28.088 0-42.132 0-2.731-.895-8.4 3.19-8.49zm2.814 57.283c-2.267 0-4.829.213-5.778-2.476-.739-2.094.509-4.642 2.87-4.741 12.151-.003 24.304.002 36.456 0-.177 2.036.4 5.282-.154 7.217-11.131 0-22.263 0-33.394 0z"/><path d="m32.272 15.313c3.943-.581 4.749-6.384.748-7.548-6.664-1.868-7.954 8.731-.748 7.548zm-3.102-5.583c2.95-4.299 7.738 3.002 3.251 4.742-2.516.747-4.668-2.601-3.251-4.742z"/><path d="m25.335 37.346c-2.376 5.73 4.639 7.012 8.678 5.253.892-.272 2.801-.757 2.677-1.952-.331-.992-.457-1.995-1.746-1.777-1.019.172-2.268.946-2.865-.377-.157-6.76 8.809-22.844-5.332-17.88-1.069.1-1.688.903-1.471 1.971-.169 1.213.979 1.189 1.829 1.458 3.291 2.09-1.524 9.928-1.77 13.304zm4.326-12.408c-1.017-2.597-3.248-.451-3-3.86 12.15-4.194 4.215 11.045 3.904 16.85-.289 2.319 2.48 2.122 3.947 1.55.478-.05.14-.13.306.287 1.607 2.306-1.846 2.828-3.367 2.873-10.743.564-.759-12.418-1.789-17.701z"/><path d="m30.3 54.655c-5.238.318-10.942-.635-15.964.367 4.417.93 10.431.006 15.365.322.425.125 1.621-.617.599-.69z"/><path d="m44.28 54.583c-3.227.309-6.972-.636-9.956.398-.164.289.14.437.396.437h7.885c.566.173 3.147-.235 1.675-.835z"/><path d="m14.724 45.806c0-13.333 0-26.667 0-40 0-.44-1.449-.17-1.449.388v40c0 .44 1.449.171 1.449-.388z"/></g></svg>