<?xml version="1.0" encoding="utf-8"?>
<!-- Generator: Adobe Illustrator 26.2.1, SVG Export Plug-In . SVG Version: 6.00 Build 0)  -->
<svg version="1.1" id="Layer_1" xmlns="http://www.w3.org/2000/svg" xmlns:xlink="http://www.w3.org/1999/xlink" x="0px" y="0px"
	 viewBox="0 0 512 512" style="enable-background:new 0 0 512 512;" xml:space="preserve">
<style type="text/css">
	.st0{fill:#FC657E;}
	.st1{fill:#EDF4FC;}
	.st2{fill:#EF4460;}
	.st3{fill:#F5C84C;}
	.st4{fill:#70D6F9;}
	.st5{fill:#87D147;}
</style>
<g>
	<path class="st0" d="M448.6,183c-4.2-0.6-8.6-1.6-12-0.6c-6,1.6-11.2,10-17.6,10s-11.8-8.4-17.6-10c-6.2-1.6-15,3-20.4-0.2
		s-5.8-13-10.2-17.6c0,0,0,0-0.2-0.2H5l63.8,221.8H507L448.6,183z"/>
	<g>
		<path class="st1" d="M181.6,294.8c-3.4-6.2-8.2-11.4-14.4-14.8c-6.2-3.6-13.2-5.4-20.4-5.4s-14.2,1.8-20.4,5.4s-11.2,8.6-14.4,15
			c-6.8,13.4-6.8,29.2,0,42.6c3.4,6.2,8.4,11.4,14.4,15c6.2,3.6,13.2,5.4,20.4,5.4s14.2-1.8,20.4-5.4c6-3.6,11-8.8,14.4-14.8
			C188.6,324.2,188.6,308.2,181.6,294.8L181.6,294.8z M165.6,329.2c-1.6,3.4-4.4,6.2-7.6,8.2c-3.4,2-7.2,3-11.2,2.8
			c-4,0-7.8-1-11.2-2.8c-3.2-2-6-4.8-7.6-8.2c-3.8-8.2-3.8-17.8,0-26.2c1.6-3.4,4.4-6.2,7.6-8.2c7-3.8,15.4-3.8,22.4,0
			c3.2,2,6,4.8,7.6,8.2C169.6,311.4,169.6,320.8,165.6,329.2z"/>
		<path class="st1" d="M236.2,275.6h-41c-2.4,0-4.4,2-4.4,4.4v72.6c0,2.4,2,4.4,4.4,4.4h9.4c2.4,0,4.4-2,4.4-4.4v-28.2h22.6
			c2.4,0,4.4-2,4.4-4.4v-7.4c0-2.4-2-4.4-4.4-4.4H209v-16.4h27.4c2.4,0,4.4-2,4.4-4.4V280C240.6,277.6,238.6,275.6,236.2,275.6
			L236.2,275.6z"/>
		<path class="st1" d="M288.4,275.6h-41c-2.4,0-4.4,2-4.4,4.4v72.6c0,2.4,2,4.4,4.4,4.4h9.4c2.4,0,4.4-2,4.4-4.4v-28.2h22.6
			c2.4,0,4.4-2,4.4-4.4v-7.4c0-2.4-2-4.4-4.4-4.4h-22.6v-16.4h27.4c2.4,0,4.4-2,4.4-4.4V280C292.8,277.6,290.8,275.6,288.4,275.6
			L288.4,275.6z"/>
		<path class="st1" d="M339.6,291.8c2.4,0,4.4-2,4.4-4.4V280c0-2.4-2-4.4-4.4-4.4h-40c-2.4,0-4.4,2-4.4,4.4v72.6
			c0,2.4,2,4.4,4.4,4.4h40c2.4,0,4.4-2,4.4-4.4V345c0-2.4-2-4.4-4.4-4.4h-26.4V324h23.2c2.4,0,4.4-2,4.4-4.4v-7.2
			c0-2.4-2-4.4-4.4-4.4h-23.2v-16.2H339.6z"/>
		<path class="st1" d="M404.4,350.2L388,325.4c10.4-3.2,17.2-13,16.6-23.8c0.2-7-2.4-14-7.6-18.8c-5-4.8-12.2-7.2-21.6-7.2h-23.8
			c-2.4,0-4.4,2-4.4,4.4v72.6c0,2.4,2,4.4,4.4,4.4h9.4c2.4,0,4.4-2,4.4-4.4v-25.4h3.4l17.6,27.6c0.8,1.2,2.2,2,3.6,2h10.6
			c2.4,0,4.4-2,4.4-4.4C405.2,351.6,404.8,350.8,404.4,350.2L404.4,350.2z M374.8,311.8h-9.4v-19.4h9.4c10.2,0,11.6,4.6,11.6,9.6
			S385,311.8,374.8,311.8z"/>
	</g>
	<path class="st2" d="M353.4,386.2l25.4,89.2L507,386.2H353.4z"/>
	<path class="st3" d="M257.6,101c-8-1.4-14.4-7.6-16-15.6c0-0.2-0.2-0.4-0.4-0.2c-0.2,0-0.2,0.2-0.2,0.2c-1.6,8-8,14.2-16,15.6
		c-0.2,0-0.4,0.2-0.2,0.4c0,0.2,0.2,0.2,0.2,0.2c8,1.4,14.4,7.6,16,15.6c0,0.2,0.2,0.4,0.4,0.2c0.2,0,0.2-0.2,0.2-0.2
		c1.6-8,8-14.2,16-15.6c0.2,0,0.4-0.2,0.4-0.4S257.8,101,257.6,101z"/>
	<path class="st4" d="M324.4,425.4H320V421c0-3.4-2.6-6-6-6s-6,2.6-6,6v4.4h-4.4c-3.4,0-6,2.6-6,6s2.6,6,6,6h4.4v4.4
		c0,3.4,2.6,6,6,6s6-2.6,6-6v-4.4h4.4c3.4,0,6-2.6,6-6S327.8,425.4,324.4,425.4z"/>
	<circle class="st3" cx="27.6" cy="373.8" r="6.4"/>
	<circle class="st0" cx="199.6" cy="125.8" r="6.4"/>
	<circle class="st5" cx="259.6" cy="415.8" r="6.4"/>
	<g>
		<path d="M146,231c-1.8-2.4-4-4.4-6.6-5.8c-3-1.4-6-2.6-9.2-3.6c-2.4-0.8-4.6-1.6-6.8-2.6c-1.4-0.6-2.4-1.4-3.4-2.6
			c-0.8-1-1.2-2.4-1.2-3.6c-0.2-1.6,0.6-3.4,1.8-4.4c1.6-1.2,3.4-1.8,5.4-1.6c2.2-0.2,4.2,0.6,5.8,1.8c1.4,1.2,2.2,2.8,2.6,4.4
			c0.2,1.2,1.4,2.2,2.6,2.2h7.8c1.4,0,2.6-1.2,2.6-2.6c0-0.2,0-0.2,0-0.4c-0.6-4.8-3-9-6.6-12c-4.2-3.2-9.6-5-15-4.6
			c-3.6,0-7.2,0.6-10.4,2c-3,1.4-5.4,3.4-7.2,6.2s-2.6,6-2.6,9.2c-0.2,3.4,0.8,7,2.8,9.8c1.6,2.4,4,4.2,6.6,5.6c3,1.4,6,2.6,9,3.4
			c2.4,0.8,4.6,1.6,7,2.6c1.4,0.6,2.6,1.6,3.6,2.8c0.8,1.2,1.2,2.6,1.2,4c0,1.8-0.6,3.4-1.8,4.8c-1.6,1.4-3.6,2-5.6,1.8
			c-1.8,0-3.4-0.4-5-1.2c-1.2-0.6-2.4-1.6-3-2.8c-0.6-1-1.2-2.4-1.2-3.6c-0.2-1.4-1.2-2.4-2.6-2.4h-7.8c-1.4,0-2.6,1.2-2.6,2.6v0.2
			c0.2,3.4,1.4,6.8,3.6,9.4c2,2.8,4.8,5,8,6.4c3.4,1.6,7.2,2.4,11.2,2.2c3.8,0.2,7.6-0.8,11-2.4c2.8-1.6,5.2-3.8,6.8-6.6
			c1.4-2.6,2.2-5.6,2.2-8.8S148,234,146,231L146,231z"/>
		<path d="M190.4,202c-3.8-3.4-9.2-5.2-16.4-5.2h-18c-1.4,0-2.6,1.2-2.6,2.6V256c0,1.4,1.2,2.6,2.6,2.6h7.4c1.4,0,2.6-1.2,2.6-2.6
			v-20.2h8c7,0,12.4-1.8,16.2-5.2c4-3.6,6.2-9,5.8-14.4C196.2,210.8,194.2,205.6,190.4,202L190.4,202z M181.2,222.4
			c-1.4,1.4-4,2-7.8,2H166V208h7.4c2.8-0.2,5.6,0.4,7.8,2c1.6,1.6,2.4,4,2.2,6.2C183.4,218.4,182.6,220.6,181.2,222.4z"/>
		<path d="M233.2,207.8c1.4,0,2.6-1.2,2.6-2.6v-6c0-1.4-1.2-2.6-2.6-2.6H202c-1.4,0-2.6,1.2-2.6,2.6V256c0,1.4,1.2,2.6,2.6,2.6h31.2
			c1.4,0,2.6-1.2,2.6-2.6v-6c0-1.4-1.2-2.6-2.6-2.6h-21.4v-14.6h19c1.4,0,2.6-1.2,2.6-2.6v-5.6c0-1.4-1.2-2.6-2.6-2.6h-19v-14.2
			L233.2,207.8z"/>
		<path d="M294.2,234.8h-7.8c-1,0-2,0.6-2.4,1.6c-1.2,3.2-3.2,5.8-6,7.8c-3,2-6.6,3-10.4,2.8c-6.2,0.2-11.8-3.4-14.4-9
			c-1.6-3.2-2.4-6.8-2.2-10.4c0-3.6,0.6-7.2,2.2-10.6c2.6-5.6,8.4-9.2,14.4-9c3.6-0.2,7.2,0.8,10.4,2.8c2.8,1.8,4.8,4.6,6,7.8
			c0.4,1,1.4,1.6,2.4,1.6h7.8c1.4,0,2.6-1.2,2.6-2.6c0-0.2,0-0.4-0.2-0.8c-1.6-6-5.2-11.4-10.2-15.4c-5.4-3.8-12-5.8-18.8-5.6
			c-5.4,0-10.8,1.4-15.4,4c-4.4,2.8-8.2,6.6-10.6,11.4c-2.6,5-3.8,10.6-3.8,16.2s1.2,11.2,3.8,16.2c2.4,4.6,6,8.6,10.6,11.2
			c4.6,2.8,10,4.2,15.4,4c6.6,0.2,13.2-1.8,18.8-5.6c5-3.8,8.6-9.2,10.2-15.4c0.4-1.4-0.4-2.8-1.8-3.2
			C294.6,234.8,294.4,234.8,294.2,234.8L294.2,234.8z"/>
		<path d="M304,196.6h7.4c1.4,0,2.6,1.2,2.6,2.6V256c0,1.4-1.2,2.6-2.6,2.6H304c-1.4,0-2.6-1.2-2.6-2.6v-56.8
			C301.2,197.8,302.4,196.6,304,196.6L304,196.6z"/>
		<path d="M371.2,255l-21-55.6c-0.4-1-1.4-1.8-2.4-1.8h-8.2c-1,0-2,0.6-2.4,1.8l-21,55.6c-0.6,1.4,0.2,2.8,1.6,3.4
			c0.2,0.2,0.6,0.2,1,0.2h7.8c1.2,0,2.2-0.6,2.4-1.8l4.2-11.4h21.2l4.2,11.4c0.4,1,1.4,1.8,2.4,1.8h7.8c1.4,0,2.6-1.2,2.6-2.6
			C371.4,255.6,371.4,255.4,371.2,255z M337.2,234.6l6.6-18.2l6.6,18.2H337.2z"/>
		<path d="M403.6,247.6h-17.4v-48.4c0-1.4-1.2-2.6-2.6-2.6h-7.4c-1.4,0-2.6,1.2-2.6,2.6V256c0,1.4,1.2,2.6,2.6,2.6h27.4
			c1.4,0,2.6-1.2,2.6-2.6v-5.8C406.2,248.8,405.2,247.6,403.6,247.6L403.6,247.6z"/>
	</g>
	<path class="st3" d="M484.8,134c1.6-6,10-11.2,10-17.6s-8.4-11.8-10-17.6c-1.6-6.2,3-15-0.2-20.4s-13-5.8-17.6-10.2
		s-4.8-14.4-10.2-17.6s-14.2,1.4-20.4-0.2c-6-1.6-11.2-10-17.6-10s-11.8,8.4-17.6,10c-6.2,1.6-15-3-20.4,0.2s-5.8,13-10.2,17.6
		S356.2,73,353,78.4s1.4,14.2-0.2,20.4c-1.6,6-10,11.2-10,17.6s8.4,11.8,10,17.6c1.6,6.2-3,15,0.2,20.4s13,5.8,17.6,10.2
		s4.8,14.4,10.2,17.6s14.2-1.4,20.4,0.2c6,1.6,11.2,10,17.6,10s11.8-8.4,17.6-10c6.2-1.6,15,3,20.4-0.2s5.8-13,10.2-17.6
		s14.4-4.8,17.6-10.2C487.8,148.8,483.2,140,484.8,134z"/>
	<path d="M511.8,384.8l-56.6-197c1.4-0.2,2.8-0.8,4.2-1.4c4.6-2.6,6.4-7.6,8.2-12c0.6-2.2,1.8-4.4,3.2-6.4c2-1.4,4-2.6,6.4-3.2
		c4.4-1.6,9.4-3.6,12-8.2s1.8-9.8,1-14.2c-0.6-2.4-0.6-4.8-0.4-7.2c1-2.2,2.2-4,3.8-5.8c3-3.6,6.4-7.8,6.4-13.2s-3.4-9.6-6.4-13.2
		c-1.6-1.6-2.8-3.6-3.8-5.8c-0.2-2.4-0.2-4.8,0.4-7.2c0.8-4.6,1.6-9.8-1-14.2c-2.6-4.6-7.6-6.4-12-8.2c-2.2-0.6-4.4-1.8-6.4-3.2
		c-1.4-2-2.6-4-3.2-6.4c-1.6-4.4-3.6-9.4-8.2-12s-9.8-1.8-14.2-1c-2.4,0.6-4.8,0.6-7.2,0.4c-2.2-1-4-2.2-5.8-3.8
		c-3.6-3-7.8-6.4-13.2-6.4s-9.6,3.4-13.2,6.4c-1.6,1.6-3.6,2.8-5.8,3.8c-2.4,0.2-4.8,0.2-7.2-0.4c-4.6-0.8-9.8-1.6-14.2,1
		c-4.6,2.6-6.4,7.6-8.2,12c-0.6,2.2-1.8,4.4-3.2,6.4c-2,1.4-4,2.6-6.4,3.2c-4.4,1.6-9.4,3.6-12,8.2s-1.8,9.8-1,14.2
		c0.6,2.4,0.6,4.8,0.4,7.2c-1,2.2-2.2,4-3.8,5.8c-3,3.6-6.4,7.8-6.4,13.2s3.4,9.6,6.4,13.2c1.6,1.6,2.8,3.6,3.8,5.8
		c0.2,2.4,0.2,4.8-0.4,7.2c-0.8,4.6-1.6,9.8,1,14.2c0.6,1,1.2,1.8,2.2,2.6H5c-2.8,0-5,2.2-5,5c0,0.4,0,1,0.2,1.4l63.8,222
		c0.6,2.2,2.6,3.6,4.8,3.6h280.8l24.4,85.6c0.8,2.6,3.6,4.2,6.2,3.4c0.6-0.2,1-0.4,1.4-0.8l128.2-89.2
		C511.6,389.2,512.4,387,511.8,384.8L511.8,384.8z M347.8,116.2c0-1.8,2-4.4,4.2-7c2.6-2.8,4.4-6,5.8-9.4c0.8-3.8,0.6-7.6-0.2-11.4
		c-0.4-3-1-6.2-0.2-7.8s4-2.8,6.8-3.8c3.6-1.2,7-3,9.8-5.4c2.4-2.8,4.4-6.2,5.4-9.8c1-2.8,2.2-6,3.8-6.8c1.4-0.8,4.8-0.4,7.8,0.2
		c3.8,0.8,7.6,1,11.4,0.2c3.6-1.2,6.8-3.2,9.4-5.8c2.4-2,5-4.2,7-4.2s4.4,2,7,4.2c2.8,2.6,6,4.4,9.4,5.8c3.8,0.8,7.6,0.6,11.4-0.2
		c3-0.4,6.2-1,7.8-0.2s2.8,4,3.8,6.8c1.2,3.6,3,7,5.4,9.8c2.8,2.4,6.2,4.4,9.8,5.4c2.8,1,6,2.4,6.8,3.8s0.4,4.8-0.2,7.8
		c-0.8,3.8-1,7.6-0.2,11.4c1.2,3.6,3.2,6.8,5.8,9.4c2,2.4,4.2,5,4.2,7s-2,4.4-4.2,7c-2.6,2.8-4.4,6-5.8,9.4
		c-0.8,3.8-0.6,7.6,0.2,11.4c0.4,3,1,6.2,0.2,7.8s-4,2.8-6.8,3.8c-3.6,1.2-7,3-9.8,5.4c-2.4,2.8-4.4,6.2-5.4,9.8
		c-1,2.8-2.2,6-3.8,6.8c-1.4,0.8-4.8,0.4-7.8-0.2c-3.8-0.8-7.6-1-11.4-0.2c-3.6,1.2-6.8,3.2-9.4,5.8c-2.4,2-5,4.2-7,4.2
		s-4.4-2-7-4.2c-2.8-2.6-6-4.4-9.4-5.8c-1.4-0.4-3-0.6-4.4-0.6c-2.4,0-4.6,0.2-7,0.8c-3,0.4-6.2,1-7.8,0.2s-2.8-4-3.8-6.8
		c-1.2-3.6-3-7-5.4-9.8s-0.2-0.2-0.2-0.2c-2.8-2.4-6-4-9.4-5.2c-2.8-1-6-2.4-6.8-3.8s-0.4-4.8,0.2-7.8c0.8-3.8,1-7.6,0.2-11.4
		c-1.2-3.6-3.2-6.8-5.8-9.4C349.8,120.6,347.8,118,347.8,116.2z M381.6,467.4l-21.6-76h131L381.6,467.4z M72.6,381.2l-61-211.8H368
		c0.8,1.6,1.6,3.2,2.2,5c1.6,4.4,3.6,9.4,8.2,12s9.8,1.8,14.2,1c2.4-0.6,4.8-0.6,7.2-0.4c2.2,1,4,2.2,5.8,3.8
		c3.6,3,7.8,6.4,13.2,6.4s9.6-3.4,13.2-6.4c1.6-1.6,3.6-2.8,5.8-3.8c2.2-0.2,4.6-0.2,6.8,0.4l55.8,193.8H72.6z"/>
	<path d="M147,287.2c-15.4,0-26.8,11-26.8,29c0,17.4,10.8,29,26.8,29c15,0,26.6-11,26.6-29C173.6,298,162,287.2,147,287.2z
		 M147,335.2c-11.2,0-16.8-8.2-16.8-19c0-11.2,5.8-19,16.8-19s16.6,8.2,16.6,19C163.6,327.2,157.8,335.2,147,335.2z"/>
	<path d="M408.6,347.4l-13.2-19.8c2.6-1.4,4.8-3.2,6.8-5.4c5-5.6,7.6-13,7.4-20.6c0.2-8.4-3-16.6-9-22.4c-5.8-5.6-14.4-8.6-25-8.6
		h-23.8c-2.2,0-4.4,0.8-6,2.2c-1.6-1.4-3.8-2.2-6-2.2h-40c-2,0-4,0.6-5.6,1.8c-1.6-1.2-3.6-1.8-5.6-1.8h-41c-2,0-4,0.6-5.6,1.8
		c-1.6-1.2-3.6-1.8-5.6-1.8h-41.2c-5.2,0-9.4,4.2-9.4,9.4v12.2c-3.8-6.8-9.2-12.4-16-16.4c-7-4-14.8-6.2-22.8-6
		c-25.4,0-45,19.4-45,46.6c0,27,19.4,46.6,45,46.6c16.2,0.4,31-8.4,38.8-22.4v12.2c0,5.2,4.2,9.4,9.4,9.4h9.4c5.2,0,9.4-4.2,9.4-9.4
		v-23.2h17.6c2.4,0,4.8-1,6.6-2.8v26c0,5.2,4.2,9.4,9.4,9.4h9.4c5.2,0,9.4-4.2,9.4-9.4v-23.2H284c2.4,0,4.8-1,6.6-2.8v26
		c0,5.2,4.2,9.4,9.4,9.4h40c2.2,0,4.4-0.8,6-2.2c1.6,1.4,3.8,2.2,6,2.2h9.4c5.2,0,9.4-4.2,9.4-9.4v-13.6l12,18.6
		c1.8,2.6,4.6,4.4,7.8,4.4h10.6c5.2,0,9.4-4.2,9.4-9.4C410.2,350.8,409.6,349,408.6,347.4L408.6,347.4z M147,352.8
		c-20.2,0-35-15.2-35-36.6c0-21.8,15.2-36.6,35-36.6c20.4,0,34.8,15.4,34.8,36.6C181.8,337.2,167.4,352.8,147,352.8z M230.8,319.4
		H209c-2.8,0-5,2.2-5,5V352h-8v-71.2h39.8v6.4H209c-2.8,0-5,2.2-5,5v16.4c0,2.8,2.2,5,5,5h21.8V319.4z M238,306
		c-1.8-1.8-4.2-2.8-6.6-2.8h-17.6v-6.4h22.4c0.6,0,1.2,0,1.8-0.2L238,306z M283,319.4h-21.8c-2.8,0-5,2.2-5,5V352h-8v-71.2H288v6.4
		h-26.8c-2.8,0-5,2.2-5,5v16.4c0,2.8,2.2,5,5,5H283V319.4z M290.2,306c-1.8-1.8-4.2-2.8-6.6-2.8H266v-6.4h22.4c0.6,0,1.2,0,1.8-0.2
		L290.2,306z M339,351.8h-38.8v-71.2H339v6.4h-25.6c-2.8,0-5,2.2-5,5v16.2c0,2.8,2.2,5,5,5H336v5.8h-22.6c-2.8,0-5,2.2-5,5v16.6
		c0,2.8,2.2,5,5,5H339V351.8z M342.4,336c-0.8-0.2-1.8-0.4-2.8-0.4h-21.4V329h18.2c2.2,0,4.2-0.8,5.8-2L342.4,336z M342.4,305
		c-1.6-1.4-3.6-2-5.8-2h-18.2v-6.2h21.4c1,0,1.8-0.2,2.8-0.4L342.4,305z M390.6,351.8l-17.4-27.4c-1-1.4-2.6-2.4-4.2-2.4h-3.4
		c-2.8,0-5,2.2-5,5v24.6h-8v-71.2h23.2c8,0,14.2,2,18,5.8c7.4,8,8,20.4,1.2,29c-2.4,2.4-5.2,4.2-8.4,5.2c-2.6,0.8-4,3.8-3.2,6.4
		c0.2,0.4,0.4,0.8,0.6,1.2l15.6,23.8L390.6,351.8z"/>
	<path d="M374.8,287.4h-9.4c-2.8,0-5,2.2-5,5v19.4c0,2.8,2.2,5,5,5h9.4c11,0,16.6-5,16.6-14.6S385.8,287.4,374.8,287.4z
		 M374.8,306.8h-4.4v-9.4h4.4c6.6,0,6.6,1.6,6.6,4.6S381.4,306.8,374.8,306.8z"/>
	<path d="M340.4,60l-14.8-26c-1.4-2.4-4.4-3.2-6.8-1.8s-3.2,4.4-1.8,6.8l14.8,25.8c1.4,2.4,4.4,3.2,6.8,1.8
		C341,65.4,341.8,62.4,340.4,60z"/>
	<path d="M319.2,78.4l-25.8-15c-2.4-1.4-5.4-0.6-6.8,1.8s-0.6,5.4,1.8,6.8l25.8,15c2.4,1.4,5.4,0.6,6.8-1.8S321.6,79.8,319.2,78.4z"
		/>
	<path d="M310,105h-29.8c-2.8,0-5,2.2-5,5s2.2,5,5,5H310c2.8,0,5-2.2,5-5S312.6,105,310,105z"/>
</g>
<path d="M422.9,161c-1.6,0-2.7-0.5-3.8-1.6l-32.6-32.6c-1.6-1.6-2.2-3.8-1.1-6c0.5-2.2,2.7-3.3,4.9-3.3h16.3c4.3,0,8.7-1.6,11.4-4.9
	c3.3-2.7,4.9-7.1,4.9-11.4c0-4.3-1.6-8.7-4.9-11.4c-2.7-3.3-7.1-4.9-11.4-4.9h-16.3c-3.3,0-5.4-2.2-5.4-5.4s2.2-5.4,5.4-5.4h59.7
	c3.3,0,5.4,2.2,5.4,5.4s-2.2,5.4-5.4,5.4h-21.7c3.3,4.9,5.4,10.3,5.4,16.3c0,7.1-2.7,14.1-8.1,19c-4.9,5.4-11.9,8.1-19,8.1h-3.3
	l23.3,23.3c2.2,2.2,2.2,5.4,0,7.6C425.7,160.5,424.6,161,422.9,161L422.9,161z M450.1,106.7h-59.7c-3.3,0-5.4-2.2-5.4-5.4
	s2.2-5.4,5.4-5.4h59.7c3.3,0,5.4,2.2,5.4,5.4S453.3,106.7,450.1,106.7z"/>
</svg>
