<svg xmlns="http://www.w3.org/2000/svg" xmlns:xlink="http://www.w3.org/1999/xlink" x="0px" y="0px"
	 viewBox="50 140 512 512" enable-background="new 50 140 512 512" xml:space="preserve">
	<path fill="#116D42" d="M305.9,503.5c45.7,0,89.2-18.3,121.7-50.3c32.3-32.1,50.6-75.8,51-121.5c0-0.2,0-0.4,0-0.6v-0.2
		c0-61.6-32.9-118.5-86.2-149.3c-53.3-30.8-119.2-30.8-172.5,0c-53.3,30.8-86.2,87.7-86.2,149.3v-0.2v0.4c0,0.2,0,0.2,0,0.4l0,0
		c0.2,45.7,18.5,89.2,51,121.5C216.7,485.3,260.2,503.3,305.9,503.5L305.9,503.5z M284.8,259.1h-51.2c-7.2,0-13-5.7-13-13
		c0-7.2,5.7-13,13-13h144.4c7.2,0,13,5.7,13,13c0,7.2-5.7,13-13,13h-36.7c8.7,10.8,14.7,21.7,17,36.7h19.5c7.2,0,13,5.7,13,13
		c0,7.2-5.7,13-13,13h-19.5c-3.2,17.2-12.3,32.5-25.9,43.8c-13.4,11-30.4,17-47.8,16.8h-16.6l70.1,60.8c2.5,2.3,4.2,5.5,4.5,8.9
		s-0.8,6.8-3.2,9.3c-2.3,2.5-5.5,4.2-8.9,4.2c-3.4,0.2-6.8-1.1-9.3-3.4l-96-83.9c-4-3.4-5.5-8.9-3.6-14c1.9-5.1,6.8-8.3,12.1-8.1
		h51.4c10.4,0,20.8-3.4,29.3-9.6c8.5-6.2,14.7-15.1,17.8-25.1h-98.6c-7.2,0-13-5.7-13-13c0-7.2,5.7-13,13-13H332
		c-2.5-10.4-8.7-19.8-17.2-26.6C306.3,262.7,295.7,259.1,284.8,259.1L284.8,259.1z"/>
	<path fill="#116D42" d="M219.9,550c-1.1-2.4-3.5-3.9-6.2-3.9h-30v-61.5c-34.5-27.4-59.5-66.3-69.3-111v172.5h-30
		c-2.7,0-5.1,1.5-6.2,3.9c-1.2,2.4-0.9,5.2,0.7,7.3l64.7,83.2c1.3,1.7,3.3,2.7,5.5,2.7c2.1,0,4.2-1,5.5-2.7l64.7-83.2
		C220.8,555.2,221.1,552.4,219.9,550z"/>
	<path fill="#116D42" d="M534,550c-1.1-2.4-3.5-3.9-6.2-3.9h-30V373.6c-9.8,44.6-34.8,83.5-69.3,111v61.5h-30c-2.7,0-5.1,1.5-6.2,3.9
		c-1.2,2.4-0.9,5.2,0.7,7.3l64.7,83.2c1.3,1.7,3.3,2.7,5.5,2.7s4.2-1,5.5-2.7l64.7-83.2C535,555.2,535.2,552.4,534,550L534,550z"/>
</svg>
