
<svg xmlns="http://www.w3.org/2000/svg" viewBox="0 0 64 64" fill="#116d42"><path d="M57.357,41.811,46.3,47.524A7,7,0,0,1,40,51.5H28.61a1.5,1.5,0,0,1,0-3H40a4,4,0,0,0,0-8H33.7a8.674,8.674,0,0,1-4.827-1.461,11.741,11.741,0,0,0-14.1.852l-.712.609H11.5v19h4.382L33,62.2a19,19,0,0,0,14.185-3.1L61.694,49.007A4.209,4.209,0,0,0,63.5,45.551h0A4.21,4.21,0,0,0,57.357,41.811Z"/><rect x="0.5" y="37.5" width="8" height="25" rx="1.5"/><path d="M36.654,33.231l2.769,1.154a1.508,1.508,0,0,0,1.154,0l2.768-1.154A16.5,16.5,0,0,0,53.5,18V8a1.5,1.5,0,0,0-1.272-1.483l-2.183-.336A16.5,16.5,0,0,1,42.85,3.218L40.882,1.787a1.5,1.5,0,0,0-1.764,0L37.15,3.218a16.5,16.5,0,0,1-7.195,2.963l-2.183.336A1.5,1.5,0,0,0,26.5,8V18A16.5,16.5,0,0,0,36.654,33.231ZM33.939,16.606a1.5,1.5,0,0,1,2.122,0l2.272,2.273,5.606-5.606a1.5,1.5,0,0,1,2.122,2.121L39.394,22.06a1.5,1.5,0,0,1-2.121,0l-3.334-3.333A1.5,1.5,0,0,1,33.939,16.606Z"/></svg>
