<svg id="Layer_1" enable-background="new 0 0 512 512" height="512" viewBox="0 0 512 512" width="512" xmlns="http://www.w3.org/2000/svg"><path d="m255.99 172.91c-62.13 0-112.67 50.5-112.67 112.57s50.54 112.57 112.67 112.57c62.14 0 112.7-50.5 112.7-112.57s-50.56-112.57-112.7-112.57zm-36.22 202.1v-27.34c0-4.42-3.58-8-8-8s-8 3.58-8 8v19.04c-4.52-2.91-8.79-6.19-12.75-9.79v-21.98c0-21.81 17.76-39.68 39.54-39.85h8.42c1.34.54 2.7 1.01 4.1 1.42l-9.26 46.06c-.41 2.05 0 4.19 1.14 5.95l14.56 22.34c1.48 2.27 4 3.63 6.7 3.63h.05c2.72-.02 5.25-1.42 6.71-3.72l14.13-22.34c1.1-1.74 1.49-3.84 1.08-5.85l-9.26-46.06c1.39-.41 2.75-.88 4.08-1.42h8.37c21.84.17 39.6 18.04 39.6 39.85v21.98c-3.97 3.61-8.25 6.89-12.78 9.8v-19.05c0-4.42-3.58-8-8-8s-8 3.58-8 8v27.34c-11.19 4.53-23.42 7.03-36.22 7.03-12.8-.01-25.02-2.51-36.21-7.04zm36.22-92.63c-16.43 0-29.8-13.36-29.8-29.79 0-16.41 13.37-29.76 29.8-29.76 16.45 0 29.83 13.35 29.83 29.76 0 16.43-13.38 29.79-29.83 29.79zm5.88 60.2-5.76 9.1-5.97-9.16 5.86-29.14zm75.11-4.41v-3.23c0-26.8-19.14-49.36-44.52-54.67 5.86-7.69 9.35-17.28 9.35-27.68 0-25.23-20.56-45.76-45.83-45.76-25.26 0-45.8 20.53-45.8 45.76 0 10.39 3.49 19.98 9.34 27.67-25.35 5.29-44.51 27.86-44.51 54.67v3.23c-9.92-15.16-15.7-33.27-15.7-52.7 0-53.25 43.37-96.57 96.67-96.57 53.32 0 96.7 43.32 96.7 96.57.01 19.44-5.77 37.54-15.7 52.71zm54.09-92.25c-1.74-2.39-2.52-4.78-2.52-7.75v-27.64c0-12.9-7.94-23.8-20.23-27.79l-26.32-8.56c-2.86-.93-4.9-2.41-6.64-4.81l-16.26-22.33c-7.59-10.43-20.42-14.59-32.69-10.61l-26.31 8.53c-2.84.92-5.37.92-8.2 0l-26.31-8.53c-12.28-3.99-25.13.18-32.72 10.61l-16.27 22.35c-1.76 2.43-3.74 3.86-6.61 4.8l-26.3 8.56c-12.29 3.99-20.23 14.9-20.23 27.79v27.64c0 2.98-.78 5.37-2.53 7.77l-16.26 22.36c-7.59 10.44-7.59 23.92 0 34.35l16.27 22.38c1.74 2.39 2.52 4.78 2.52 7.75v27.64c0 12.9 7.94 23.8 20.23 27.79l.23.07-33.48 57.91c-2.27 3.96-2.15 8.79.31 12.65 2.46 3.81 6.81 5.93 11.4 5.52l49.59-4.76 20.66 45.19c1.85 4.19 5.86 6.94 10.46 7.19 4.61.24 8.89-2.08 11.16-6.05l41.98-72.63 42 72.69c2.25 3.79 6.12 6 10.46 6 .23 0 .45-.01.68-.02 4.6-.25 8.61-3 10.42-7.1l20.7-45.27 49.65 4.76c4.57.4 8.89-1.71 11.33-5.54 2.48-3.82 2.61-8.65.31-12.67l-33.48-57.87.24-.08c12.29-3.99 20.23-14.9 20.23-27.79v-27.64c0-2.98.78-5.37 2.53-7.77l16.26-22.36c7.59-10.44 7.59-23.92 0-34.36zm-187.18 245.55-18.76-41.02c-2.21-4.75-7-7.51-12.22-7.02l-44.9 4.31 31.44-54.38 10.53 3.43c2.87.93 4.84 2.36 6.62 4.81l16.26 22.33c5.69 7.82 14.32 12.13 23.45 12.13 3.07 0 6.19-.49 9.28-1.49l13.77-4.48zm180.09-43.74-44.93-4.31c-5.17-.49-10.09 2.37-12.2 7.08l-18.75 41-35.5-61.43 13.82 4.5c12.26 3.98 25.1-.2 32.69-10.64l16.27-22.35c1.73-2.39 3.78-3.87 6.64-4.8l10.51-3.42zm10.42-154.49-16.25 22.35c-3.77 5.16-5.6 10.78-5.6 17.19v27.64c0 5.92-3.51 10.74-9.18 12.57l-26.3 8.56c-6.12 1.98-10.91 5.46-14.64 10.61l-16.26 22.34c-3.5 4.81-9.18 6.66-14.81 4.84l-26.32-8.56c-3.04-.99-6.04-1.48-9.04-1.48s-6 .49-9.04 1.48l-26.31 8.56c-5.57 1.81-11.39-.09-14.85-4.84l-16.25-22.32c-3.75-5.17-8.53-8.65-14.62-10.62l-26.32-8.56c-5.66-1.83-9.17-6.65-9.17-12.57v-27.64c0-6.41-1.83-12.03-5.59-17.18l-16.26-22.37c-3.48-4.79-3.48-10.74 0-15.53l16.25-22.35c3.77-5.16 5.6-10.78 5.6-17.19v-27.64c0-5.92 3.51-10.74 9.18-12.58l26.3-8.56c6.09-1.98 10.87-5.45 14.61-10.61l16.26-22.34c3.49-4.8 9.19-6.64 14.85-4.81l26.31 8.53c6.08 1.97 12 1.97 18.08 0l26.31-8.53c5.65-1.83 11.33.01 14.82 4.81l16.25 22.32c3.74 5.17 8.54 8.64 14.65 10.62l26.32 8.56c5.66 1.83 9.17 6.65 9.17 12.57v27.64c0 6.41 1.83 12.03 5.59 17.18l16.26 22.37c3.49 4.8 3.49 10.75 0 15.54zm-176.36-213.35-5.03 34.73c-.43 2.94.81 5.87 3.21 7.62 1.39 1.01 3.04 1.53 4.71 1.53 1.2 0 2.41-.27 3.53-.82l31.52-15.5 31.52 15.5c2.66 1.31 5.83 1.04 8.23-.71 2.4-1.74 3.64-4.67 3.22-7.61l-5-34.74 24.5-25.15c2.07-2.13 2.79-5.23 1.88-8.05s-3.32-4.91-6.25-5.41l-34.63-5.96-16.39-31.05c-1.38-2.63-4.11-4.27-7.07-4.27s-5.69 1.64-7.08 4.27l-16.38 31.04-34.61 5.96c-2.93.5-5.33 2.59-6.25 5.41s-.19 5.92 1.88 8.05zm21.08-29.48c2.45-.42 4.56-1.95 5.72-4.15l11.15-21.12 11.15 21.12c1.16 2.2 3.27 3.73 5.72 4.15l23.54 4.05-16.64 17.09c-1.73 1.78-2.54 4.26-2.19 6.72l3.4 23.62-21.44-10.54c-1.11-.55-2.32-.82-3.53-.82s-2.42.27-3.53.82l-21.43 10.54 3.42-23.61c.36-2.46-.45-4.95-2.19-6.73l-16.65-17.09zm-95.42 104.15c1.12.55 2.32.82 3.52.82 1.66 0 3.32-.52 4.71-1.53 2.4-1.75 3.63-4.68 3.21-7.61l-5.03-34.7 24.5-25.15c2.07-2.13 2.79-5.23 1.88-8.05s-3.32-4.91-6.25-5.41l-34.63-5.96-16.39-31.07c-1.39-2.62-4.11-4.27-7.08-4.27-2.97 0-5.69 1.64-7.08 4.27l-16.35 31.04-34.63 5.96c-2.93.5-5.33 2.59-6.25 5.41s-.19 5.92 1.88 8.05l24.5 25.15-5.03 34.7c-.43 2.94.81 5.87 3.21 7.61 2.4 1.75 5.57 2.02 8.23.71l31.53-15.48zm-35.08-31.57-21.43 10.52 3.42-23.59c.36-2.46-.45-4.95-2.19-6.73l-16.65-17.09 23.54-4.05c2.45-.42 4.56-1.96 5.72-4.15l11.12-21.1 11.14 21.11c1.16 2.2 3.27 3.73 5.72 4.15l23.54 4.05-16.64 17.09c-1.73 1.78-2.54 4.27-2.19 6.73l3.42 23.6-21.47-10.53c-1.11-.54-2.32-.82-3.52-.82-1.21-.01-2.42.26-3.53.81zm355.55-44.67c-.92-2.82-3.32-4.91-6.25-5.41l-34.63-5.96-16.39-31.05c-1.38-2.62-4.11-4.27-7.08-4.27s-5.69 1.64-7.08 4.27l-16.38 31.04-34.61 5.96c-2.93.5-5.33 2.59-6.25 5.41s-.19 5.92 1.88 8.05l24.5 25.15-5.03 34.7c-.43 2.94.81 5.87 3.21 7.61 2.4 1.75 5.57 2.02 8.23.71l31.53-15.48 31.53 15.48c1.12.55 2.32.82 3.52.82 1.66 0 3.31-.52 4.71-1.53 2.4-1.75 3.64-4.67 3.21-7.61l-5-34.71 24.5-25.15c2.07-2.1 2.8-5.21 1.88-8.03zm-40.59 24.87c-1.73 1.78-2.54 4.26-2.19 6.72l3.4 23.61-21.45-10.53c-1.11-.55-2.32-.82-3.53-.82s-2.41.27-3.53.82l-21.43 10.52 3.42-23.59c.36-2.46-.45-4.95-2.19-6.73l-16.63-17.09 23.51-4.05c2.45-.42 4.56-1.95 5.72-4.15l11.15-21.12 11.15 21.12c1.16 2.2 3.27 3.73 5.72 4.15l23.54 4.05z"/><path d="m90.6 109.92-3.42 23.59 21.43-10.52c1.11-.55 2.32-.82 3.53-.82s2.41.27 3.52.82l21.47 10.53-3.42-23.6c-.36-2.46.45-4.95 2.19-6.73l16.64-17.09-23.54-4.05c-2.45-.42-4.56-1.96-5.72-4.15l-11.14-21.11-11.12 21.1c-1.16 2.2-3.27 3.73-5.72 4.15l-23.53 4.06 16.64 17.09c1.74 1.78 2.55 4.27 2.19 6.73z" fill="#ffd15b"/><path d="m372.55 360.42v-27.64c0-6.41 1.83-12.03 5.6-17.19l16.25-22.35c3.49-4.79 3.49-10.74 0-15.53l-16.26-22.37c-3.76-5.14-5.59-10.77-5.59-17.18v-27.64c0-5.92-3.51-10.74-9.17-12.57l-26.32-8.56c-6.11-1.98-10.9-5.46-14.65-10.62l-16.25-22.32c-3.49-4.8-9.17-6.64-14.82-4.81l-26.31 8.53c-6.08 1.97-11.99 1.97-18.08 0l-26.31-8.53c-5.66-1.84-11.35 0-14.85 4.81l-16.26 22.34c-3.74 5.16-8.52 8.63-14.61 10.61l-26.3 8.56c-5.66 1.84-9.18 6.65-9.18 12.58v27.64c0 6.41-1.83 12.03-5.6 17.19l-16.25 22.35c-3.49 4.79-3.49 10.74 0 15.53l16.26 22.37c3.76 5.15 5.59 10.77 5.59 17.18v27.64c0 5.92 3.51 10.74 9.17 12.57l26.32 8.56c6.08 1.97 10.87 5.45 14.62 10.62l16.25 22.32c3.45 4.75 9.28 6.65 14.85 4.84l26.31-8.56c3.04-.99 6.04-1.48 9.04-1.48s6 .49 9.04 1.48l26.32 8.56c5.63 1.83 11.31-.03 14.81-4.84l16.26-22.34c3.73-5.15 8.53-8.63 14.64-10.61l26.3-8.56c5.67-1.84 9.18-6.66 9.18-12.58zm-116.56 37.62c-62.13 0-112.67-50.5-112.67-112.57s50.54-112.57 112.67-112.57c62.14 0 112.7 50.5 112.7 112.57 0 62.08-50.56 112.57-112.7 112.57z" fill="#fe646f"/><path d="m255.99 188.91c-53.31 0-96.67 43.32-96.67 96.57 0 19.43 5.78 37.53 15.7 52.7v-3.23c0-26.81 19.16-49.38 44.51-54.67-5.86-7.69-9.34-17.28-9.34-27.67 0-25.23 20.55-45.76 45.8-45.76 25.27 0 45.83 20.53 45.83 45.76 0 10.39-3.49 19.99-9.35 27.68 25.38 5.31 44.52 27.87 44.52 54.67v3.23c9.92-15.16 15.7-33.26 15.7-52.69 0-53.27-43.38-96.59-96.7-96.59z" fill="#fff9df"/><path d="m256.11 351.68 5.76-9.1-5.87-29.19-5.86 29.13z" fill="#fe646f"/><path d="m378.28 109.92-3.42 23.59 21.43-10.52c1.11-.55 2.32-.82 3.53-.82s2.41.27 3.53.82l21.45 10.53-3.4-23.61c-.35-2.46.45-4.94 2.19-6.72l16.64-17.09-23.54-4.05c-2.45-.42-4.56-1.96-5.72-4.15l-11.15-21.12-11.15 21.12c-1.16 2.2-3.27 3.73-5.72 4.15l-23.51 4.05 16.65 17.09c1.74 1.78 2.55 4.27 2.19 6.73z" fill="#ffd15b"/><path d="m281.38 295.09h-8.37c-1.33.53-2.69 1.01-4.08 1.42l9.26 46.06c.41 2.02.02 4.12-1.08 5.85l-14.13 22.34c-1.46 2.3-3.98 3.7-6.71 3.72-.02 0-.04 0-.05 0-2.7 0-5.22-1.37-6.7-3.63l-14.56-22.34c-1.14-1.76-1.55-3.89-1.14-5.95l9.26-46.06c-1.4-.41-2.76-.89-4.1-1.42h-8.42c-21.77.17-39.54 18.04-39.54 39.85v21.98c3.96 3.6 8.23 6.88 12.75 9.79v-19.04c0-4.42 3.58-8 8-8s8 3.58 8 8v27.34c11.19 4.53 23.42 7.04 36.22 7.04s25.03-2.5 36.22-7.03v-27.34c0-4.42 3.58-8 8-8s8 3.58 8 8v19.05c4.53-2.91 8.81-6.2 12.78-9.8v-21.98c-.01-21.81-17.77-39.68-39.61-39.85z" fill="#82aee3"/><path d="m285.82 252.6c0-16.41-13.38-29.76-29.83-29.76-16.43 0-29.8 13.35-29.8 29.76 0 16.42 13.37 29.79 29.8 29.79 16.45-.01 29.83-13.37 29.83-29.79z" fill="#ffcebf"/><g fill="#ffd15b"><path d="m342.02 396.77c-2.86.93-4.91 2.41-6.64 4.8l-16.27 22.35c-7.6 10.44-20.43 14.62-32.69 10.64l-13.82-4.5 35.5 61.43 18.75-41c2.11-4.7 7.03-7.56 12.2-7.08l44.93 4.31-31.46-54.37z"/><path d="m216.32 436.05c-9.13 0-17.76-4.31-23.45-12.13l-16.26-22.33c-1.77-2.44-3.75-3.88-6.62-4.81l-10.53-3.43-31.44 54.38 44.9-4.31c5.22-.49 10 2.27 12.22 7.02l18.76 41.02 35.48-61.39-13.77 4.48c-3.1 1.01-6.23 1.5-9.29 1.5z"/><path d="m234.44 78.28-3.42 23.61 21.43-10.54c1.11-.55 2.32-.82 3.53-.82s2.42.27 3.53.82l21.44 10.54-3.4-23.62c-.35-2.46.45-4.94 2.19-6.72l16.64-17.09-23.54-4.05c-2.45-.42-4.56-1.95-5.72-4.15l-11.15-21.12-11.15 21.12c-1.16 2.2-3.27 3.73-5.72 4.15l-23.51 4.05 16.65 17.09c1.75 1.78 2.56 4.27 2.2 6.73z"/></g></svg>