<?xml version="1.0" encoding="utf-8"?>
<!-- Generator: Adobe Illustrator 18.0.0, SVG Export Plug-In . SVG Version: 6.00 Build 0)  -->
<!DOCTYPE svg PUBLIC "-//W3C//DTD SVG 1.1//EN" "http://www.w3.org/Graphics/SVG/1.1/DTD/svg11.dtd">
<svg version="1.1" id="Layer_1" xmlns="http://www.w3.org/2000/svg" xmlns:xlink="http://www.w3.org/1999/xlink" x="0px" y="0px"
	 viewBox="0 0 700 700" enable-background="new 0 0 700 700" xml:space="preserve">
<g>
	<path d="M541.6,394.3h-98.4c-2.2,31.8-20.4,60.2-48.4,75.5c-27.9,15.3-61.7,15.3-89.7,0c-27.9-15.3-46.2-43.7-48.4-75.5h-97.4
		c-15.3-0.1-29.8-7.1-39.4-18.9v146.4c0,5.3,2,10.4,5.7,14.1c3.7,3.8,8.7,5.9,14,6h420.6c5.3-0.1,10.3-2.2,14-6
		c3.7-3.8,5.8-8.8,5.7-14.1V376.5C570.5,387.2,556.7,394.3,541.6,394.3L541.6,394.3z"/>
	<path d="M350,468.7c21.5,0,42-8.6,57.3-23.7c15.2-15.1,23.8-35.7,24-57.2c0-0.1,0-0.2,0-0.3v-0.1c0-29-15.5-55.8-40.6-70.3
		c-25.1-14.5-56.1-14.5-81.2,0c-25.1,14.5-40.6,41.3-40.6,70.3l0-0.1v0.2c0,0.1,0,0.1,0,0.2h0c0.1,21.5,8.7,42,24,57.2
		C308,460.1,328.5,468.6,350,468.7L350,468.7z M340.1,353.6H316c-3.4,0-6.1-2.7-6.1-6.1c0-3.4,2.7-6.1,6.1-6.1H384
		c3.4,0,6.1,2.7,6.1,6.1c0,3.4-2.7,6.1-6.1,6.1h-17.3c4.1,5.1,6.9,10.2,8,17.3h9.2c3.4,0,6.1,2.7,6.1,6.1s-2.7,6.1-6.1,6.1h-9.2
		c-1.5,8.1-5.8,15.3-12.2,20.6c-6.3,5.2-14.3,8-22.5,7.9h-7.8l33,28.6c1.2,1.1,2,2.6,2.1,4.2c0.1,1.6-0.4,3.2-1.5,4.4
		c-1.1,1.2-2.6,2-4.2,2c-1.6,0.1-3.2-0.5-4.4-1.6L312,409.7c-1.9-1.6-2.6-4.2-1.7-6.6c0.9-2.4,3.2-3.9,5.7-3.8h24.2
		c4.9,0,9.8-1.6,13.8-4.5c4-2.9,6.9-7.1,8.4-11.8H316c-3.4,0-6.1-2.7-6.1-6.1c0-3.4,2.7-6.1,6.1-6.1h46.3c-1.2-4.9-4.1-9.3-8.1-12.5
		C350.2,355.3,345.2,353.6,340.1,353.6L340.1,353.6z"/>
	<path d="M560.3,230.4H427.3v-53c0-11.1-8.9-19.3-20-19.3H292.6c-11,0-20,8.1-20,19.3v53H139.7c-5.2-0.1-10.2,1.9-13.9,5.6
		c-3.7,3.7-5.8,8.7-5.8,13.9v90.5c0,0,0,0,0,0c0,0.1,0.1,0.2,0.1,0.3c0,0.1,0.1,0.2,0.1,0.2c0,0.1,0.1,0.2,0.1,0.4
		c0,0.1,0,0.1,0.1,0.2c0,0.1,0,0.3,0.1,0.4c0,0.1,0,0.1,0,0.2c0,0.2,0,0.6,0,0.8h0c0,10.3,4.1,20.2,11.4,27.6
		c7.3,7.3,17.2,11.5,27.5,11.5h97.3c1.9-32,20.1-60.7,48.2-76.2c28.1-15.5,62.1-15.5,90.2,0c28.1,15.5,46.2,44.2,48.2,76.2h98.3
		c19,0,35.4-14.3,38.4-33v-99.2c0-5.2-2.1-10.2-5.8-13.9C570.5,232.4,565.5,230.3,560.3,230.4L560.3,230.4z M413.1,230.4H286.9v-53
		c0-3.3,2.5-5,5.7-5h114.8c3.2,0,5.7,1.7,5.7,5L413.1,230.4z"/>
</g>
</svg>
