<svg id="Layer_1" enable-background="new 0 0 24 24" height="512" viewBox="0 0 24 24" width="512" xmlns="http://www.w3.org/2000/svg"><g><path d="m13 20c-.3 0-.5-.1-.7-.3l-6-6c-.3-.3-.4-.7-.2-1.1.1-.4.5-.6.9-.6h3c.8 0 1.6-.3 2.1-.9.6-.5.9-1.3.9-2.1s-.3-1.6-.9-2.1c-.5-.6-1.3-.9-2.1-.9h-3c-.6 0-1-.4-1-1s.4-1 1-1h11c.6 0 1 .4 1 1s-.4 1-1 1h-4c.6.9 1 1.9 1 3 0 1.3-.5 2.6-1.5 3.5-.9 1-2.2 1.5-3.5 1.5h-.6l4.3 4.3c.4.4.4 1 0 1.4-.2.2-.4.3-.7.3z"/></g><g><path d="m18 10h-11c-.6 0-1-.4-1-1s.4-1 1-1h11c.6 0 1 .4 1 1s-.4 1-1 1z"/></g></svg>