<svg version="1.1" id="Capa_1" xmlns="http://www.w3.org/2000/svg" xmlns:xlink="http://www.w3.org/1999/xlink" x="0px" y="0px" viewBox="0 0 512 512" style="enable-background:new 0 0 512 512;" xml:space="preserve">
<g>
	<path style="fill:none;stroke:#000000;stroke-width:15;stroke-linecap:round;stroke-linejoin:round;stroke-miterlimit:10;" d="&#10;&#9;&#9;M441.92,164.828c4.35,6.46,6.79,14.17,6.79,22.1c0,7.01-1.91,14.2-6.09,20.85c16.03,6.42,24.71,21.41,24.71,36.6&#10;&#9;&#9;c0,10.99-4.55,22.07-14.14,30.08c9.59,7.99,14.14,19.08,14.14,30.07c0,15.18-8.68,30.19-24.71,36.6&#10;&#9;&#9;c4.18,6.64,6.09,13.83,6.09,20.84c0,19.58-14.88,37.85-36.73,39.31c0.83,3.31,1.23,6.6,1.23,9.8c0,24.63-23.43,44.39-48.97,37.93&#10;&#9;&#9;c-1.46,21.86-19.72,36.73-39.3,36.73c-7.02,0-14.21-1.9-20.85-6.08c-6.42,16.03-21.41,24.71-36.6,24.71&#10;&#9;&#9;c-10.98,0-22.07-4.55-30.07-14.15c-8.01,9.6-19.09,14.15-30.09,14.15c-15.18,0-30.17-8.68-36.59-24.71&#10;&#9;&#9;c-6.65,4.18-13.83,6.08-20.85,6.08c-19.58,0-37.84-14.87-39.3-36.73c-3.32,0.84-6.61,1.24-9.8,1.24&#10;&#9;&#9;c-24.63,0-44.39-23.44-37.94-48.97c-21.86-1.46-36.73-19.73-36.73-39.31c0-7.01,1.91-14.2,6.09-20.84&#10;&#9;&#9;c-16.02-6.41-24.71-21.42-24.71-36.6c0-10.98,4.55-22.08,14.15-30.07c-9.6-8.01-14.15-19.09-14.15-30.09&#10;&#9;&#9;c0-15.18,8.69-30.17,24.71-36.59c-4.18-6.65-6.09-13.84-6.09-20.85c0-19.58,14.87-37.84,36.73-39.3c-0.84-3.32-1.24-6.61-1.24-9.81&#10;&#9;&#9;c0-24.62,23.44-44.38,48.98-37.92c1.46-21.87,19.72-36.74,39.31-36.74c7.02,0,14.19,1.91,20.84,6.09&#10;&#9;&#9;c6.42-16.03,21.41-24.7,36.59-24.7c11,0,22.08,4.54,30.09,14.14c19.05-22.86,55.61-17.07,66.67,10.56&#10;&#9;&#9;c6.64-4.18,13.82-6.09,20.84-6.09c8.03,0,15.85,2.5,22.37,6.97"/>
	<path style="fill:none;stroke:#000000;stroke-width:15;stroke-linecap:round;stroke-linejoin:round;stroke-miterlimit:10;" d="&#10;&#9;&#9;M441.92,164.828h-79.305c-8.455,0-15.31-6.855-15.31-15.31V22.942c0-8.455,6.855-15.31,15.31-15.31H489.19&#10;&#9;&#9;c8.455,0,15.31,6.855,15.31,15.31v126.575c0,8.455-6.855,15.31-15.31,15.31h-10.773"/>
	<g>
		<path style="fill:none;stroke:#000000;stroke-width:15;stroke-linecap:round;stroke-linejoin:round;stroke-miterlimit:10;" d="&#10;&#9;&#9;&#9;M416.813,119.6c-3.692,0.001-7.232-1.517-9.776-4.193l-19.576-20.576c-5.137-5.399-4.924-13.94,0.474-19.077&#10;&#9;&#9;&#9;c5.401-5.136,13.942-4.924,19.077,0.475l10.041,10.553l27.972-27.972c5.269-5.27,13.812-5.269,19.083,0&#10;&#9;&#9;&#9;c5.27,5.269,5.27,13.813,0,19.083l-37.754,37.754C423.822,118.18,420.389,119.6,416.813,119.6z"/>
	</g>
	<path style="fill:none;stroke:#000000;stroke-width:15;stroke-linecap:round;stroke-linejoin:round;stroke-miterlimit:10;" d="&#10;&#9;&#9;M384.61,164.828c22.82,30.59,36.33,68.53,36.33,109.62c0,101.36-82.17,183.53-183.52,183.53c-101.36,0-183.53-82.17-183.53-183.53&#10;&#9;&#9;c0-101.35,82.17-183.52,183.53-183.52c41.21,0,79.25,13.58,109.88,36.52"/>
	<path style="fill:none;stroke:#000000;stroke-width:15;stroke-linecap:round;stroke-linejoin:round;stroke-miterlimit:10;" d="&#10;&#9;&#9;M361.679,274.454c0,24.538-7.117,47.407-19.391,66.678c-22.049,34.623-60.781,57.582-104.869,57.582s-82.82-22.959-104.879-57.582&#10;&#9;&#9;c-12.274-19.271-19.391-42.14-19.391-66.678c0-24.538,7.117-47.407,19.391-66.678c22.059-34.623,60.791-57.582,104.879-57.582&#10;&#9;&#9;s82.82,22.959,104.869,57.582C354.563,227.047,361.679,249.916,361.679,274.454z"/>
	<path style="fill:none;stroke:#000000;stroke-width:15;stroke-linecap:round;stroke-linejoin:round;stroke-miterlimit:10;" d="&#10;&#9;&#9;M178.358,341.132H132.54c-12.274-19.271-19.391-42.14-19.391-66.678c0-24.538,7.117-47.407,19.391-66.678h209.749&#10;&#9;&#9;c12.274,19.271,19.391,42.14,19.391,66.678c0,24.538-7.117,47.407-19.391,66.678H213.473"/>
	<path style="fill:none;stroke:#000000;stroke-width:15;stroke-linecap:round;stroke-linejoin:round;stroke-miterlimit:10;" d="&#10;&#9;&#9;M314.512,407.58c-22.659,13.164-48.996,20.69-77.093,20.69s-54.434-7.526-77.103-20.69"/>
	<path style="fill:none;stroke:#000000;stroke-width:15;stroke-linecap:round;stroke-linejoin:round;stroke-miterlimit:10;" d="&#10;&#9;&#9;M160.316,141.328c22.669-13.164,49.006-20.69,77.103-20.69s54.434,7.526,77.093,20.69"/>
	<path style="fill:none;stroke:#000000;stroke-width:15;stroke-linecap:round;stroke-linejoin:round;stroke-miterlimit:10;" d="&#10;&#9;&#9;M168.456,274.454L168.456,274.454c0-8.515,6.903-15.418,15.418-15.418h108.418c8.515,0,15.418,6.903,15.418,15.418v0&#10;&#9;&#9;c0,8.515-6.903,15.418-15.418,15.418H183.874C175.359,289.872,168.456,282.969,168.456,274.454z"/>
	
		<line style="fill:none;stroke:#000000;stroke-width:15;stroke-linecap:round;stroke-linejoin:round;stroke-miterlimit:10;" x1="85.806" y1="274.454" x2="85.806" y2="274.454"/>
	
		<line style="fill:none;stroke:#000000;stroke-width:15;stroke-linecap:round;stroke-linejoin:round;stroke-miterlimit:10;" x1="391.382" y1="274.454" x2="391.382" y2="274.454"/>
</g>
<g>
</g>
<g>
</g>
<g>
</g>
<g>
</g>
<g>
</g>
<g>
</g>
<g>
</g>
<g>
</g>
<g>
</g>
<g>
</g>
<g>
</g>
<g>
</g>
<g>
</g>
<g>
</g>
<g>
</g>
</svg>