<?xml version="1.0" encoding="utf-8"?>
<!-- Generator: Adobe Illustrator 18.0.0, SVG Export Plug-In . SVG Version: 6.00 Build 0)  -->
<!DOCTYPE svg PUBLIC "-//W3C//DTD SVG 1.1//EN" "http://www.w3.org/Graphics/SVG/1.1/DTD/svg11.dtd">
<svg version="1.1" id="Layer_1" xmlns="http://www.w3.org/2000/svg" xmlns:xlink="http://www.w3.org/1999/xlink" x="0px" y="0px"
	 viewBox="0 0 700 700" enable-background="new 0 0 700 700" xml:space="preserve">
<g>
	<path d="M459.4,344.5h27.2c-0.9-20.9-6.3-40.6-15.5-58.1L447.6,300c-0.9,0.5-1.8,0.8-2.7,0.8c-1.9,0-3.7-1-4.7-2.7
		c-1.5-2.6-0.7-5.9,2-7.4l23.5-13.6c-10.8-17.1-25.4-31.6-42.5-42.5L409.5,258c-1,1.8-2.8,2.7-4.7,2.7c-4.2,0-6.9-4.5-4.7-8.2
		l13.6-23.5c-17.5-9.2-37.2-14.8-58.1-15.5v27.2c0,3.1-2.4,5.5-5.5,5.5s-5.5-2.4-5.5-5.5v-27.2c-20.9,0.9-40.6,6.3-58.1,15.5
		l13.6,23.5c1.5,2.6,0.7,5.9-2,7.4c-2.6,1.5-5.9,0.7-7.4-2l-13.6-23.5c-17.1,10.8-31.6,25.4-42.5,42.5l23.5,13.6
		c2.6,1.5,3.5,4.8,2,7.4s-4.8,3.5-7.4,2l-23.5-13.6c-9.2,17.5-14.8,37.2-15.5,58.1h27c3.1,0,5.5,2.4,5.5,5.5s-2.4,5.5-5.5,5.5h-27.2
		c0.9,20.9,6.3,40.6,15.5,58.1l23.5-13.6c2.6-1.5,5.9-0.7,7.4,2s0.7,5.9-2,7.4l-23.5,13.6c10.8,17.1,25.4,31.6,42.5,42.5l13.6-23.5
		c1.5-2.6,4.8-3.5,7.4-2s3.5,4.8,2,7.4l-13.6,23.5c17.5,9.2,37.2,14.8,58.1,15.5v-27.2c0-3.1,2.4-5.5,5.5-5.5s5.5,2.4,5.5,5.5v27.2
		c20.9-0.9,40.6-6.3,58.1-15.5l-13.6-23.5c-1.5-2.6-0.7-5.9,2-7.4s5.9-0.7,7.4,2l13.6,23.5c17.1-10.8,31.6-25.4,42.5-42.5
		l-23.5-13.6c-2.6-1.5-3.5-4.8-2-7.4s4.8-3.5,7.4-2l23.5,13.6c9.2-17.5,14.8-37.2,15.5-58.1h-27c-3.1,0-5.5-2.4-5.5-5.5
		S456.4,344.5,459.4,344.5L459.4,344.5z M355.5,349.9c0,3.1-2.4,5.5-5.5,5.5h-54.7c-3.1,0-5.5-2.4-5.5-5.5s2.4-5.5,5.5-5.5h49.2
		v-60.2c0-3.1,2.4-5.5,5.5-5.5s5.5,2.4,5.5,5.5L355.5,349.9z"/>
	<path d="M540.6,367.2c0.5-5.8,0.8-11.7,0.8-17.3s-0.2-11.5-0.8-17.3c-0.2-2.2,0.9-4.3,2.8-5.3l49.3-26.6l-17.5-53.7l-55.5,7.5
		c-2.2,0.3-4.3-0.8-5.5-2.6c-5.9-10-12.8-19.4-20.3-28c-1.4-1.6-1.8-4-0.8-6l24.3-50.4l-45.7-33.3L431.4,173c-1.5,1.5-3.9,2-5.9,1.1
		c-10.6-4.6-21.8-8.2-32.9-10.7c-2.2-0.4-3.8-2.2-4.2-4.4l-10.1-55h-56.5l-10.1,54.9c-0.4,2.2-2.1,3.8-4.2,4.4
		c-11.3,2.5-22.3,6.1-32.9,10.7c-2,0.9-4.4,0.4-5.9-1.1l-40.5-38.6l-45.7,33.3l24.3,50.4c1,2,0.7,4.4-0.8,6
		c-7.7,8.6-14.4,18.2-20.3,28c-1.1,1.9-3.3,3-5.5,2.6l-55.6-7.5l-17.5,53.7l49.3,26.6c2,1,3.1,3.2,2.8,5.3c-1.1,11.7-1.1,23,0,34.7
		c0.2,2.2-0.9,4.3-2.8,5.3l-49.3,26.7l17.5,53.7l55.5-7.5c2.2-0.3,4.3,0.8,5.5,2.6c5.9,10,12.8,19.4,20.3,28c1.4,1.6,1.8,4,0.8,6
		l-24.3,50.4l45.7,33.3l40.5-38.6c1.5-1.5,3.9-2,5.9-1.1c10.6,4.6,21.8,8.2,32.9,10.7c2.2,0.4,3.8,2.2,4.2,4.4l10.1,55h56.5l10.1-55
		c0.4-2.2,2.1-3.8,4.2-4.4c11.3-2.5,22.3-6.1,32.9-10.7c2-0.9,4.4-0.4,5.9,1.1l40.5,38.6l45.7-33.3L493.3,482c-1-2-0.7-4.4,0.8-6
		c7.7-8.6,14.4-18.2,20.3-28c1.1-1.9,3.3-3,5.5-2.6l55.5,7.5l17.5-53.7l-49.3-26.6C541.5,371.5,540.4,369.4,540.6,367.2L540.6,367.2
		z M477.9,423.8c-0.1,0.2-0.2,0.3-0.3,0.5c-12.9,22.1-31.4,40.5-53.4,53.4c-0.1,0.1-0.2,0.1-0.3,0.2
		c-45.2,26.1-101.4,26.6-147.2,0.2c-0.7-0.3-0.3-0.2-0.7-0.4c-22.1-12.9-40.5-31.3-53.4-53.4c-0.1-0.1-0.2-0.3-0.3-0.4
		c-26-45.1-26.8-101.3,0-147.7c25.6-44.2,73.6-73.8,127.9-73.8c26.8,0,51.8,7.1,73.5,19.7c0.1,0,0.2,0.1,0.3,0.1
		c0.1,0.1,0.2,0.1,0.3,0.2c22.1,12.9,40.6,31.4,53.5,53.5c0.1,0.1,0.1,0.2,0.2,0.3c0,0.1,0.1,0.2,0.1,0.3
		C504.3,322.1,504.1,378.3,477.9,423.8L477.9,423.8z"/>
</g>
</svg>
