<svg enable-background="new 0 0 511.852 511.852" height="512" viewBox="0 0 511.852 511.852" width="512" xmlns="http://www.w3.org/2000/svg">
	<g fill="#116d42">
		<path d="m191.585 189.388c-9.447 0-17.134 7.687-17.134 17.134v98.81c.864 22.703 33.411 22.687 34.267 0v-98.81c0-9.448-7.686-17.134-17.133-17.134z"/>
		<path d="m511.852 255.926c0-15.394-5.835-29.431-15.407-40.038-11.309-12.271-15.877-29.304-12.224-45.585 2.997-13.969 1.03-29.047-6.666-42.376-7.697-13.329-19.771-22.57-33.361-26.965-15.929-4.975-28.404-17.45-33.382-33.374-4.387-13.594-13.629-25.668-26.96-33.365-13.331-7.698-28.408-9.66-42.376-6.674-16.281 3.661-33.32-.904-45.594-12.211-21.38-20.355-58.681-20.341-80.066-.008-12.27 11.315-29.309 15.88-45.59 12.228-13.966-2.995-29.043-1.033-42.374 6.665-13.331 7.697-22.573 19.771-26.969 33.365-4.971 15.924-17.443 28.399-33.37 33.374-13.593 4.395-25.667 13.636-33.364 26.965-7.696 13.329-9.663 28.408-6.675 42.376 3.659 16.282-.904 33.323-12.209 45.594-20.359 21.384-20.344 58.68-.006 80.068 11.309 12.262 15.877 29.304 12.224 45.585-2.997 13.969-1.03 29.047 6.666 42.376 7.697 13.329 19.771 22.571 33.361 26.966 15.929 4.975 28.404 17.442 33.382 33.374 4.387 13.593 13.629 25.668 26.96 33.365 13.331 7.698 28.408 9.66 42.376 6.673 16.281-3.66 33.32.905 45.594 12.212 21.381 20.354 58.685 20.345 80.066 0 12.27-11.307 29.309-15.872 45.59-12.22 13.966 2.995 29.043 1.033 42.374-6.665 13.331-7.697 22.573-19.772 26.969-33.365 4.971-15.932 17.443-28.399 33.37-33.382 13.593-4.386 25.667-13.628 33.364-26.957 7.696-13.329 9.663-28.407 6.675-42.376-3.659-16.282.904-33.323 12.209-45.594 9.578-10.6 15.413-24.637 15.413-40.031zm-273.134 49.405c-2.377 62.458-91.912 62.41-94.267 0v-98.81c2.378-62.459 91.912-62.412 94.267 0zm26.233-129.739c.738-19.881 29.269-19.866 30 0v16.067c-.738 19.881-29.269 19.866-30 0zm94.267 160.667c-.738 19.881-29.269 19.866-30 0v-16.066c.738-19.881 29.269-19.866 30 0zm-1.073-155.096-64.267 160.667c-3.077 7.691-11.806 11.432-19.498 8.356-7.692-3.077-11.433-11.806-8.356-19.498l64.267-160.667c3.077-7.691 11.806-11.432 19.498-8.356 7.692 3.077 11.433 11.806 8.356 19.498z"/>
	</g>
</svg>