<svg id="Filled_Expand" height="512" viewBox="0 0 64 64" width="512" xmlns="http://www.w3.org/2000/svg" data-name="Filled Expand"><path d="m44.095 26.401 11 19.053 7.905-4.564v-25.403z" fill="#6a7f91"/><path d="m44.095 26.401 11 19.053 7.905-4.564v-25.403z" fill="#788d9e"/><path d="m45.096 28.133 9.999 17.321 7.905-4.564v-23.094z" fill="#6a7f91"/><path d="m35.188 58.1 8.283-4.782a15 15 0 0 0 6.294-7.1l4.33-2.5-9-15.589-4.33 2.5-3.556-.541a8 8 0 0 0 -5.2.98l-7.962 4.6" fill="#f5c0a6"/><path d="m32.467 54.679 3.533 4.213a2.5 2.5 0 0 1 -.308 3.523 2.5 2.5 0 0 1 -3.521-.307l-3.359-4.008 1.032 1.2-9.315-5.98a15 15 0 0 1 -6.294-7.1l-4.33-2.5 9-15.589 4.33 2.5 3.556-.541a8 8 0 0 1 5.2.98l7.962 4.6" fill="#fcd4c5"/><path d="m37.53 37.377 11.248 13.406a2.5 2.5 0 0 1 -.308 3.522 2.5 2.5 0 0 1 -3.522-.305l-11.248-13.409" fill="#fcd4c5"/><path d="m33.7 40.591 12.312 14.674a2.5 2.5 0 0 1 -.308 3.522 2.5 2.5 0 0 1 -3.522-.309l-12.313-14.673" fill="#fcd4c5"/><path d="m29.869 43.805 11.249 13.406a2.5 2.5 0 0 1 -.308 3.522 2.5 2.5 0 0 1 -3.522-.308l-11.249-13.406" fill="#fcd4c5"/><path d="m38.978 49.216a.75.75 0 0 1 .093-1.057.75.75 0 0 1 1.056.092l5.885 7.014a2.5 2.5 0 0 1 -.308 3.522 2.473 2.473 0 0 1 -.657.384 2.49 2.49 0 0 0 -.184-2.942z" fill="#f9c9b2"/><g fill="#f5c0a6"><rect height="5" rx="2.5" transform="matrix(.643 -.766 .766 .643 -32.898 32.14)" width="7.728" x="14.15" y="48.845"/><rect height="5" rx="2.5" transform="matrix(.643 -.766 .766 .643 -34.667 36.041)" width="9.383" x="16.62" y="52.693"/><rect height="5" rx="2.5" transform="matrix(.643 -.766 .766 .643 -35.086 40.304)" width="7.728" x="21.81" y="55.273"/><path d="m29.785 57.721h.727a2.5 2.5 0 0 1 2.5 2.5 2.5 2.5 0 0 1 -2.5 2.5h-.729a2.5 2.5 0 0 1 -2.5-2.5 2.5 2.5 0 0 1 2.502-2.5z" transform="matrix(.643 -.766 .766 .643 -35.362 44.607)"/><path d="m40.765 30.633-3.556-.541a8 8 0 0 0 -5.2.98l-8.36 4.828a2.5 2.5 0 0 0 -.915 3.415 2.5 2.5 0 0 0 3.415.915l6.495-3.75a8 8 0 0 0 10.929 2.929"/></g><path d="m49.193 23.427h6v22h-6z" fill="#f5fdff" transform="matrix(.866 -.5 .5 .866 -10.221 30.709)"/><path d="m19.905 26.401-11 19.053-7.905-4.564v-25.403z" fill="#788d9e"/><path d="m1 40.89 7.905 4.564 9.999-17.321-17.904-10.337z" fill="#6a7f91"/><path d="m.806 31.427h22v6h-22z" fill="#f5fdff" transform="matrix(.5 -.866 .866 .5 -23.912 27.438)"/><path d="m36.3 51.465a.749.749 0 0 0 -1.056-.092.75.75 0 0 0 -.093 1.057l4.821 5.745a2.492 2.492 0 0 1 .185 2.942 2.467 2.467 0 0 0 .656-.384 2.5 2.5 0 0 0 .308-3.523z" fill="#f9c9b2"/><path d="m31.318 55.644a.75.75 0 0 1 .092-1.057.751.751 0 0 1 1.057.092l3.533 4.214a2.5 2.5 0 0 1 -.308 3.522 2.473 2.473 0 0 1 -.657.384 2.49 2.49 0 0 0 -.184-2.942z" fill="#f9c9b2"/><path d="m19.656 50.943-1.756 2.089a2.491 2.491 0 0 1 -2.865.693 2.459 2.459 0 0 0 .493.58 2.5 2.5 0 0 0 3.524-.305l1.753-2.09a2.468 2.468 0 0 0 -.965-3.91 2.493 2.493 0 0 1 -.184 2.943z" fill="#ebb69d"/><path d="m23.486 54.157-2.817 3.357a2.493 2.493 0 0 1 -2.866.693 2.467 2.467 0 0 0 4.015.271l2.817-3.357a2.469 2.469 0 0 0 -.964-3.907 2.493 2.493 0 0 1 -.185 2.943z" fill="#ebb69d"/><path d="m27.316 57.371-1.753 2.089a2.492 2.492 0 0 1 -2.866.693 2.467 2.467 0 0 0 4.015.272l1.753-2.09a2.469 2.469 0 0 0 -.964-3.907 2.493 2.493 0 0 1 -.185 2.943z" fill="#ebb69d"/><path d="m31.149 60.584-.468.558a2.492 2.492 0 0 1 -2.867.692 2.47 2.47 0 0 0 4.016.272l.468-.557a2.5 2.5 0 0 0 -.308-3.522 2.447 2.447 0 0 0 -.655-.384 2.492 2.492 0 0 1 -.186 2.941z" fill="#ebb69d"/><path d="m1.306 32.293h20v6h-20z" fill="#e6f5fa" transform="matrix(.5 -.866 .866 .5 -24.912 27.438)"/><path d="m49.193 23.427h6v22h-6z" fill="#f5fdff" transform="matrix(.866 -.5 .5 .866 -10.221 30.709)"/><path d="m49.694 25.293h6v20h-6z" fill="#e6f5fa" transform="matrix(.866 -.5 .5 .866 -10.587 31.075)"/><circle cx="32" cy="13" fill="#b6f085" r="12"/><path d="m34 3a11.988 11.988 0 0 0 -9.419 19.419 11.988 11.988 0 0 0 16.838-16.838 11.93 11.93 0 0 0 -7.419-2.581z" fill="#a0e576"/><path d="m29.525 15.121-2.475-2.475a1.5 1.5 0 0 0 -2.121 0 1.5 1.5 0 0 0 0 2.122l3.535 3.532a1.5 1.5 0 0 0 2.122 0l8.485-8.485a1.5 1.5 0 0 0 0-2.121 1.5 1.5 0 0 0 -2.121 0z" fill="#fff"/><path d="m32 25.75a12.75 12.75 0 1 0 -12.75-12.75 12.765 12.765 0 0 0 12.75 12.75zm0-24a11.25 11.25 0 1 1 -11.25 11.25 11.263 11.263 0 0 1 11.25-11.25z"/><path d="m27.934 18.834a2.249 2.249 0 0 0 3.182 0l8.484-8.485a2.251 2.251 0 0 0 0-3.182 2.25 2.25 0 0 0 -3.182 0l-6.9 6.9-1.938-1.951a2.25 2.25 0 0 0 -3.18 3.184zm-2.475-5.657a.75.75 0 0 1 1.061 0l2.48 2.474a.75.75 0 0 0 1.061 0l7.419-7.424a.75.75 0 0 1 1.061 0 .75.75 0 0 1 0 1.061l-8.485 8.485a.75.75 0 0 1 -1.061 0l-3.536-3.536a.749.749 0 0 1 0-1.06z"/><path d="m62.625 14.841-18.9 10.915a.75.75 0 0 0 -.275 1.024l.625 1.082-3.452 1.994-3.3-.5a8.786 8.786 0 0 0 -5.323.88 8.775 8.775 0 0 0 -5.322-.88l-3.3.5-3.453-1.993.625-1.082a.75.75 0 0 0 -.274-1.024l-18.901-10.916a.75.75 0 0 0 -1.125.649v25.4a.751.751 0 0 0 .375.65l7.9 4.564a.75.75 0 0 0 1.025-.274l.625-1.083 3.467 2a15.739 15.739 0 0 0 1.632 2.8l-.631.752a3.237 3.237 0 0 0 2.271 5.322 3.24 3.24 0 0 0 .9 3.738 3.238 3.238 0 0 0 3.836.233 3.222 3.222 0 0 0 1.058 1.713 3.249 3.249 0 0 0 4.078.076 3.242 3.242 0 0 0 5.214 1.603 3.239 3.239 0 0 0 5.212-1.6 3.233 3.233 0 0 0 5.137-1.79 3.229 3.229 0 0 0 4.732-3.973 3.236 3.236 0 0 0 2.272-5.32l-.631-.752a15.678 15.678 0 0 0 1.632-2.8l3.467-2 .625 1.083a.75.75 0 0 0 1.025.274l7.9-4.564a.751.751 0 0 0 .375-.65v-25.402a.75.75 0 0 0 -1.121-.649zm-60.875 25.62v-23.672l11.934 6.89-10.251 17.754zm6.88 3.973-3.9-2.251 10.253-17.754 3.9 2.251zm7.382 9.3a1.749 1.749 0 0 1 -.216-2.465l1.753-2.089a1.749 1.749 0 0 1 2.466-.216 1.75 1.75 0 0 1 .216 2.465l-1.754 2.09a1.75 1.75 0 0 1 -2.465.215zm5.232 4.266a1.75 1.75 0 0 1 -2.466.216 1.75 1.75 0 0 1 -.215-2.466l2.816-3.357a1.75 1.75 0 0 1 2.682 2.25zm6.647-.143-1.753 2.089a1.75 1.75 0 0 1 -2.466.216 1.75 1.75 0 0 1 -.216-2.465l1.753-2.09a1.75 1.75 0 0 1 2.682 2.249zm3.83 3.214-.467.557a1.75 1.75 0 0 1 -2.683-2.249l.469-.559a1.75 1.75 0 0 1 2.681 2.251zm16.267-7.337a1.752 1.752 0 0 1 -2.465-.216l-5.043-6.009a.75.75 0 1 0 -1.149.964l6.107 7.277a1.75 1.75 0 1 1 -2.682 2.25l-6.107-7.277a.75.75 0 1 0 -1.148.964l5.042 6.013a1.75 1.75 0 1 1 -2.681 2.25l-4.821-5.75a.75.75 0 1 0 -1.149.964l3.536 4.214a1.749 1.749 0 0 1 -2.441 2.484 3.226 3.226 0 0 0 -3.2-5.1 3.226 3.226 0 0 0 -1.146-2.524 3.228 3.228 0 0 0 -2.684-.69 3.229 3.229 0 0 0 -1.146-2.524 3.23 3.23 0 0 0 -2.684-.69 3.232 3.232 0 0 0 -1.146-2.524 3.251 3.251 0 0 0 -4.579.4l-.129.155a14.075 14.075 0 0 1 -1.346-2.439.755.755 0 0 0 -.315-.355l-3.681-2.125 8.251-14.29 3.68 2.125a.748.748 0 0 0 .488.092l3.555-.541a7.271 7.271 0 0 1 3.453.325l-7.083 4.093a3.25 3.25 0 1 0 3.25 5.63l5.875-3.391a8.756 8.756 0 0 0 7.373 3.729l8.427 10.051a1.752 1.752 0 0 1 -.212 2.465zm1.4-8.158a.755.755 0 0 0 -.315.355 14.03 14.03 0 0 1 -1.346 2.438l-6.18-7.369a8.708 8.708 0 0 0 2.4-.944.75.75 0 0 0 -.75-1.3 7.258 7.258 0 0 1 -9.9-2.654.75.75 0 0 0 -1.024-.274l-6.5 3.75a1.75 1.75 0 1 1 -1.75-3.032l8.355-4.824a7.283 7.283 0 0 1 4.718-.888l3.555.541a.744.744 0 0 0 .488-.092l3.68-2.125 8.25 14.29zm5.98-1.142-10.248-17.754 3.9-2.251 10.25 17.754zm6.88-3.973-1.683.972-10.249-17.754 11.934-6.89z"/></svg>