<svg id="Icons" height="512" viewBox="0 0 60 60" width="512" xmlns="http://www.w3.org/2000/svg"><path d="m5.54 56.5a.5.5 0 0 1 -.318-.885l2.862-2.369-2.8 1.618a.5.5 0 0 1 -.575-.812l3.878-3.328-3.3 1.906a.5.5 0 0 1 -.578-.811l4.007-3.476-3.436 1.977a.5.5 0 0 1 -.548-.834l.962-.715-.414.24a.5.5 0 0 1 -.566-.82l3.193-2.616-2.627 1.517a.5.5 0 0 1 -.585-.8l3.5-3.166-2.915 1.681a.5.5 0 0 1 -.58-.807l1.219-1.083-.637.367a.5.5 0 0 1 -.662-.716l.745-1.082a.518.518 0 0 1 -.48-.248.5.5 0 0 1 .182-.682l1.655-.956a.5.5 0 0 1 .662.715l-.687 1 2.971-1.715a.5.5 0 0 1 .582.806l-1.217 1.079 2.751-1.585a.5.5 0 0 1 .585.8l-3.5 3.167 3.855-2.225a.5.5 0 0 1 .566.819l-3.192 2.615 2.631-1.518a.5.5 0 0 1 .547.834l-.966.717.422-.243a.5.5 0 0 1 .578.811l-4.01 3.477 3.433-1.982a.5.5 0 0 1 .576.812l-3.878 3.329 3.306-1.91a.5.5 0 0 1 .569.818l-2.863 2.369 2.3-1.326a.5.5 0 0 1 .585.8l-1.24 1.12.658-.38a.5.5 0 0 1 .621.767l-.433.481a.5.5 0 0 1 .315.928l-2.475 1.429a.5.5 0 0 1 -.621-.767l.351-.389-2.021 1.168a.5.5 0 0 1 -.585-.8l1.242-1.121-3.35 1.931a.491.491 0 0 1 -.25.069z" fill="#f4a314"/><path d="m20.914 56.493a.5.5 0 0 1 -.335-.871l2.55-2.3-3.849 2.224a.5.5 0 0 1 -.572-.815l3.667-3.1-3.095 1.79a.5.5 0 0 1 -.565-.82l3.079-2.5-2.514 1.448a.5.5 0 0 1 -.577-.812l3.949-3.408-3.372 1.946a.5.5 0 0 1 -.57-.816l3.521-2.944-2.951 1.7a.5.5 0 0 1 -.551-.831l1.6-1.215-1.049.605a.5.5 0 0 1 -.552-.831l1.656-1.258-1.1.636a.5.5 0 0 1 -.547-.835l.7-.512-.15.086a.5.5 0 0 1 -.57-.818l3.444-2.866-2.881 1.662a.5.5 0 0 1 -.572-.814l2.943-2.486-2.371 1.368a.5.5 0 0 1 -.58-.806l1.423-1.237-.845.487a.5.5 0 0 1 -.673-.7l.874-1.388a.5.5 0 0 1 -.416-.9l1.657-.956a.5.5 0 0 1 .673.7l-.865 1.372 3.594-2.078a.5.5 0 0 1 .578.809l-1.423 1.238 2.738-1.581a.5.5 0 0 1 .572.815l-2.943 2.485 3.076-1.775a.5.5 0 0 1 .57.817l-3.443 2.865 2.876-1.66a.5.5 0 0 1 .547.835l-.7.514.153-.088a.5.5 0 0 1 .552.831l-1.655 1.258 1.106-.638a.5.5 0 0 1 .551.831l-1.606 1.219 1.056-.609a.5.5 0 0 1 .571.816l-3.519 2.941 2.951-1.7a.5.5 0 0 1 .578.812l-3.949 3.408 3.374-1.948a.5.5 0 0 1 .566.82l-3.079 2.5 2.518-1.454a.5.5 0 0 1 .573.814l-3.668 3.1 3.1-1.789a.5.5 0 0 1 .585.8l-2.551 2.3 1.969-1.136a.5.5 0 0 1 .615.773l-.979 1.051.366-.211a.5.5 0 0 1 .733.562l-.267 1a.507.507 0 0 1 .221.2.5.5 0 0 1 -.184.683l-.5.29a.507.507 0 0 1 -.555-.037.5.5 0 0 1 -.178-.525l.189-.711-2.227 1.29a.5.5 0 0 1 -.615-.773l.982-1.053-3.183 1.837a.489.489 0 0 1 -.25.067z" fill="#f7c012"/><path d="m35.543 56.49a.5.5 0 0 1 -.35-.857l2.6-2.54-4.513 2.607a.5.5 0 0 1 -.567-.819l3.222-2.64-2.655 1.531a.5.5 0 0 1 -.56-.824l2.619-2.076-2.059 1.189a.5.5 0 0 1 -.563-.823l2.906-2.338-2.343 1.352a.5.5 0 0 1 -.544-.838l.384-.277a.511.511 0 0 1 -.508-.219.5.5 0 0 1 .121-.676l.743-.547-.2.113a.5.5 0 0 1 -.563-.822l2.948-2.379-2.381 1.376a.5.5 0 0 1 -.545-.836l.5-.364a.5.5 0 0 1 -.512-.848l2.588-2.049-2.028 1.17a.5.5 0 0 1 -.553-.83l1.765-1.348-1.212.7a.5.5 0 0 1 -.56-.824l2.626-2.084-2.069 1.191a.5.5 0 0 1 -.558-.826l2.439-1.917-1.881 1.082a.5.5 0 0 1 -.57-.816l3.317-2.765-2.747 1.589a.5.5 0 0 1 -.557-.827l1.318-1.027-.761.438a.5.5 0 0 1 -.612-.777l1.732-1.815-1.117.645a.5.5 0 0 1 -.637-.749l.516-.633a.492.492 0 0 1 -.276-.225.5.5 0 0 1 .182-.683l1.657-.956a.5.5 0 0 1 .637.749l-.218.268 1.762-1.016a.5.5 0 0 1 .613.778l-1.73 1.814 3.983-2.3a.5.5 0 0 1 .558.827l-1.316 1.026 1.562-.9a.5.5 0 0 1 .57.817l-3.317 2.765 2.893-1.67a.5.5 0 0 1 .558.826l-2.439 1.917 1.883-1.087a.5.5 0 0 1 .56.824l-2.624 2.079 2.066-1.192a.5.5 0 0 1 .553.83l-1.766 1.346 1.215-.7a.5.5 0 0 1 .56.824l-2.588 2.052 2.029-1.176a.5.5 0 0 1 .545.836l-.5.363a.5.5 0 0 1 .517.846l-2.948 2.38 2.386-1.378a.5.5 0 0 1 .547.835l-.743.547.2-.114a.5.5 0 0 1 .544.838l-.383.276a.5.5 0 0 1 .4.882l-2.909 2.341 2.354-1.352a.5.5 0 0 1 .561.824l-2.616 2.076 2.057-1.187a.5.5 0 0 1 .568.819l-3.223 2.64 2.657-1.534a.5.5 0 0 1 .6.79l-2.6 2.54 2.005-1.157a.5.5 0 0 1 .622.767l-.715.795.095-.055a.5.5 0 0 1 .728.58l-.232.749a.508.508 0 0 1 .19.187.5.5 0 0 1 -.184.683l-.5.29a.5.5 0 0 1 -.727-.581l.125-.405-1.723.994a.5.5 0 0 1 -.622-.767l.715-.794-2.722 1.571a.489.489 0 0 1 -.255.065z" fill="#f25151"/><path d="m49.623 56.49a.5.5 0 0 1 -.351-.856l2.568-2.524-4.56 2.633a.5.5 0 0 1 -.565-.82l3.074-2.5-2.509 1.451a.5.5 0 0 1 -.548-.834l1.022-.76-.474.274a.5.5 0 0 1 -.565-.821l3.1-2.52-2.535 1.462a.5.5 0 0 1 -.563-.822l2.929-2.36-2.366 1.365a.5.5 0 0 1 -.552-.831l1.671-1.27-1.119.643a.5.5 0 0 1 -.545-.837l.461-.336a.5.5 0 0 1 -.47-.868l1.985-1.529-1.431.826a.5.5 0 0 1 -.575-.812l3.853-3.3-3.278 1.894a.5.5 0 0 1 -.544-.837l.423-.308a.5.5 0 0 1 -.423-.888l.408-.3a.5.5 0 0 1 -.429-.875l3.06-2.486-2.495 1.44a.5.5 0 0 1 -.574-.813l3.75-3.188-3.176 1.837a.5.5 0 0 1 -.562-.824l2.758-2.2-2.2 1.268a.5.5 0 0 1 -.571-.816l3.57-3-3 1.732a.5.5 0 0 1 -.554-.829l1.926-1.481-1.372.792a.5.5 0 0 1 -.561-.824l2.446-1.945-1.88 1.087a.5.5 0 0 1 -.6-.792l2.788-2.688-2.188 1.26a.5.5 0 0 1 -.68-.687l.976-1.658-.011.006a.5.5 0 0 1 -.5-.866l1.657-.956a.5.5 0 0 1 .68.687l-.976 1.658 4.064-2.344a.5.5 0 0 1 .6.792l-2.79 2.688 4.2-2.422a.5.5 0 0 1 .562.824l-2.447 1.945 2.108-1.217a.5.5 0 0 1 .554.83l-1.922 1.478 1.369-.791a.5.5 0 0 1 .571.816l-3.571 3 3-1.733a.5.5 0 0 1 .562.823l-2.759 2.2 2.2-1.27a.5.5 0 0 1 .574.815l-3.749 3.187 3.177-1.834a.5.5 0 0 1 .565.821l-3.062 2.486 2.5-1.441a.5.5 0 0 1 .544.837l-.405.294a.506.506 0 0 1 .531.215.5.5 0 0 1 -.125.677l-.423.309a.5.5 0 0 1 .457.862l-3.851 3.3 3.274-1.891a.5.5 0 0 1 .555.829l-1.983 1.528 1.429-.826a.5.5 0 0 1 .545.837l-.463.337a.5.5 0 0 1 .473.869l-1.67 1.27 1.118-.646a.5.5 0 0 1 .564.823l-2.93 2.36 2.368-1.367a.5.5 0 0 1 .566.82l-3.1 2.522 2.536-1.464a.5.5 0 0 1 .548.834l-1.019.758.472-.273a.5.5 0 0 1 .566.82l-3.076 2.5 2.512-1.45a.5.5 0 0 1 .6.789l-2.569 2.524 1.97-1.137a.5.5 0 0 1 .647.737l-.841 1.095.2-.113a.5.5 0 1 1 .5.865l-2.377 1.372a.5.5 0 0 1 -.646-.737l.84-1.094-3.193 1.843a.489.489 0 0 1 -.253.065z" fill="#7650ef"/><g fill="#39c96c"><path d="m55.077 11.237a.5.5 0 0 1 -.393-.809l1.29-1.641-1.668.963a.5.5 0 0 1 -.586-.8l.488-.444a.5.5 0 0 1 -.428-.9l3.94-2.274a.5.5 0 0 1 .586.8l-.5.452a.5.5 0 0 1 .554.782l-1.29 1.641.641-.37a.5.5 0 0 1 .5.866l-2.884 1.667a.5.5 0 0 1 -.25.067z"/><path d="m39.587 17.127a.5.5 0 0 1 -.281-.914l7.059-4.8-2.091 1.208a.5.5 0 0 1 -.531-.846l3.709-2.529a.5.5 0 0 1 -.3-.889l4.333-3.493-.926.534a.5.5 0 0 1 -.624-.764l1.455-1.634-2.739 1.579a.5.5 0 0 1 -.7-.659l.821-1.62-.2.119a.5.5 0 0 1 -.5-.866l1.654-.953a.5.5 0 0 1 .7.659l-.826 1.614 3.948-2.273a.5.5 0 0 1 .625.764l-1.453 1.636 3.848-2.219a.5.5 0 0 1 .564.823l-4.332 3.496 4.9-2.831a.5.5 0 0 1 .532.846l-2.882 1.962 2.37-1.369a.5.5 0 0 1 .531.847l-7.061 4.795 1.31-.756a.5.5 0 0 1 .5.866l-13.163 7.6a.5.5 0 0 1 -.25.067z"/><path d="m35.84 24.085a.5.5 0 0 1 -.305-.9l4.019-3.08-4.705 2.716a.5.5 0 0 1 -.652-.731l.958-1.293-1.488.86a.5.5 0 0 1 -.659-.721l1.017-1.446-1.612.931a.5.5 0 0 1 -.5-.866l3.575-2.064a.5.5 0 0 1 .659.72l-1.017 1.449 1.612-.931a.5.5 0 0 1 .652.731l-.958 1.293 9.241-5.335a.5.5 0 0 1 .554.83l-4.737 3.632a.5.5 0 0 1 .161.925l-5.565 3.214a.5.5 0 0 1 -.25.066z"/><path d="m26.046 20.671a.5.5 0 0 1 -.327-.878l3.964-3.433a.5.5 0 0 1 .182-.683l1.868-1.077a.5.5 0 0 1 .578.811l-1.975 1.71 3.008-1.736a.5.5 0 0 1 .5.866l-7.544 4.349a.5.5 0 0 1 -.254.071z"/><path d="m21.789 28.042a.5.5 0 0 1 -.292-.906l.694-.5-.965.558a.5.5 0 0 1 -.53-.848l2.165-1.459-2.506 1.446a.5.5 0 0 1 -.624-.764l.6-.675-.9.521a.5.5 0 0 1 -.641-.745l.844-1.057-1.279.739a.5.5 0 0 1 -.625-.764l.616-.7-.929.536a.5.5 0 0 1 -.5-.866l3.57-2.061a.5.5 0 0 1 .625.763l-.617.7.931-.537a.5.5 0 0 1 .64.745l-.843 1.056 1.278-.738a.5.5 0 0 1 .624.765l-.6.676 12.293-7.1a.5.5 0 0 1 .53.848l-4.59 3.093a.511.511 0 0 1 .221.187.5.5 0 0 1 -.128.678l-2.98 2.145a.5.5 0 0 1 -.031.847l-5.8 3.347a.491.491 0 0 1 -.251.07z"/><path d="m4.016 35.469a.5.5 0 0 1 -.329-.877l2.444-2.135-3.531 2.038a.5.5 0 0 1 -.544-.837l4.484-3.252-4.157 2.4a.5.5 0 0 1 -.53-.848l5.9-3.97-1.979 1.143a.5.5 0 0 1 -.527-.849l3.021-2.013a.489.489 0 0 1 -.259-.2.5.5 0 0 1 .12-.676l3.939-2.916a.5.5 0 0 1 -.168-.86l2.76-2.3a.5.5 0 0 1 .2-.642l1.873-1.075a.5.5 0 0 1 .571.817l-.3.253 1.02-.589a.5.5 0 0 1 .547.835l-2.775 2.054 3.261-1.882a.5.5 0 0 1 .527.849l-.821.547 1.077-.622a.5.5 0 0 1 .529.848l-5.941 4a.5.5 0 0 1 .491.864l-4.689 3.4a.5.5 0 0 1 .425.867l-4.338 3.781.008.014a.5.5 0 0 1 -.182.682l-1.877 1.082a.493.493 0 0 1 -.25.069z"/></g><path d="m47.543 59.47a.5.5 0 0 1 -.318-.886l.13-.107-1.6.925a.5.5 0 0 1 -.613-.776l1.373-1.453-3.868 2.227a.5.5 0 0 1 -.626-.761l1.46-1.67-4.212 2.431a.5.5 0 0 1 -.57-.817l.194-.16-1.7.977a.5.5 0 0 1 -.635-.752l1.488-1.792-4.403 2.544a.5.5 0 0 1 -.643-.743l1.5-1.868-4.531 2.611a.5.5 0 0 1 -.613-.777l1.358-1.423-3.814 2.2a.5.5 0 0 1 -.577-.81l.566-.488-2.251 1.3a.5.5 0 0 1 -.654-.728l1.484-2.022-4.768 2.748a.5.5 0 0 1 -.613-.776l1.368-1.442-3.842 2.218a.5.5 0 0 1 -.59-.8l.987-.914-2.968 1.714a.5.5 0 0 1 -.641-.744l1.5-1.873-4.541 2.617a.5.5 0 0 1 -.578-.81l.605-.524-2.313 1.334a.5.5 0 0 1 -.646-.737l1.493-1.939-4.638 2.676a.5.5 0 0 1 -.567-.819l.076-.062-1.527.881a.5.5 0 0 1 -.574-.814l.393-.332-1.506.869a.5.5 0 0 1 -.607-.782l1.034-1.057-.725.416a.5.5 0 0 1 -.689-.671l.452-.835a.5.5 0 0 1 -.21-.93l1.161-.67a.5.5 0 0 1 .69.671l-.372.685 2.35-1.35a.5.5 0 0 1 .608.782l-1.035 1.055 3.187-1.837a.5.5 0 0 1 .578.812l-.392.332 1.981-1.144a.5.5 0 0 1 .567.819l-.076.062 1.527-.881a.5.5 0 0 1 .647.737l-1.493 1.939 4.639-2.676a.5.5 0 0 1 .579.81l-.605.524 2.311-1.334a.5.5 0 0 1 .64.744l-1.494 1.873 4.535-2.617a.5.5 0 0 1 .59.8l-.986.914 2.968-1.714a.5.5 0 0 1 .614.776l-1.367 1.442 3.843-2.218a.5.5 0 0 1 .654.728l-1.482 2.02 4.765-2.75a.5.5 0 0 1 .577.81l-.565.488 2.251-1.3a.494.494 0 0 1 .642.124.5.5 0 0 1 -.03.653l-1.36 1.427 3.814-2.2a.5.5 0 0 1 .641.745l-1.5 1.867 4.532-2.612a.5.5 0 0 1 .632.11.5.5 0 0 1 0 .642l-1.488 1.792 4.411-2.544a.5.5 0 0 1 .57.817l-.2.16 1.7-.977a.5.5 0 0 1 .626.761l-1.46 1.67 4.215-2.431a.5.5 0 0 1 .613.776l-1.372 1.452 3.861-2.228a.5.5 0 0 1 .569.818l-.131.107 1.6-.925a.5.5 0 0 1 .62.769l-1.424 1.564 4.046-2.333a.5.5 0 0 1 .571.816l-.26.217.928-.535a.5.5 0 0 1 .674.7l-1.09 1.735.542-.312a.5.5 0 0 1 .5.865l-2.287 1.314a.5.5 0 0 1 -.674-.7l1.09-1.735-4.216 2.435a.5.5 0 0 1 -.571-.816l.261-.218-1.792 1.034a.5.5 0 0 1 -.62-.769l1.424-1.564-4.042 2.333a.493.493 0 0 1 -.25.07z" fill="#524e6d"/><path d="m58.6 54.681a28.226 28.226 0 0 0 -2.869-.054v-28.917c.413-2.247-1.481-3.392-3.485-3.136-2.2 0-5.815-.47-5.967 2.665-.228 9.783.12 19.6 0 29.388h-4.554c0-7.519.153-15.053 0-22.569-.048-2.371-2.111-2.445-3.94-2.445-2.078 0-5.333-.319-5.508 2.581-.2 7.464.106 14.96 0 22.433h-4.553c-.077-6.25.152-12.514 0-18.759-.106-2.3-2.313-2.2-4.01-2.2-1.763 0-4.419-.354-5.275 1.666-.5 6.353.011 12.881-.164 19.289h-4.551c-.934-4.308 2.959-16.517-4.118-14.946-8.7-1.527-4.353 9.865-5.33 14.936-2.512-.436-4.809.694-4 3.578.187 1.3 1.469 1.178 2.459 1.178h36.548c3.773-.771 20.008 1.916 20.442-1.714.06-1.188.241-2.648-1.125-2.974zm-10.874-29.595c-.619-2.414 5.758-2.176 6.332-.752.609 9.994.016 20.222.216 30.293h-6.548q.005-14.769 0-29.541zm-14 6.752c.13-2.23 4.124-1.534 5.615-1.279 2.51 6.885.168 16.437.937 24.068h-6.554q.005-11.394 0-22.789zm-13.851 3.262c.422-1.009 1.426-.777 2.309-.777 1.678 0 3.995-.384 4.092 1.974.123 6.1-.064 12.219 0 18.325h-6.552c.136-6.488-.267-13.066.151-19.522zm-14.151 6.762c-.067-1.608 1.447-1.694 2.671-1.543 1.331 0 3.275-.378 3.791 1.28.274 4.3-.007 8.7.09 13.028h-6.552c.044-4.253-.087-8.514 0-12.765zm52.555 16.765c-17.789 0-35.656 0-53.47 0-1.692.187-3.593.314-3.084-2.069 0-.49-.2-1.032.192-1.185 10.46-.063 21.038.044 31.531 0 8.05 0 16.1.075 24.131 0 1.232.384.569 2.372.7 3.254z" fill="#262626"/><path d="m6.1 34.444c3.616-3.566 7.174-7.2 10.782-10.772 6.924 9.073 9 2.492 15-3 2.435 2.805 5.336 5.724 8.3 1.684l13.147-13.141c.051 2.851 4.551 2.862 5.3.332.385-2.184-.031-4.539.1-6.741-.673-3.624-5.535-1.835-8.138-2.241-3.77-.286-4.707 4.866-.536 4.835l-12.932 12.923c-5.592-8.109-9.247-.107-14 4-7.011-9.241-9.2-2.241-15.229 3.238-2.042 2.446-5.2 4.317-6.583 7.18-.506 2.887 3.189 3.194 4.789 1.703zm-2.753-2.887c4.269-4.266 8.56-8.571 12.821-12.821 2.616-.466 4.13 3.395 6.162 4.724 3.037-.31 5.114-4.766 7.693-6.579 2.175-3.345 4.477 1.145 6.306 2.58.307.306.988.116 1.257-.153l14.18-14.17c.55-.863-1.04-.469-1.465-.572a1.712 1.712 0 0 1 -1.472-2.28c1.193-1.793 4.1-.473 5.958-.852 3.679-.371 2.213 4.227 2.487 6.518.344 1.6-.641 3.527-2.216 1.936-.7-.888.27-3.433-1.644-2.206q-6.392 6.39-12.782 12.782c-3.755 5.024-4.475 2.454-7.961-.925-3.209.448-5.422 5.095-8.167 7.052-2.245 2.893-4.866-2.916-6.833-4.051-.307-.307-.988-.117-1.257.152q-5.743 5.733-11.486 11.476c-1.858.8-2.928-1.32-1.581-2.611z" fill="#262626"/></svg>