<?xml version="1.0" encoding="UTF-8" standalone="no"?>
<!-- Created with Inkscape (http://www.inkscape.org/) -->

<svg
   version="1.1"
   id="svg2502"
   xml:space="preserve"
   width="682.66669"
   height="682.66669"
   viewBox="0 0 682.66669 682.66669"
   xmlns="http://www.w3.org/2000/svg"
   xmlns:svg="http://www.w3.org/2000/svg"><defs
     id="defs2506"><clipPath
       clipPathUnits="userSpaceOnUse"
       id="clipPath2548"><path
         d="M 0,512 H 512 V 0 H 0 Z"
         id="path2546" /></clipPath></defs><g
     id="g2508"
     transform="matrix(1.3333333,0,0,-1.3333333,0,682.66667)"><g
       id="g2510"
       transform="translate(224.9385,349.1865)"><path
         d="M 0,0 H 123.905 V 93.187 H 0 L 31.062,46.594 Z"
         style="fill:#f25a74;fill-opacity:1;fill-rule:nonzero;stroke:none"
         id="path2512" /></g><g
       id="g2514"
       transform="translate(276.001,395.7803)"><path
         d="m 0,0 -31.06,-46.59 h -20 L -20,0 -51.06,46.59 h 20 z"
         style="fill:#e83d5a;fill-opacity:1;fill-rule:nonzero;stroke:none"
         id="path2516" /></g><path
       d="m 457.905,256 h -31.062 v 248.498 h 31.062 z"
       style="fill:#46778c;fill-opacity:1;fill-rule:nonzero;stroke:none"
       id="path2518" /><path
       d="m 441.841,256 h -15 v 248.5 h 15 z"
       style="fill:#3a6684;fill-opacity:1;fill-rule:nonzero;stroke:none"
       id="path2520" /><path
       d="M 504.499,7.502 H 380.25 V 256 h 124.249 z"
       style="fill:#f9d264;fill-opacity:1;fill-rule:nonzero;stroke:none"
       id="path2522" /><path
       d="M 400.251,7.5 H 380.25 V 256 h 20.001 z"
       style="fill:#efc356;fill-opacity:1;fill-rule:nonzero;stroke:none"
       id="path2524" /><path
       d="M 380.25,7.502 H 256.001 V 193.876 H 380.25 Z"
       style="fill:#9bd8f9;fill-opacity:1;fill-rule:nonzero;stroke:none"
       id="path2526" /><path
       d="m 276.001,7.5 h -20 v 186.38 h 20 z"
       style="fill:#73c3f9;fill-opacity:1;fill-rule:nonzero;stroke:none"
       id="path2528" /><path
       d="M 256.001,7.502 H 131.752 v 124.249 h 124.249 z"
       style="fill:#aee69c;fill-opacity:1;fill-rule:nonzero;stroke:none"
       id="path2530" /><path
       d="m 151.751,7.5 h -20 v 124.25 h 20 z"
       style="fill:#89daa4;fill-opacity:1;fill-rule:nonzero;stroke:none"
       id="path2532" /><path
       d="M 131.752,7.502 H 7.503 v 62.125 h 124.249 z"
       style="fill:#fff292;fill-opacity:1;fill-rule:nonzero;stroke:none"
       id="path2534" /><path
       d="m 27.501,7.5 h -20 v 62.13 h 20 z"
       style="fill:#f9e77d;fill-opacity:1;fill-rule:nonzero;stroke:none"
       id="path2536" /><path
       d="m 318.125,380.249 h 108.719 v 93.187 H 318.125 Z"
       style="fill:#f25a74;fill-opacity:1;fill-rule:nonzero;stroke:none"
       id="path2538" /><path
       d="m 338.121,380.25 h -20 v 93.19 h 20 z"
       style="fill:#e83d5a;fill-opacity:1;fill-rule:nonzero;stroke:none"
       id="path2540" /><g
       id="g2542"><g
         id="g2544"
         clip-path="url(#clipPath2548)"><g
           id="g2550"
           transform="translate(496.999,15.002)"><path
             d="m 0,0 h -109.248 l -10e-4,233.498 H 0 Z m -357.747,109.249 h 109.249 V 0 h -109.249 z m 186.373,341.685 h 93.716 v -78.187 h -93.716 z m 15.716,-109.246 h -102.386 l 23.286,34.93 c 1.68,2.519 1.68,5.801 0,8.32 l -23.286,34.93 h 71.67 v -54.621 c 0,-4.142 3.357,-7.5 7.5,-7.5 h 23.216 z M 7.5,248.498 h -39.098 v 100.41 c 0,4.142 -3.357,7.5 -7.5,7.5 -4.142,0 -7.5,-3.358 -7.5,-7.5 v -100.41 h -16.06 v 233.5 h 16.06 v -100.41 c 0,-4.142 3.358,-7.5 7.5,-7.5 4.143,0 7.5,3.358 7.5,7.5 v 107.91 c 0,4.142 -3.357,7.5 -7.5,7.5 h -31.06 c -4.143,0 -7.5,-3.358 -7.5,-7.5 v -23.564 h -101.216 c -4.143,0 -7.5,-3.358 -7.5,-7.5 v -23.566 h -85.684 c -6.736,-1.394 -8.816,-5.281 -6.24,-11.66 l 28.286,-42.43 -28.286,-42.43 c -2.576,-6.379 -0.496,-10.265 6.24,-11.66 h 123.9 c 4.142,0 7.5,3.358 7.5,7.5 v 23.559 h 63 V 248.498 h -39.091 c -4.143,0 -7.5,-3.358 -7.5,-7.5 v -54.62 h -38.279 c -4.143,0 -7.5,-3.358 -7.5,-7.5 0,-4.142 3.357,-7.5 7.5,-7.5 h 38.279 V -0.002 h -109.249 v 171.38 h 38.28 c 4.143,0 7.5,3.358 7.5,7.5 0,4.142 -3.357,7.5 -7.5,7.5 h -45.78 c -4.143,0 -7.5,-3.358 -7.5,-7.5 v -54.629 h -116.749 c -4.143,0 -7.5,-3.358 -7.5,-7.5 V 62.128 h -42.931 c -4.142,0 -7.5,-3.358 -7.5,-7.5 0,-4.142 3.358,-7.5 7.5,-7.5 h 42.93 v -47.13 h -109.25 v 47.13 h 33.63 c 4.142,0 7.5,3.358 7.5,7.5 0,4.142 -3.358,7.5 -7.5,7.5 h -41.13 c -4.143,0 -7.5,-3.358 -7.5,-7.5 v -62.13 c 0,-4.142 3.357,-7.5 7.5,-7.5 L 7.5,-15 c 4.143,0 7.5,3.358 7.5,7.5 v 248.498 c 0,4.142 -3.357,7.5 -7.5,7.5"
             style="fill:#000000;fill-opacity:1;fill-rule:nonzero;stroke:none"
             id="path2552" /></g></g></g></g></svg>
