<svg enable-background="new 0 0 512 512" viewBox="0 0 512 512" xmlns="http://www.w3.org/2000/svg"><g id="_x32_7_Home_Key"><g><g><path d="m446.66 284.756v176.949c0 11.796-9.563 21.359-21.359 21.359h-227.369c-11.796 0-21.359-9.563-21.359-21.359v-176.949l125.032-102.471.073-.073c5.466-5.466 14.411-5.466 19.877 0l.073.073z" fill="#61caf7"/></g><g><path d="m446.653 453.574v8.136c0 11.796-9.563 21.359-21.359 21.359h-227.355c-11.796 0-21.359-9.563-21.359-21.359v-176.964l77.916-63.833c-3.422 5.33-6.482 10.858-9.18 16.55-9.443 20.005-14.543 42.084-14.543 64.754 0 83.608 67.749 151.356 151.356 151.356h64.524z" fill="#0da3e3"/></g><g><path d="m349.24 483.063v-82.362c0-5.848-4.741-10.588-10.588-10.588h-54.07c-5.848 0-10.588 4.741-10.588 10.588v82.362z" fill="#fff"/></g><g><path d="m467.336 330.931c-5.187 6.348-13.131 9.141-20.676 8.053-3.99-.508-7.871-2.14-11.208-4.861l-116.98-95.869c-3.99-3.265-9.721-3.265-13.711 0l-116.98 95.869c-3.337 2.72-7.218 4.353-11.208 4.861-7.545 1.088-15.489-1.705-20.676-8.053-3.446-4.208-5.115-9.25-5.115-14.292 0-6.565 2.829-13.058 8.307-17.556l17.484-14.328 125.032-102.471c.036-.036.036-.036.073-.073 5.767-4.643 14.11-4.643 19.877 0l.073.073 125.032 102.472 17.483 14.328c9.685 7.943 11.1 22.198 3.193 31.847z" fill="#fff"/></g><g><path d="m467.349 330.942c-5.199 6.35-13.129 9.114-20.697 8.028-3.981-.494-7.864-2.139-11.187-4.837l-117.005-95.88c-3.981-3.258-9.707-3.258-13.688 0l-117.005 95.881c-3.323 2.698-7.206 4.343-11.187 4.837-7.568 1.086-15.498-1.678-20.696-8.028-3.422-4.212-5.1-9.246-5.1-14.313 0-4.475 1.316-8.95 3.948-12.734.362.527.757 1.053 1.152 1.547 5.199 6.35 13.128 9.147 20.696 8.061 3.981-.494 7.864-2.139 11.187-4.87l117.005-95.848c3.981-3.29 9.707-3.29 13.688 0l117.005 95.848c3.323 2.731 7.206 4.376 11.187 4.87 7.568 1.086 15.498-1.711 20.697-8.061.428-.527.823-1.053 1.184-1.579 5.495 8.093 5.298 19.116-1.184 27.078z" fill="#bae3f5"/></g><g><path d="m349.717 321.668c0 21.027-17.056 38.115-38.115 38.115-21.027 0-38.083-17.088-38.083-38.115 0-21.059 17.057-38.115 38.083-38.115 21.059 0 38.115 17.056 38.115 38.115z" fill="#fff"/></g><g><path d="m46.618 109.479 13.829 5.498c8.17 3.248 17.273 3.248 25.443 0l16.767-6.666c8.173-3.249 17.279-3.248 25.451.003l16.733 6.657c8.274 3.292 17.457 3.152 25.742-.112 10.979-4.325 22.674-6.546 34.475-6.546h10.283v-35.82h-164.591c-6.178 0-11.186 5.008-11.186 11.186v15.406c0 4.582 2.795 8.701 7.054 10.394z" fill="#fff"/></g><g><path d="m215.36 93.948v14.351h-10.309c-11.808 0-23.48 2.225-34.471 6.54-8.266 3.27-17.485 3.406-25.751.136l-16.713-6.676c-8.175-3.225-17.303-3.225-25.478 0l-16.758 6.676c-8.175 3.27-17.258 3.27-25.433 0l-13.852-5.495c-4.224-1.68-7.039-5.813-7.039-10.4v-15.396c0-6.176 4.996-11.172 11.172-11.172h3.316v12.126c0 4.587 2.77 8.675 7.039 10.4l13.806 5.495c8.175 3.225 17.303 3.225 25.478 0l16.758-6.676c8.175-3.27 17.258-3.27 25.433 0l16.758 6.631c8.266 3.315 17.439 3.179 25.705-.091 9.675-3.815 19.939-5.995 30.339-6.449z" fill="#bae3f5"/></g><g><ellipse cx="256.827" cy="94.953" fill="#fcd230" rx="73.82" ry="73.82" transform="matrix(.881 -.473 .473 .881 -14.349 132.894)"/></g><g><path d="m317.091 133.142c-2.089 5.859-4.814 10.718-8.084 13.988-18.439 18.484-85.926 18.484-104.365 0-18.484-18.439-18.484-85.926 0-104.365 3.27-3.27 8.129-5.995 13.988-8.084-9.81 26.977-7.13 75.254 8.038 90.423 15.169 15.168 63.492 17.847 90.423 8.038z" fill="#efb000"/></g><path d="m287.191 114.086c-10.582 0-19.134-8.552-19.134-19.134s8.552-19.133 19.134-19.133 19.133 8.552 19.133 19.133c.001 10.583-8.551 19.134-19.133 19.134z" fill="#fff"/><path d="m331.948 432.047c-2.508 0-4.542 2.031-4.542 4.542v5.171c0 2.51 2.034 4.542 4.542 4.542s4.542-2.031 4.542-4.542v-5.171c0-2.51-2.033-4.542-4.542-4.542z"/><path d="m326.762 81.393c-1.622-17.694-6.458-33.781-14.526-41.849-20.198-20.198-90.627-20.202-110.82 0-5.956 5.956-10.14 16.293-12.584 28.407h-138.081c-8.673 0-15.727 7.056-15.727 15.727v15.408c0 6.484 3.892 12.219 9.915 14.614l13.831 5.5c4.641 1.845 9.52 2.768 14.396 2.768 4.879 0 9.759-.923 14.403-2.768l16.767-6.67c7.118-2.834 14.962-2.83 22.094.004l16.731 6.657c9.243 3.677 19.57 3.637 29.088-.102 4.995-1.97 10.131-3.402 15.35-4.415 2.1 15.202 6.698 28.572 13.818 35.692 9.934 9.934 32.018 14.968 54.299 15.13-.69 10.315-1.432 28.192-1.432 35.856 0 4.596.117 9.121.331 13.574l-98.407 80.65c-6.333 5.198-9.966 12.88-9.966 21.067 0 6.32 2.124 12.259 6.14 17.164 4.878 5.966 12.115 9.491 19.65 9.876v118.024c0 14.281 11.62 25.901 25.901 25.901h76.06 75.246 76.062c14.281 0 25.901-11.62 25.901-25.901v-118.049c7.552-.397 14.78-3.902 19.65-9.853 9.48-11.576 7.764-28.726-3.83-38.235l-98.455-80.669c.218-4.48.386-9.009.386-13.551 0-58.247-17.619-105.915-42.191-119.957zm-157.842 29.241c-7.356 2.896-15.312 2.936-22.402.12l-16.731-6.657c-9.289-3.694-19.519-3.703-28.808-.009l-16.765 6.666c-7.132 2.825-14.975 2.825-22.089 0l-13.829-5.5c-.002 0-.002 0-.004 0-2.541-1.007-4.185-3.428-4.185-6.169v-15.407c0-3.663 2.98-6.644 6.644-6.644h136.612c-1.148 9.25-1.38 19.093-.702 28.592-6.036 1.121-11.974 2.735-17.741 5.008zm38.918-64.668c8.243-8.24 28.613-12.361 48.988-12.361 20.373 0 40.748 4.12 48.988 12.361 5.878 5.878 9.647 17.938 11.333 31.758-1.812-.359-3.649-.561-5.511-.561-2.594 0-5.161.376-7.689 1.084-4.289-4.301-10.215-6.969-16.755-6.969-13.055 0-23.675 10.622-23.675 23.675s10.62 23.675 23.675 23.675 23.675-10.622 23.675-23.675c0-2.984-.615-5.814-1.627-8.446.799-.101 1.596-.26 2.397-.26 2.147 0 4.263.389 6.345 1.076 1.161 22.711-2.894 47.347-12.166 56.62-16.481 16.481-81.491 16.481-97.976 0-16.483-16.482-16.483-81.496-.002-97.977zm93.945 48.986c0 8.045-6.546 14.592-14.592 14.592-1.345 0-2.623-.242-3.861-.585 5.285-9.264 11.197-15.855 17.375-19.455.682 1.686 1.078 3.519 1.078 5.448zm-26.048 8.927c-1.934-2.476-3.135-5.549-3.135-8.927 0-8.045 6.546-14.592 14.592-14.592 2.757 0 5.309.813 7.511 2.147-6.913 4.471-13.347 11.686-18.968 21.372zm-12.369 97.471c0-7.565.783-26.183 1.467-36.057 19.826-1.052 38.5-6.023 47.404-14.929 10.418-10.418 15.447-34.196 15.118-57.554 18.703 15.96 32.515 59.211 32.515 108.54 0 2.105-.131 4.177-.179 6.278l-34.851-28.555c-.115-.115-.308-.297-.435-.399-7.407-5.965-18.164-5.965-25.677.098l-35.28 28.914c-.051-2.101-.082-4.212-.082-6.336zm-103.953 126.703c-2.674-3.264-4.089-7.212-4.089-11.412 0-5.46 2.424-10.582 6.644-14.046l93.409-76.558c1.326 14.785 3.827 28.548 7.292 40.842l-77.758 63.724c-2.606 2.124-5.688 3.464-8.986 3.885-6.202.9-12.538-1.57-16.512-6.435zm119.121 150.47v-77.823c0-3.335 2.712-6.045 6.047-6.045h54.071c3.333 0 6.045 2.71 6.045 6.045v77.823zm146.767 0h-71.521v-77.823c0-8.342-6.786-15.128-15.128-15.128h-54.071c-8.342 0-15.13 6.786-15.13 15.128v77.823h-71.519c-9.274 0-16.818-7.544-16.818-16.818v-119.062c3.442-1 6.691-2.681 9.544-5.006l74.923-61.4c2.906 8.44 6.31 15.997 10.113 22.537-4.232 6.623-6.718 14.466-6.718 22.893 0 23.519 19.122 42.657 42.626 42.657 23.522 0 42.657-19.138 42.657-42.657s-19.135-42.657-42.657-42.657c-11.562 0-22.049 4.647-29.736 12.153-3.242-6.172-6.164-13.28-8.671-21.165l34.441-28.225c2.306-1.889 5.655-1.885 7.957-.004l116.99 95.878c2.855 2.325 6.11 4.009 9.536 5.004v119.055c0 9.273-7.544 16.817-16.818 16.817zm-113.665-152.989c2.508 0 4.542-2.031 4.542-4.542 0-2.51-2.034-4.542-4.542-4.542-9.057 0-17.625-6.323-24.961-17.17 6.145-6.848 15.028-11.188 24.927-11.188 18.512 0 33.574 15.062 33.574 33.574s-15.062 33.574-33.574 33.574c-18.497 0-33.543-15.062-33.543-33.574 0-5.14 1.194-9.995 3.266-14.355 8.745 11.582 19.102 18.223 30.311 18.223zm152.186 2.519c-.002 0-.002.004-.004.004-3.974 4.861-10.303 7.336-16.581 6.422-3.227-.412-6.309-1.752-8.906-3.867l-116.983-95.874c-5.637-4.613-13.824-4.608-19.466.004l-31.419 25.748c-3.235-12.547-5.49-26.597-6.5-41.492l40.564-33.246c2.096-1.69 4.677-2.519 7.207-2.519 2.426 0 4.805.763 6.67 2.249.102.106.231.222.344.315l142.514 116.799c7.725 6.332 8.872 17.753 2.56 25.457z"/></g></g><g id="Layer_1"/></svg>