<?xml version="1.0" encoding="utf-8"?>
<!-- Generator: Adobe Illustrator 26.2.1, SVG Export Plug-In . SVG Version: 6.00 Build 0)  -->
<svg version="1.1" id="Layer_1" xmlns="http://www.w3.org/2000/svg" xmlns:xlink="http://www.w3.org/1999/xlink" x="0px" y="0px"
	 viewBox="0 0 512 512" style="enable-background:new 0 0 512 512;" xml:space="preserve">
<style type="text/css">
	.st0{fill:#FECD04;}
	.st1{fill:#682F2A;}
	.st2{opacity:0.3;}
	.st3{fill:#FFFFFF;}
	.st4{fill:#6CD8D5;}
	.st5{fill:#FA4968;}
	.st6{fill:#FFB95C;}
</style>
<g>
	<g>
		<ellipse class="st0" cx="249.9" cy="402.4" rx="92.2" ry="94.2"/>
		<path class="st1" d="M249.9,501.8c-53.2,0-97.3-45.1-97.3-99.3s44-99.3,97.3-99.3s97.3,45.1,97.3,99.3S303.1,501.8,249.9,501.8
			L249.9,501.8z M249.9,313.3c-48.1,0-87,39.9-87,89.1s38.9,89.1,87,89.1s87-39.9,87-89.1S298,313.3,249.9,313.3L249.9,313.3z"/>
	</g>
	<g class="st2">
		<path class="st3" d="M220.2,338.9c-2,0-4.1-2-5.1-4.1c-1-3.1,1-5.1,4.1-6.1c2,0,4.1-1,5.1-2c2-1,4.1-2,7.2-2c3.1-1,5.1,1,6.1,4.1
			c1,3.1-1,5.1-4.1,6.1c-2,0-4.1,1-5.1,2c-2,1-4.1,2-7.2,2H220.2z"/>
	</g>
	<path class="st1" d="M256,452.9c-1.7,0-2.8-0.6-4-1.7l-34-34c-1.7-1.7-2.3-4-1.1-6.2c0.6-2.3,2.8-3.4,5.1-3.4h17
		c4.5,0,9.1-1.7,11.9-5.1c3.4-2.8,5.1-7.4,5.1-11.9s-1.7-9.1-5.1-11.9c-2.8-3.4-7.4-5.1-11.9-5.1h-17c-3.4,0-5.7-2.3-5.7-5.7
		s2.3-5.7,5.7-5.7h62.4c3.4,0,5.7,2.3,5.7,5.7s-2.3,5.7-5.7,5.7h-22.7c3.4,5.1,5.7,10.8,5.7,17c0,7.4-2.8,14.7-8.5,19.8
		c-5.1,5.7-12.5,8.5-19.8,8.5h-3.4l24.4,24.4c2.3,2.3,2.3,5.7,0,7.9C258.8,452.3,257.7,452.9,256,452.9L256,452.9z M284.3,396.2
		h-62.4c-3.4,0-5.7-2.3-5.7-5.7c0-3.4,2.3-5.7,5.7-5.7h62.4c3.4,0,5.7,2.3,5.7,5.7C290,393.9,287.7,396.2,284.3,396.2z"/>
	<g>
		<g>
			<g>
				<path class="st4" d="M235.5,213h41V80.9h27.6L256,15.4l-48.1,65.5h27.6V213z"/>
				<path class="st1" d="M276.5,218.1h-41c-3.1,0-5.1-2-5.1-5.1V86h-22.5c-2,0-4.1-1-4.1-3.1c-1-2-1-4.1,0-5.1l48.1-65.5
					c2-3.1,6.1-3.1,8.2,0l47.1,64.5c1,1,2,2,2,4.1c0,3.1-2,5.1-5.1,5.1h-22.5v127C281.6,216.1,279.6,218.1,276.5,218.1L276.5,218.1z
					 M240.6,207.9h30.7v-127c0-3.1,2-5.1,5.1-5.1h17.4L256,23.6l-37.9,52.2h17.4c3.1,0,5.1,2,5.1,5.1V207.9z"/>
			</g>
			<g class="st2">
				<path class="st3" d="M245.8,66.6c-1,0-2,0-3.1-1c-2-2-3.1-5.1-1-7.2l10.2-13.3c2-2,5.1-3.1,7.2-1c2,2,3.1,5.1,1,7.2l-10.2,13.3
					C248.8,65.5,246.8,66.6,245.8,66.6L245.8,66.6z"/>
			</g>
		</g>
	</g>
	<g>
		<g>
			<path class="st5" d="M365.6,215v-28.7H342c-35.8,0-64.5,29.7-64.5,65.5v7.2c0,11.3-9.2,20.5-20.5,20.5s-20.5-9.2-20.5-20.5v-7.2
				c0-58.4,47.1-105.5,105.5-105.5h23.6v-28.7l65.5,48.1L365.6,215z"/>
			<path class="st1" d="M257,284.7c-14.3,0-25.6-11.3-25.6-25.6v-7.2c0-61.4,49.2-110.6,110.6-110.6h18.4v-23.6c0-2,1-4.1,3.1-4.1
				c2-1,4.1-1,5.1,0l65.5,48.1c1,1,2,2,2,4.1s-1,3.1-2,4.1l-65.5,49.2c-2,1-4.1,1-5.1,0c-2-1-3.1-3.1-3.1-4.1v-23.6H342
				c-32.8,0-59.4,26.6-59.4,60.4v7.2C282.6,273.4,271.4,284.7,257,284.7L257,284.7z M342,151.6c-55.3,0-100.4,45.1-100.4,100.4v7.2
				c0,8.2,7.2,15.4,15.4,15.4s15.4-7.2,15.4-15.4v-7.2c0-38.9,31.7-70.7,69.6-70.7h23.6c3.1,0,5.1,2,5.1,5.1v18.4l52.2-38.9
				L370.7,128v18.4c0,3.1-2,5.1-5.1,5.1H342z"/>
		</g>
		<g class="st2">
			<path class="st3" d="M277.5,199.7c-1,0-2,0-3.1-1c-2-2-2-5.1,0-7.2c17.4-19.5,42-30.7,67.6-30.7h8.2c3.1,0,5.1,2,5.1,5.1
				s-2,5.1-5.1,5.1H342c-22.5,0-45.1,10.2-59.4,26.6C280.6,198.7,278.5,199.7,277.5,199.7L277.5,199.7z"/>
		</g>
	</g>
	<g>
		<g>
			<path class="st6" d="M276.5,252.9v7.2c0,11.3-9.2,20.5-20.5,20.5s-20.5-9.2-20.5-20.5v-7.2c0-35.8-28.7-65.5-64.5-65.5h-23.6V215
				l-65.5-48.1l65.5-48.1v28.7H171C228.4,146.4,276.5,194.6,276.5,252.9L276.5,252.9z"/>
			<path class="st1" d="M256,285.7c-14.3,0-25.6-11.3-25.6-25.6v-7.2c0-33.8-26.6-60.4-59.4-60.4h-18.4V215c0,2-1,4.1-3.1,4.1
				c-2,1-4.1,1-5.1,0L78.8,171c-1-1-2-2-2-4.1s1-3.1,2-4.1l65.5-48.1c2-1,4.1-1,5.1,0c2,1,3.1,3.1,3.1,4.1v23.6h20.5
				c60.4,0,108.5,49.2,108.5,110.6v7.2C281.6,274.4,270.3,285.7,256,285.7L256,285.7z M147.5,182.3H171c37.9,0,69.6,31.7,69.6,70.7
				v7.2c0,8.2,7.2,15.4,15.4,15.4c8.2,0,15.4-7.2,15.4-15.4v-7.2c0-54.3-45.1-100.4-98.3-100.4h-25.6c-3.1,0-5.1-2-5.1-5.1V129
				l-52.2,37.9l52.2,37.9v-17.4C142.3,184.3,144.4,182.3,147.5,182.3z"/>
		</g>
		<g class="st2">
			<path class="st3" d="M256,248.8c-3.1,0-5.1-2-5.1-5.1c-4.1-41-38.9-71.7-79.9-71.7h-10.2c-3.1,0-5.1-2-5.1-5.1s2-5.1,5.1-5.1H171
				c46.1,0,86,35.8,90.1,81.9C261.1,245.8,259.1,248.8,256,248.8z"/>
		</g>
	</g>
</g>
</svg>
