<?xml version="1.0" encoding="utf-8"?>
<!-- Generator: Adobe Illustrator 26.2.1, SVG Export Plug-In . SVG Version: 6.00 Build 0)  -->
<svg version="1.1" id="svg10932" xmlns:svg="http://www.w3.org/2000/svg"
	 xmlns="http://www.w3.org/2000/svg" xmlns:xlink="http://www.w3.org/1999/xlink" x="0px" y="0px" viewBox="0 0 682.7 682.7"
	 style="enable-background:new 0 0 682.7 682.7;" xml:space="preserve">
<style type="text/css">
	.st0{fill:#62D8F9;}
	.st1{fill:#00BEF7;}
	.st2{fill:#FBE77B;}
	.st3{fill:#FCDD2E;}
	.st4{fill:none;stroke:#000000;stroke-width:20;stroke-linecap:round;stroke-linejoin:round;stroke-miterlimit:13.3333;}
</style>
<path id="path10942" class="st0" d="M481.4,341.3l140.1-140.1l24.2,24.2L529.9,341.3H481.4z"/>
<path id="path10946" class="st0" d="M201.3,341.3L61.2,201.3l-24.2,24.2l115.8,115.8H201.3z"/>
<path id="path10948" class="st0" d="M529.9,672.7H152.8V341.3h377.1V672.7z"/>
<g id="g10952">
	<g id="g10958" transform="translate(114.5771,256)">
		<path id="path10960" class="st1" d="M38.2,85.3v24.2h335.4c7.4,0,13.5,6,13.5,13.5v293.6h28.3V85.3H38.2z"/>
	</g>
	<path id="path10962" class="st2" d="M368.3,672.7h-53.9V341.3h53.9V672.7z"/>
	<path id="path10964" class="st3" d="M368.3,341.3h-53.9v24.2h53.9V341.3z"/>
	<g id="g10966" transform="translate(346.915,413.585)">
		<path id="path10968" class="st2" d="M115.6-282.4c0,66.9-54.3,121.2-121.2,121.2s-121.2-54.3-121.2-121.2
			c0-66.9,54.3-121.2,121.2-121.2S115.6-349.3,115.6-282.4"/>
	</g>
	<g id="g10970" transform="translate(311.4092,485.6621)">
		<path id="path10972" class="st3" d="M103.8-450.5c15.7,20.5,25.1,46.1,25.1,73.9c0,66.9-54.3,121.2-121.2,121.2
			c-27.8,0-53.4-9.4-73.9-25.1c22.2,28.8,57,47.3,96.1,47.3c66.9,0,121.2-54.3,121.2-121.2C151.1-393.6,132.6-428.4,103.8-450.5"/>
	</g>
	<g id="g10974" transform="translate(235.7969,7.5)">
		<path id="path10976" class="st4" d="M78.6,665.2V333.8"/>
	</g>
	<g id="g10978" transform="translate(276.2031,256)">
		<path id="path10980" class="st4" d="M92.1,85.3v331.3"/>
	</g>
	<g id="g10982" transform="translate(114.5771,79.5)">
		<path id="path10984" class="st4" d="M38.2,497.2V261.8h377.1v65.8"/>
	</g>
	<g id="g10986" transform="translate(397.4229,171.4463)">
		<path id="path10988" class="st4" d="M132.5,282.6v218.6h-377.1v-49.1"/>
	</g>
	<g id="g11038" transform="translate(150.9434,256)">
		<path id="path11040" class="st4" d="M50.3,85.3L-89.8-54.7L-114-30.5L1.8,85.3"/>
	</g>
	<g id="g11042" transform="translate(361.0566,256)">
		<path id="path11044" class="st4" d="M120.4,85.3L260.4-54.7l24.2,24.2L168.8,85.3"/>
	</g>
	<g id="g11058" transform="translate(205.4551,489.166)">
		<path id="path11060" class="st4" d="M68.5-458.7c19.3-12.9,42.5-20.4,67.4-20.4c66.9,0,121.2,54.3,121.2,121.2
			c0,66.9-54.3,121.2-121.2,121.2S14.7-291,14.7-357.9c0-25.1,7.6-48.3,20.6-67.7"/>
	</g>
	<path d="M348.5,215.8c-2.8,0-4.7-0.9-6.6-2.8l-56.5-56.5c-2.8-2.8-3.8-6.6-1.9-10.4c0.9-3.8,4.7-5.7,8.5-5.7h28.3
		c7.5,0,15.1-2.8,19.8-8.5c5.7-4.7,8.5-12.2,8.5-19.8s-2.8-15.1-8.5-19.8c-4.7-5.7-12.2-8.5-19.8-8.5H292c-5.7,0-9.4-3.8-9.4-9.4
		c0-5.7,3.8-9.4,9.4-9.4h103.6c5.7,0,9.4,3.8,9.4,9.4c0,5.7-3.8,9.4-9.4,9.4h-37.7c5.7,8.5,9.4,17.9,9.4,28.3
		c0,12.2-4.7,24.5-14.1,33c-8.5,9.4-20.7,14.1-33,14.1h-5.7l40.5,40.5c3.8,3.8,3.8,9.4,0,13.2C353.2,214.9,351.3,215.8,348.5,215.8
		L348.5,215.8z M395.6,121.6H292c-5.7,0-9.4-3.8-9.4-9.4s3.8-9.4,9.4-9.4h103.6c5.7,0,9.4,3.8,9.4,9.4S401.2,121.6,395.6,121.6z"/>
</g>
</svg>
