<svg id="Layer_1" enable-background="new 0 0 512 512" viewBox="0 0 512 512" xmlns="http://www.w3.org/2000/svg"><path d="m486.42 132.89.34-.56c6.95-11.4 3.33-26.34-8.07-33.3-5.51-3.36-12.01-4.37-18.31-2.84s-11.62 5.4-14.98 10.91l-92.47 151.75v-180.67c0-22.84-18.57-41.42-41.39-41.42h-196.89v.02c-1.64 0-3.24.66-4.4 1.91l-93.65 101.08c-1.05 1.13-1.59 2.59-1.59 4.08h-.01v289.97c0 22.84 18.57 41.42 41.39 41.42h255.13c22.82 0 41.39-18.58 41.39-41.42v-81.86l127.07-208.53c5.67 6.46 6.77 16.12 2.07 23.84l-28.09 46.1c-1.72 2.83-.83 6.52 2 8.25.98.59 2.05.88 3.12.88 2.02 0 4-1.02 5.13-2.88l28.09-46.1c8.18-13.41 5.35-30.48-5.88-40.63zm-183.51 236.55 16.05 9.79-20.46 15.51zm3.82-11.73 88.5-145.23 20.87 12.73-88.5 145.23zm94.75-155.48 47.88-78.57 20.87 12.73-47.88 78.57zm61.72-94.38c3.19-.77 6.46-.27 9.23 1.42 5.76 3.51 7.58 11.05 4.08 16.81l-.04.07-20.87-12.73.04-.07c1.69-2.78 4.37-4.73 7.56-5.5zm-354.55-49.78v54.05c0 14.19-11.53 25.73-25.71 25.73h-48.2zm232.27 375.75c0 16.22-13.19 29.42-29.39 29.42h-255.14c-16.21 0-29.39-13.2-29.39-29.42v-283.97h55.94c20.79 0 37.71-16.92 37.71-37.73v-63.35h190.88c16.21 0 29.39 13.2 29.39 29.42v200.36l-47.56 78.04c-.49.81-.76 1.69-.85 2.57l-8.45 48.54c-.42 2.43.68 4.87 2.79 6.15.96.59 2.04.88 3.12.88 1.28 0 2.56-.41 3.62-1.22l39.63-30.03-.01-.01c.59-.45 1.11-1 1.51-1.65l6.19-10.16v62.16zm-180.33-272.95h13.2v66.67c0 3.31 2.69 6 6 6h38.36c3.31 0 6-2.69 6-6v-48.3h25.91v48.3c0 3.31 2.69 6 6 6h38.36c3.31 0 6-2.69 6-6v-66.67h13.2c2.4 0 4.58-1.44 5.52-3.65s.47-4.77-1.19-6.51l-24.74-25.76v-33.07c0-3.31-2.69-6-6-6h-21.42c-2.79 0-5.13 1.9-5.81 4.48l-18.55-19.31c-1.13-1.18-2.69-1.84-4.33-1.84s-3.2.67-4.33 1.84l-76.52 79.66c-1.67 1.73-2.14 4.3-1.19 6.51s3.13 3.65 5.53 3.65zm76.52-77 24.35 25.35c1.7 1.76 4.3 2.32 6.57 1.41 2.27-.92 3.76-3.12 3.76-5.57v-7.19h9.42v29.49c0 1.55.6 3.04 1.67 4.16l16.66 17.34h-5.12c-3.31 0-6 2.69-6 6v66.67h-26.36v-48.3c0-3.31-2.69-6-6-6h-37.91c-3.31 0-6 2.69-6 6v48.3h-26.36v-66.67c0-3.31-2.69-6-6-6h-5.12zm-169.98 183.19c0-3.31 2.69-6 6-6h116.51c3.31 0 6 2.69 6 6s-2.69 6-6 6h-116.51c-3.31 0-6-2.68-6-6zm0 47.23c0-3.31 2.69-6 6-6h221.29c3.31 0 6 2.69 6 6s-2.69 6-6 6h-221.29c-3.31 0-6-2.69-6-6zm214.88 47.22c0 3.31-2.69 6-6 6h-202.88c-3.31 0-6-2.69-6-6s2.69-6 6-6h202.88c3.31 0 6 2.68 6 6zm-14.57 47.22c0 3.31-2.69 6-6 6h-188.31c-3.31 0-6-2.69-6-6s2.69-6 6-6h188.32c3.31 0 5.99 2.68 5.99 6z"/></svg>