<?xml version="1.0" encoding="UTF-8" standalone="no"?>
<!-- Created with Inkscape (http://www.inkscape.org/) -->

<svg
   version="1.1"
   id="svg5427"
   xml:space="preserve"
   width="682.66669"
   height="682.66669"
   viewBox="0 0 682.66669 682.66669"
   xmlns="http://www.w3.org/2000/svg"
   xmlns:svg="http://www.w3.org/2000/svg"><defs
     id="defs5431"><clipPath
       clipPathUnits="userSpaceOnUse"
       id="clipPath5441"><path
         d="M 0,512 H 512 V 0 H 0 Z"
         id="path5439" /></clipPath></defs><g
     id="g5433"
     transform="matrix(1.3333333,0,0,-1.3333333,0,682.66667)"><g
       id="g5435"><g
         id="g5437"
         clip-path="url(#clipPath5441)"><g
           id="g5443"
           transform="translate(84,37)"><path
             d="M 0,0 V 465 H 398 V 0 c 0,-14.912 -12.088,-27 -27,-27 H -27 v 0 c 14.912,0 27,12.088 27,27"
             style="fill:#ffffff;fill-opacity:1;fill-rule:nonzero;stroke:none"
             id="path5445" /></g><g
           id="g5447"
           transform="translate(57,10)"><path
             d="M 0,0 V 0 C 14.912,0 27,12.088 27,27 V 406 H -27 V 27 C -27,12.088 -14.912,0 0,0"
             style="fill:#ffcb7c;fill-opacity:1;fill-rule:nonzero;stroke:none"
             id="path5449" /></g><path
           d="M 297,120.042 H 129 v 192 h 168 z"
           style="fill:#cee3ff;fill-opacity:1;fill-rule:nonzero;stroke:none"
           id="path5451" /><g
           id="g5453"
           transform="translate(298.8174,120.0417)"><path
             d="M 0,0 V 100.017 L -47.371,147.388 -102.085,92.673 -9.151,0 Z"
             style="fill:#d8ec84;fill-opacity:1;fill-rule:nonzero;stroke:none"
             id="path5455" /></g><g
           id="g5457"
           transform="translate(168.4909,240.8762)"><path
             d="m 0,0 -39.491,-39.459 v -81.376 h 160.667 z"
             style="fill:#d8ec84;fill-opacity:1;fill-rule:nonzero;stroke:none"
             id="path5459" /></g><g
           id="g5461"
           transform="translate(482,171.0417)"><path
             d="m 0,0 v -134.042 c 0,-14.911 -12.088,-27 -27,-27 h -398"
             style="fill:none;stroke:#000000;stroke-width:20;stroke-linecap:round;stroke-linejoin:round;stroke-miterlimit:10;stroke-dasharray:none;stroke-opacity:1"
             id="path5463" /></g><g
           id="g5465"
           transform="translate(84,61)"><path
             d="M 0,0 V 441 H 398 V 200.042"
             style="fill:none;stroke:#000000;stroke-width:20;stroke-linecap:round;stroke-linejoin:round;stroke-miterlimit:10;stroke-dasharray:none;stroke-opacity:1"
             id="path5467" /></g><g
           id="g5469"
           transform="translate(57,10)"><path
             d="M 0,0 V 0 C 14.912,0 27,12.088 27,27 V 406 H -27 V 27 C -27,12.088 -14.912,0 0,0 Z"
             style="fill:none;stroke:#000000;stroke-width:20;stroke-linecap:round;stroke-linejoin:round;stroke-miterlimit:10;stroke-dasharray:none;stroke-opacity:1"
             id="path5471" /></g><g
           id="g5473"
           transform="translate(129.05,372.981)"><path
             d="M 0,0 V 67.873 L 45.888,1.424 C 46.739,0.194 47.65,0.797 47.65,2.292 V 68"
             style="fill:none;stroke:#000000;stroke-width:20;stroke-linecap:round;stroke-linejoin:round;stroke-miterlimit:10;stroke-dasharray:none;stroke-opacity:1"
             id="path5475" /></g><g
           id="g5477"
           transform="translate(245.3528,440.981)"><path
             d="M 0,0 H -28.652 V -68 H 0"
             style="fill:none;stroke:#000000;stroke-width:20;stroke-linecap:round;stroke-linejoin:round;stroke-miterlimit:10;stroke-dasharray:none;stroke-opacity:1"
             id="path5479" /></g><g
           id="g5481"
           transform="translate(243.2402,406.9809)"><path
             d="M 0,0 H -26.54"
             style="fill:none;stroke:#000000;stroke-width:20;stroke-linecap:round;stroke-linejoin:round;stroke-miterlimit:10;stroke-dasharray:none;stroke-opacity:1"
             id="path5483" /></g><g
           id="g5485"
           transform="translate(434.7028,433.9905)"><path
             d="m 0,0 c 0,0 -12.202,10.257 -26.591,5.922 -13.212,-3.98 -15.06,-19.214 -5.501,-25.446 0,0 9.379,-4.184 19.782,-8.022 25.042,-9.237 14.255,-33.464 -5.904,-33.464 -10.096,0 -18.569,4.421 -23.697,10.08"
             style="fill:none;stroke:#000000;stroke-width:20;stroke-linecap:round;stroke-linejoin:round;stroke-miterlimit:10;stroke-dasharray:none;stroke-opacity:1"
             id="path5487" /></g><g
           id="g5489"
           transform="translate(283.2402,440.981)"><path
             d="m 0,0 13.15,-66.979 c 0.484,-1.371 2.413,-1.358 2.878,0.02 l 20.534,66.834"
             style="fill:none;stroke:#000000;stroke-width:20;stroke-linecap:round;stroke-linejoin:round;stroke-miterlimit:10;stroke-dasharray:none;stroke-opacity:1"
             id="path5491" /></g><g
           id="g5493"
           transform="translate(319.8018,440.981)"><path
             d="m 0,0 20.481,-66.979 c 0.483,-1.371 2.413,-1.358 2.878,0.02 l 13.203,66.834"
             style="fill:none;stroke:#000000;stroke-width:20;stroke-linecap:round;stroke-linejoin:round;stroke-miterlimit:10;stroke-dasharray:none;stroke-opacity:1"
             id="path5495" /></g><path
           d="M 297,120.042 H 129 v 192 h 168 z"
           style="fill:none;stroke:#000000;stroke-width:20;stroke-linecap:round;stroke-linejoin:round;stroke-miterlimit:10;stroke-dasharray:none;stroke-opacity:1"
           id="path5497" /><g
           id="g5499"
           transform="translate(347,120.0417)"><path
             d="M 0,0 H 90"
             style="fill:none;stroke:#000000;stroke-width:20;stroke-linecap:round;stroke-linejoin:round;stroke-miterlimit:10;stroke-dasharray:none;stroke-opacity:1"
             id="path5501" /></g><g
           id="g5503"
           transform="translate(347,264.0417)"><path
             d="M 0,0 H 90"
             style="fill:none;stroke:#000000;stroke-width:20;stroke-linecap:round;stroke-linejoin:round;stroke-miterlimit:10;stroke-dasharray:none;stroke-opacity:1"
             id="path5505" /></g><g
           id="g5507"
           transform="translate(347,216.0417)"><path
             d="M 0,0 H 90"
             style="fill:none;stroke:#000000;stroke-width:20;stroke-linecap:round;stroke-linejoin:round;stroke-miterlimit:10;stroke-dasharray:none;stroke-opacity:1"
             id="path5509" /></g><g
           id="g5511"
           transform="translate(347,312.0417)"><path
             d="M 0,0 H 90"
             style="fill:none;stroke:#000000;stroke-width:20;stroke-linecap:round;stroke-linejoin:round;stroke-miterlimit:10;stroke-dasharray:none;stroke-opacity:1"
             id="path5513" /></g><g
           id="g5515"
           transform="translate(347,168.0417)"><path
             d="M 0,0 H 90"
             style="fill:none;stroke:#000000;stroke-width:20;stroke-linecap:round;stroke-linejoin:round;stroke-miterlimit:10;stroke-dasharray:none;stroke-opacity:1"
             id="path5517" /></g><g
           id="g5519"
           transform="translate(129,64)"><path
             d="M 0,0 H 308"
             style="fill:none;stroke:#000000;stroke-width:20;stroke-linecap:round;stroke-linejoin:round;stroke-miterlimit:10;stroke-dasharray:none;stroke-opacity:1"
             id="path5521" /></g><g
           id="g5523"
           transform="translate(130.2824,202.6677)"><path
             d="M 0,0 38.209,38.209 155.735,-79.317"
             style="fill:none;stroke:#000000;stroke-width:20;stroke-linecap:round;stroke-linejoin:round;stroke-miterlimit:10;stroke-dasharray:none;stroke-opacity:1"
             id="path5525" /></g><g
           id="g5527"
           transform="translate(196.573,212.7941)"><path
             d="M 0,0 54.636,54.636 99.065,10.206"
             style="fill:none;stroke:#000000;stroke-width:20;stroke-linecap:round;stroke-linejoin:round;stroke-miterlimit:10;stroke-dasharray:none;stroke-opacity:1"
             id="path5529" /></g><g
           id="g5531"
           transform="translate(482,216.0417)"><path
             d="M 0,0 V 0"
             style="fill:none;stroke:#000000;stroke-width:20;stroke-linecap:round;stroke-linejoin:round;stroke-miterlimit:10;stroke-dasharray:none;stroke-opacity:1"
             id="path5533" /></g></g></g></g></svg>
