<?xml version="1.0" encoding="UTF-8"?>
<svg xmlns="http://www.w3.org/2000/svg" xmlns:xlink="http://www.w3.org/1999/xlink" version="1.1" id="Capa_1" x="0px" y="0px" viewBox="0 0 512 512" style="enable-background:new 0 0 512 512;" xml:space="preserve" width="512" height="512">
<g>
	<path style="fill:none;stroke:#000000;stroke-width:15;stroke-linecap:round;stroke-linejoin:round;stroke-miterlimit:10;" d="&#10;&#9;&#9;M7.544,262.742c1.472,56.004,21.346,107.393,53.89,148.256"/>
	<path style="fill:none;stroke:#000000;stroke-width:15;stroke-linecap:round;stroke-linejoin:round;stroke-miterlimit:10;" d="&#10;&#9;&#9;M340.856,22.276C314.38,12.709,285.792,7.5,255.956,7.5c-127.475,0-232.532,95.985-246.84,219.624"/>
	<path style="fill:none;stroke:#000000;stroke-width:15;stroke-linecap:round;stroke-linejoin:round;stroke-miterlimit:10;" d="&#10;&#9;&#9;M416.054,65.65c-13.29-11.175-27.774-20.977-43.237-29.193"/>
	<path style="fill:none;stroke:#000000;stroke-width:15;stroke-linecap:round;stroke-linejoin:round;stroke-miterlimit:10;" d="&#10;&#9;&#9;M493.528,329.075c7.347-23.897,11.187-49.328,10.914-75.698c-0.594-57.471-20.478-110.098-53.49-151.787"/>
	<path style="fill:none;stroke:#000000;stroke-width:15;stroke-linecap:round;stroke-linejoin:round;stroke-miterlimit:10;" d="&#10;&#9;&#9;M277.746,503.557c44.699-3.886,86.006-19.612,120.78-44.015l0.001,0.011l68.108,43.778c7.241,3.805,15.739-2.219,14.545-10.312&#10;&#9;&#9;l-14.38-105.44l-0.019-0.002c5.186-8.292,9.898-16.912,14.096-25.822"/>
	<path style="fill:none;stroke:#000000;stroke-width:15;stroke-linecap:round;stroke-linejoin:round;stroke-miterlimit:10;" d="&#10;&#9;&#9;M96.762,447.116c39.861,33.212,90.393,54.157,145.983,57.041"/>
	<path style="fill:none;stroke:#000000;stroke-width:15;stroke-linecap:round;stroke-linejoin:round;stroke-miterlimit:10;" d="&#10;&#9;&#9;M118.563,424.623c37.46,30.564,85.297,48.893,137.414,48.893c56.165,0,107.358-21.287,145.952-56.234"/>
	<path style="fill:none;stroke:#000000;stroke-width:15;stroke-linecap:round;stroke-linejoin:round;stroke-miterlimit:10;" d="&#10;&#9;&#9;M394.357,88.187c-37.605-31.05-85.825-49.703-138.401-49.703c-56.165,0-107.358,21.287-145.952,56.234"/>
	<path style="fill:none;stroke:#000000;stroke-width:15;stroke-linecap:round;stroke-linejoin:round;stroke-miterlimit:10;" d="&#10;&#9;&#9;M130.004,417.108c-20.854-10.238-29.153-18.537-39.391-39.391c-10.238,20.854-18.537,29.153-39.391,39.391&#10;&#9;&#9;c20.854,10.238,29.153,18.537,39.391,39.391C100.851,435.645,109.15,427.346,130.004,417.108z"/>
	<path style="fill:none;stroke:#000000;stroke-width:15;stroke-linecap:round;stroke-linejoin:round;stroke-miterlimit:10;" d="&#10;&#9;&#9;M461.784,94.892c-20.854-10.238-29.153-18.537-39.391-39.391c-10.238,20.854-18.537,29.153-39.391,39.391&#10;&#9;&#9;c20.854,10.238,29.153,18.537,39.391,39.391C432.631,113.429,440.93,105.13,461.784,94.892z"/>
	<g>
		<g>
			<path style="fill:none;stroke:#000000;stroke-width:15;stroke-linecap:round;stroke-linejoin:round;stroke-miterlimit:10;" d="&#10;&#9;&#9;&#9;&#9;M351.811,235.258l24.152-63.417c0.294-0.773,1.036-1.284,1.863-1.284l0,0c0.829,0,1.572,0.514,1.865,1.29l23.931,63.411"/>
			
				<line style="fill:none;stroke:#000000;stroke-width:15;stroke-linecap:round;stroke-linejoin:round;stroke-miterlimit:10;" x1="359.496" y1="219.144" x2="396.062" y2="219.144"/>
		</g>
		<g>
			
				<polyline style="fill:none;stroke:#000000;stroke-width:15;stroke-linecap:round;stroke-linejoin:round;stroke-miterlimit:10;" points="&#10;&#9;&#9;&#9;&#9;431.056,170.557 431.056,235.258 453.731,235.258 &#9;&#9;&#9;"/>
		</g>
		<g>
			
				<line style="fill:none;stroke:#000000;stroke-width:15;stroke-linecap:round;stroke-linejoin:round;stroke-miterlimit:10;" x1="323.818" y1="170.557" x2="323.818" y2="235.258"/>
		</g>
		<g>
			
				<polyline style="fill:none;stroke:#000000;stroke-width:15;stroke-linecap:round;stroke-linejoin:round;stroke-miterlimit:10;" points="&#10;&#9;&#9;&#9;&#9;219.636,170.557 192.374,170.557 192.374,235.258 219.636,235.258 &#9;&#9;&#9;"/>
			
				<line style="fill:none;stroke:#000000;stroke-width:15;stroke-linecap:round;stroke-linejoin:round;stroke-miterlimit:10;" x1="216.588" y1="202.907" x2="192.529" y2="202.907"/>
		</g>
		<g>
			<path style="fill:none;stroke:#000000;stroke-width:15;stroke-linecap:round;stroke-linejoin:round;stroke-miterlimit:10;" d="&#10;&#9;&#9;&#9;&#9;M294.379,176.082c-5.163-3.488-11.387-5.525-18.087-5.525c-17.867,0-32.35,14.484-32.35,32.35s14.484,32.35,32.35,32.35&#10;&#9;&#9;&#9;&#9;c7.256,0,13.225-2.389,17.755-6.423c0.937-0.835,1.813-1.74,2.626-2.709"/>
		</g>
		<g>
			<path style="fill:none;stroke:#000000;stroke-width:15;stroke-linecap:round;stroke-linejoin:round;stroke-miterlimit:10;" d="&#10;&#9;&#9;&#9;&#9;M98.059,177.208c0,0-11.61-9.759-25.301-5.635c-12.571,3.787-14.258,18.477-5.235,24.211c4.286,2.724,8.768,4.207,18.823,7.632&#10;&#9;&#9;&#9;&#9;c22.657,7.719,13.563,31.84-5.618,31.84c-9.606,0-17.667-4.206-22.547-9.591"/>
		</g>
		<g>
			
				<line style="fill:none;stroke:#000000;stroke-width:15;stroke-linecap:round;stroke-linejoin:round;stroke-miterlimit:10;" x1="128.25" y1="207.128" x2="128.25" y2="235.258"/>
			<path style="fill:none;stroke:#000000;stroke-width:15;stroke-linecap:round;stroke-linejoin:round;stroke-miterlimit:10;" d="&#10;&#9;&#9;&#9;&#9;M164.848,188.816c0,10.084-8.532,18.312-18.616,18.312H128.25v-36.571h17.981C156.316,170.557,164.848,178.732,164.848,188.816z"/>
		</g>
	</g>
	<g>
		<g>
			
				<polyline style="fill:none;stroke:#000000;stroke-width:15;stroke-linecap:round;stroke-linejoin:round;stroke-miterlimit:10;" points="&#10;&#9;&#9;&#9;&#9;230.45,276.742 204.227,276.742 204.227,341.443 &#9;&#9;&#9;"/>
			
				<line style="fill:none;stroke:#000000;stroke-width:15;stroke-linecap:round;stroke-linejoin:round;stroke-miterlimit:10;" x1="204.707" y1="308.48" x2="228.367" y2="308.48"/>
		</g>
		<g>
			
				<polyline style="fill:none;stroke:#000000;stroke-width:15;stroke-linecap:round;stroke-linejoin:round;stroke-miterlimit:10;" points="&#10;&#9;&#9;&#9;&#9;283.89,276.742 257.666,276.742 257.666,341.443 &#9;&#9;&#9;"/>
			
				<line style="fill:none;stroke:#000000;stroke-width:15;stroke-linecap:round;stroke-linejoin:round;stroke-miterlimit:10;" x1="258.147" y1="308.48" x2="281.806" y2="308.48"/>
		</g>
		<g>
			
				<polyline style="fill:none;stroke:#000000;stroke-width:15;stroke-linecap:round;stroke-linejoin:round;stroke-miterlimit:10;" points="&#10;&#9;&#9;&#9;&#9;337.244,276.742 309.982,276.742 309.982,341.443 337.244,341.443 &#9;&#9;&#9;"/>
			
				<line style="fill:none;stroke:#000000;stroke-width:15;stroke-linecap:round;stroke-linejoin:round;stroke-miterlimit:10;" x1="334.195" y1="309.093" x2="310.137" y2="309.093"/>
		</g>
		<g>
			
				<line style="fill:none;stroke:#000000;stroke-width:15;stroke-linecap:round;stroke-linejoin:round;stroke-miterlimit:10;" x1="373.028" y1="310.457" x2="400.207" y2="341.443"/>
			
				<line style="fill:none;stroke:#000000;stroke-width:15;stroke-linecap:round;stroke-linejoin:round;stroke-miterlimit:10;" x1="365.266" y1="310.457" x2="365.266" y2="341.443"/>
			<path style="fill:none;stroke:#000000;stroke-width:15;stroke-linecap:round;stroke-linejoin:round;stroke-miterlimit:10;" d="&#10;&#9;&#9;&#9;&#9;M400.207,293.557c0,9.287-8.143,16.9-17.767,16.9h-17.174v-33.715h17.174C392.064,276.742,400.207,284.271,400.207,293.557z"/>
		</g>
		
			<circle style="fill:none;stroke:#000000;stroke-width:15;stroke-linecap:round;stroke-linejoin:round;stroke-miterlimit:10;" cx="144.056" cy="309.093" r="32.35"/>
	</g>
	<path style="fill:none;stroke:#000000;stroke-width:15;stroke-linecap:round;stroke-linejoin:round;stroke-miterlimit:10;" d="&#10;&#9;&#9;M466.796,387.586c-7.241,11.578-15.41,22.517-24.401,32.712"/>
	<g>
		
			<line style="fill:none;stroke:#000000;stroke-width:15;stroke-linecap:round;stroke-linejoin:round;stroke-miterlimit:10;" x1="285.667" y1="397.089" x2="337.244" y2="397.089"/>
		
			<line style="fill:none;stroke:#000000;stroke-width:15;stroke-linecap:round;stroke-linejoin:round;stroke-miterlimit:10;" x1="174.668" y1="397.089" x2="226.245" y2="397.089"/>
		<path style="fill:none;stroke:#000000;stroke-width:15;stroke-linecap:round;stroke-linejoin:round;stroke-miterlimit:10;" d="&#10;&#9;&#9;&#9;M284.667,397.089c-15.2-7.462-21.249-13.511-28.711-28.711c-7.462,15.2-13.511,21.249-28.711,28.711&#10;&#9;&#9;&#9;c15.2,7.462,21.249,13.511,28.711,28.711C263.418,410.601,269.467,404.551,284.667,397.089z"/>
		
			<line style="fill:none;stroke:#000000;stroke-width:15;stroke-linecap:round;stroke-linejoin:round;stroke-miterlimit:10;" x1="285.667" y1="112.186" x2="337.244" y2="112.186"/>
		
			<line style="fill:none;stroke:#000000;stroke-width:15;stroke-linecap:round;stroke-linejoin:round;stroke-miterlimit:10;" x1="174.668" y1="112.186" x2="226.245" y2="112.186"/>
		<path style="fill:none;stroke:#000000;stroke-width:15;stroke-linecap:round;stroke-linejoin:round;stroke-miterlimit:10;" d="&#10;&#9;&#9;&#9;M284.667,112.186c-15.2-7.462-21.249-13.511-28.711-28.711c-7.462,15.2-13.511,21.249-28.711,28.711&#10;&#9;&#9;&#9;c15.2,7.462,21.249,13.511,28.711,28.711C263.418,125.697,269.467,119.648,284.667,112.186z"/>
	</g>
</g>















</svg>
