<svg enable-background="new 0 0 512 512" height="512" viewBox="0 0 512 512" width="512" xmlns="http://www.w3.org/2000/svg" fill="#116d42"><path d="m25 373.636h-10c-8.284 0-15-6.716-15-15v-260c0-8.284 6.716-15 15-15h10c8.284 0 15 6.716 15 15v260c0 8.284-6.716 15-15 15z"/><path d="m497 373.636h-10c-8.284 0-15-6.716-15-15v-260c0-8.284 6.716-15 15-15h10c8.284 0 15 6.716 15 15v260c0 8.285-6.716 15-15 15z"/><path d="m393.684 313.802-15.603-42.869-11.344-31.169-2.501-6.872-64.603-33.024-32.514-7.397-36.265 36.265c-12.476 12.476-28.867 18.713-45.254 18.715-16.391.001-32.777-6.237-45.255-18.716-12.078-12.077-18.729-28.148-18.729-45.254 0-17.105 6.651-33.178 18.729-45.255l24.59-24.59h-88.935c-2.087 0-4.124.445-6 1.264v227.494l56.634 27.125 13.332 36.629c6.375 17.515 25.742 26.547 43.258 20.171 17.516-6.375 26.547-25.742 20.171-43.258v-.001l.001.001c6.375 17.516 25.742 26.547 43.258 20.172 17.516-6.375 26.547-25.742 20.171-43.258l-.001-.002.001.001c6.375 17.516 25.742 26.547 43.258 20.172 17.515-6.375 26.547-25.742 20.171-43.258l-.001-.002.001.002c6.375 17.516 25.742 26.547 43.258 20.171 17.516-6.374 26.547-25.742 20.172-43.257z"/><path d="m387.109 108.532c-16.054-16.054-37.399-24.895-60.104-24.895h-64.791c-16.027 0-31.094 6.24-42.426 17.573l-58.23 58.23c-13.257 13.257-13.257 34.826 0 48.083s34.826 13.257 48.083 0l44.074-44.074c2.445-2.445 5.918-3.447 9.29-2.68l46.942 10.68 78.446 40.101 33.482 91.992c3.626 9.961 4.587 20.249 3.278 30.094h16.847v-220h-49.787z"/></svg>