<?xml version="1.0" encoding="UTF-8" standalone="no"?>
<!-- Created with Inkscape (http://www.inkscape.org/) -->

<svg
   version="1.1"
   id="svg7062"
   xml:space="preserve"
   width="682.66669"
   height="682.66669"
   viewBox="0 0 682.66669 682.66669"
   xmlns="http://www.w3.org/2000/svg"
   xmlns:svg="http://www.w3.org/2000/svg"><defs
     id="defs7066"><clipPath
       clipPathUnits="userSpaceOnUse"
       id="clipPath7076"><path
         d="M 0,512 H 512 V 0 H 0 Z"
         id="path7074" /></clipPath></defs><g
     id="g7068"
     transform="matrix(1.3333333,0,0,-1.3333333,0,682.66667)"><g
       id="g7070"><g
         id="g7072"
         clip-path="url(#clipPath7076)"><g
           id="g7078"
           transform="translate(21.0381,142.9292)"><path
             d="m 0,0 c 2.358,-21.51 19.781,-38.315 41.372,-39.827 1.786,-0.126 3.561,-0.251 5.334,-0.366 13.165,-0.892 23.399,-11.826 23.399,-25.024 v -49.889 c 0,-16.782 19.209,-26.307 32.558,-16.142 24.36,18.557 56.769,46.157 76.653,74.776 4.705,6.778 12.478,10.727 20.732,10.681 61.222,-0.309 122.444,1.66 183.666,5.964 17.068,1.191 31.561,11.917 38.017,27.006 1.717,3.96 2.863,8.242 3.355,12.717 9.066,82.825 9.066,165.66 0,248.495 -2.358,21.487 -19.793,38.212 -41.35,39.723 -91.203,6.399 -182.394,7.681 -273.587,3.846 C 87.231,291.01 64.302,289.729 41.384,288.114 19.816,286.603 2.37,269.878 0.012,248.391 -9.055,165.59 -9.055,82.8 0,0"
             style="fill:#f4dd45;fill-opacity:1;fill-rule:nonzero;stroke:none"
             id="path7080" /></g><g
           id="g7082"
           transform="translate(60.3262,391.3223)"><path
             d="m 0,0 c -9.064,-82.804 -9.064,-165.589 0,-248.393 2.363,-21.509 19.773,-38.31 41.374,-39.824 1.772,-0.129 3.564,-0.24 5.336,-0.369 13.164,-0.886 23.392,-11.816 23.392,-25.017 v -49.885 c 0,-3.415 0.794,-6.517 2.178,-9.231 -3.064,-2.419 -6.037,-4.727 -8.917,-6.924 -13.348,-10.154 -32.55,-0.628 -32.55,16.155 v 49.885 c 0,13.201 -10.246,24.131 -23.41,25.017 -1.772,0.129 -3.545,0.24 -5.335,0.369 -21.583,1.514 -39.011,18.315 -41.356,39.824 -9.065,82.804 -9.065,165.589 0,248.393 2.363,21.49 19.81,38.217 41.374,39.731 22.912,1.606 45.843,2.899 68.772,3.84 40.84,1.718 81.697,2.419 122.536,2.068 C 165.645,45.436 137.896,44.735 110.146,43.571 87.235,42.63 64.305,41.337 41.374,39.731 19.811,38.217 2.363,21.49 0,0"
             style="fill:#eab14d;fill-opacity:1;fill-rule:nonzero;stroke:none"
             id="path7084" /></g><g
           id="g7086"
           transform="translate(85.6201,93.4102)"><path
             d="m 0,0 c -4.25,5.3 -10.62,8.84 -17.88,9.33 -1.77,0.11 -3.55,0.23 -5.33,0.36 -21.59,1.51 -39.02,18.32 -41.38,39.82 -9.05,82.81 -9.05,165.6 0.01,248.4 2.36,21.49 19.809,38.22 41.38,39.72 22.929,1.62 45.849,2.9 68.77,3.85 84.35,3.55 168.7,2.71 253.06,-2.5"
             style="fill:none;stroke:#000000;stroke-width:15;stroke-linecap:round;stroke-linejoin:round;stroke-miterlimit:10;stroke-dasharray:none;stroke-opacity:1"
             id="path7088" /></g><g
           id="g7090"
           transform="translate(447.5303,377.7002)"><path
             d="m 0,0 c 7.63,-78.3 7.16,-156.59 -1.4,-234.87 -0.5,-4.47 -1.64,-8.76 -3.361,-12.72 -6.46,-15.09 -20.949,-25.82 -38.019,-27.01 -61.231,-4.3 -122.441,-6.27 -183.66,-5.96 -8.26,0.04 -16.031,-3.91 -20.73,-10.69 -19.891,-28.61 -52.301,-56.21 -76.66,-74.77 -13.34,-10.16 -32.55,-0.64 -32.55,16.15 v 33.24"
             style="fill:none;stroke:#000000;stroke-width:15;stroke-linecap:round;stroke-linejoin:round;stroke-miterlimit:10;stroke-dasharray:none;stroke-opacity:1"
             id="path7092" /></g><g
           id="g7094"
           transform="translate(75.9463,351.0527)"><path
             d="M 0,0 H 174.356"
             style="fill:none;stroke:#000000;stroke-width:15;stroke-linecap:round;stroke-linejoin:round;stroke-miterlimit:10;stroke-dasharray:none;stroke-opacity:1"
             id="path7096" /></g><g
           id="g7098"
           transform="translate(75.9463,313.3892)"><path
             d="M 0,0 H 174.356"
             style="fill:none;stroke:#000000;stroke-width:15;stroke-linecap:round;stroke-linejoin:round;stroke-miterlimit:10;stroke-dasharray:none;stroke-opacity:1"
             id="path7100" /></g><g
           id="g7102"
           transform="translate(75.9463,275.7261)"><path
             d="M 0,0 H 174.356"
             style="fill:none;stroke:#000000;stroke-width:15;stroke-linecap:round;stroke-linejoin:round;stroke-miterlimit:10;stroke-dasharray:none;stroke-opacity:1"
             id="path7104" /></g><g
           id="g7106"
           transform="translate(75.9463,238.0625)"><path
             d="M 0,0 H 174.356"
             style="fill:none;stroke:#000000;stroke-width:15;stroke-linecap:round;stroke-linejoin:round;stroke-miterlimit:10;stroke-dasharray:none;stroke-opacity:1"
             id="path7108" /></g><g
           id="g7110"
           transform="translate(75.9463,200.3994)"><path
             d="M 0,0 H 68.362"
             style="fill:none;stroke:#000000;stroke-width:15;stroke-linecap:round;stroke-linejoin:round;stroke-miterlimit:10;stroke-dasharray:none;stroke-opacity:1"
             id="path7112" /></g><g
           id="g7114"
           transform="translate(466.0107,446.8271)"><path
             d="m 0,0 14.245,26.371 c 3.6,6.666 1.11,15.002 -5.555,18.602 l -20.453,11.048 c -6.674,3.605 -15.002,1.111 -18.601,-5.554 L -44.609,24.096"
             style="fill:#dfeaef;fill-opacity:1;fill-rule:nonzero;stroke:none"
             id="path7116" /></g><g
           id="g7118"
           transform="translate(471.0186,493.7896)"><path
             d="m 0,0 c -6.675,3.605 -15.002,1.111 -18.602,-5.554 l -14.245,-26.371 -16.77,9.058 14.245,26.371 c 3.6,6.666 11.927,9.16 18.601,5.555 z"
             style="fill:#b4d0d5;fill-opacity:1;fill-rule:nonzero;stroke:none"
             id="path7120" /></g><g
           id="g7122"
           transform="translate(415.8359,311.1509)"><path
             d="m 0,0 c -48.695,-90.154 -106.172,-153.527 -128.374,-141.534 -22.201,11.992 -0.716,94.805 47.98,184.958 24.692,45.712 51.645,84.544 75.102,110.145 6.375,6.959 16.675,8.664 24.979,4.179 l 21.05,-11.371 C 49.042,141.892 53.263,132.344 50.938,123.196 42.389,89.543 24.691,45.712 0,0"
             style="fill:#6bbef6;fill-opacity:1;fill-rule:nonzero;stroke:none"
             id="path7124" /></g><g
           id="g7126"
           transform="translate(287.4619,169.6167)"><path
             d="m 0,0 c -22.201,11.992 -0.716,94.805 47.98,184.958 24.692,45.713 51.642,84.542 75.1,110.151 6.376,6.953 16.679,8.657 24.98,4.173 l 7.628,-4.12 c -2.281,1.232 -7.312,-3.32 -12.21,-11.071 C 125.414,255.568 101.819,214.927 77.128,169.215 28.432,79.062 -6.104,3.297 0,0"
             style="fill:#528ecb;fill-opacity:1;fill-rule:nonzero;stroke:none"
             id="path7128" /></g><g
           id="g7130"
           transform="translate(466.0107,446.8271)"><path
             d="m 0,0 14.245,26.371 c 3.6,6.666 1.11,15.002 -5.555,18.602 l -20.453,11.048 c -6.674,3.605 -15.002,1.111 -18.601,-5.554 L -44.609,24.096"
             style="fill:none;stroke:#000000;stroke-width:15;stroke-linecap:round;stroke-linejoin:round;stroke-miterlimit:10;stroke-dasharray:none;stroke-opacity:1"
             id="path7132" /></g><g
           id="g7134"
           transform="translate(469.8789,453.9878)"><path
             d="M 0,0 C 13.447,-5.15 31.659,-17.354 27.193,-45.094 20.274,-88.017 -62.396,-180.819 -59.661,-205.892"
             style="fill:none;stroke:#000000;stroke-width:15;stroke-linecap:round;stroke-linejoin:round;stroke-miterlimit:10;stroke-dasharray:none;stroke-opacity:1"
             id="path7136" /></g><g
           id="g7138"
           transform="translate(306.6729,295.0347)"><path
             d="M 0,0 75.143,-40.588"
             style="fill:none;stroke:#000000;stroke-width:15;stroke-linecap:butt;stroke-linejoin:round;stroke-miterlimit:10;stroke-dasharray:none;stroke-opacity:1"
             id="path7140" /></g><g
           id="g7142"
           transform="translate(287.458,169.6157)"><path
             d="M 0,0 -5.295,-8.624"
             style="fill:none;stroke:#000000;stroke-width:15;stroke-linecap:round;stroke-linejoin:round;stroke-miterlimit:10;stroke-dasharray:none;stroke-opacity:1"
             id="path7144" /></g><g
           id="g7146"
           transform="translate(361.5596,399.1602)"><path
             d="m 0,0 c 16.75,26.34 33.62,48.79 48.98,65.56 6.38,6.96 16.68,8.66 24.98,4.18 L 95.011,58.37 C 103.32,53.88 107.54,44.33 105.21,35.19 96.66,1.53 78.971,-42.3 54.28,-88.01 5.58,-178.16 -51.899,-241.54 -74.1,-229.54 c -22.2,11.99 -0.71,94.8 47.981,184.96 2.949,5.46 5.93,10.83 8.939,16.08"
             style="fill:none;stroke:#000000;stroke-width:15;stroke-linecap:round;stroke-linejoin:round;stroke-miterlimit:10;stroke-dasharray:none;stroke-opacity:1"
             id="path7148" /></g></g></g></g></svg>
