<svg clip-rule="evenodd" fill-rule="evenodd" height="173.397mm" image-rendering="optimizeQuality" shape-rendering="geometricPrecision" text-rendering="geometricPrecision" viewBox="0 0 173.397 173.397" width="173.397mm" xmlns="http://www.w3.org/2000/svg"><g id="Layer_x0020_1"><g id="_281774472"><g><path id="_281776920" d="m53.6815 48.9518h66.0343v-9.9975c0-15.4646-12.6528-28.1171-28.117-28.1171h-9.8002c-15.4642 0-28.1171 12.6529-28.1171 28.1171z" fill="#a35623"/><path id="_281776368" d="m62.1663 63.0948h-6.2884c-3.788 0-6.8874-3.0994-6.8874-6.8874v-4.3842c0-3.7882 3.0993-6.8876 6.8874-6.8876h4.4609l1.8275 1.8275z" fill="#f3af75"/><path id="_281775456" d="m111.231 63.0948h6.2883c3.7882 0 6.8876-3.0994 6.8876-6.8874v-4.3842c0-3.7882-3.0996-6.8876-6.8876-6.8876h-4.4608l-1.8275 1.8275z" fill="#f3af75"/><path id="_281775672" d="m69.9454 83.4069.0001 12.1519 16.753 25.1542 16.7535-25.1541v-12.152z" fill="#fdc28c"/><path id="_281775504" d="m69.9454 83.4069v5.4823c4.5627 3.7737 10.4054 6.0479 16.7534 6.0479 6.3478 0 12.1902-2.2741 16.7529-6.0478v-5.4824z" fill="#f3af75"/><path id="_281775792" d="m86.6988 89.4545c14.4979 0 26.3598-11.8618 26.3598-26.3597v-18.1592c-16.6553 2.9621-34.1614-6.3818-38.1755-9.0143-.6397-.4193-1.3375-.5552-2.0876-.4065-6.967 1.381-12.4567 9.4208-12.4567 9.4208v18.1592c0 14.4981 11.8618 26.3597 26.36 26.3597z" fill="#fdc28c"/><path id="_281775720" d="m86.6986 118.886-16.753-25.1542h-9.1674c-18.9277 0-34.4141 15.4864-34.4141 34.4143v34.4143h120.669v-34.4143c0-18.9279-15.4864-34.4143-34.4141-34.4143h-9.1674z" fill="#2093c7"/><rect id="_281775576" fill="#5c5e71" height="11.789" rx="4.981" width="17.28" x="80.187" y="68.184"/><path id="_281775168" d="m116.987 63.0948h.5321c3.7882 0 6.8876-3.0994 6.8876-6.8874v-2.1883h-7.4197z" fill="#f3af75"/></g><g><path id="_281775144" d="m28.0539 160.87h117.289v-32.7202c0-18.0445-14.6795-32.7235-32.7226-32.7235h-8.2609l-16.2514 24.4015c-.3143.4693-.8433.7551-1.4095.7551-.5665-.0001-1.0954-.2857-1.4097-.755l-16.2512-24.4016h-8.2612c-18.0431 0-32.723 14.6792-32.723 32.7237l.0001 32.72zm118.983 3.3867h-120.676c-.9348 0-1.6934-.7549-1.6934-1.6932l.0001-34.4137c0-19.9106 16.1987-36.1101 36.1095-36.1101l9.168-.0001c.5664 0 1.0953.2823 1.4093.755l15.3448 23.0398 15.3446-23.0398c.3139-.4729.843-.7549 1.4092-.7549l9.1681-.0001c19.9108 0 36.1091 16.1996 36.1091 36.1104l.0002 34.4134c0 .9383-.7583 1.6934-1.6933 1.6933z"/><path id="_281775048" d="m69.9448 95.4263c-.9352 0-1.6933-.7585-1.6933-1.6933l.0001-10.3259c0-.9348.758-1.6932 1.6932-1.6932.9353 0 1.6933.7584 1.6933 1.6933l.0002 10.3258c0 .9347-.7583 1.6933-1.6935 1.6933z"/><path id="_281774760" d="m103.453 95.4263c-.9353 0-1.6935-.7585-1.6935-1.6933l.0002-10.3259c0-.9348.758-1.6932 1.6932-1.6932.9353 0 1.6937.7584 1.6937 1.6933v10.3258c0 .9347-.7585 1.6933-1.6936 1.6933z"/><path id="_281775264" d="m86.6989 91.1506c-15.4696 0-28.0546-12.587-28.0546-28.0564.0001-.935.7581-1.6933 1.6929-1.6933.9353-.0001 1.6934.7585 1.6934 1.6933.0001 13.6032 11.0663 24.6698 24.6683 24.6698 13.6019-.0002 24.6676-11.0666 24.6676-24.6698.0002-.935.7582-1.6933 1.6934-1.6933.9353-.0001 1.6933.7585 1.6933 1.6933 0 15.4693-12.585 28.0565-28.0543 28.0564z"/><path id="_281775240" d="m114.753 61.4008h2.7684c2.8641 0 5.1942-2.3282 5.1942-5.1928l.0001-4.3852c0-2.8644-2.3302-5.1962-5.1944-5.1962l-2.7683-.0001zm2.7684 3.3867h-4.4617c-.9352 0-1.6934-.7584-1.6934-1.6933l.0002-18.1611c0-.9349.758-1.6932 1.6932-1.6932l4.4617-.0001c4.7313 0 8.5808 3.8524 8.5808 8.5832v4.3849c0 4.7307-3.8495 8.5797-8.5808 8.5796z"/><path id="_281774808" d="m55.876 46.6265c-2.864 0-5.1943 2.332-5.1943 5.1965v4.3849c0 2.8646 2.3301 5.193 5.1943 5.193l2.768-.0001v-14.7743zm4.4613 18.161h-4.4613c-4.7313 0-8.5813-3.8487-8.5813-8.5795l.0001-4.3852c0-4.7307 3.8498-8.5829 8.5812-8.5829l4.4613-.0001c.9352 0 1.6936.7586 1.6936 1.6934v18.1609c0 .935-.7585 1.6935-1.6936 1.6934z"/><path id="_281775120" d="m119.718 46.9899c-.9352 0-1.6933-.7584-1.6933-1.6933v-6.343c0-14.5733-11.8544-26.4265-26.4252-26.4265l-9.8005-.0001c-14.5711 0-26.4255 11.8534-26.4255 26.4267v6.3429c0 .9348-.7582 1.6934-1.6934 1.6934-.9351-.0001-1.6933-.7585-1.6933-1.6934l.0001-6.343c0-16.4394 13.3737-29.8132 29.8121-29.8132l9.8006-.0001c16.4384 0 29.8117 13.3739 29.8117 29.8134l.0002 6.3429c0 .9348-.7583 1.6934-1.6935 1.6933z"/><path id="_281775096" d="m106.234 47.2121c-16.9966.0036-32.1089-9.7648-32.2803-9.8777-.2674-.1729-.5162-.2222-.8298-.1587-6.2165 1.231-11.3372 8.6395-11.3884 8.7136-.527.7726-1.5811.9701-2.353.4445-.7725-.5292-.9712-1.5805-.4434-2.3531.24-.3528 5.9668-8.6289 13.5262-10.1282 1.1801-.2365 2.3371-.0106 3.345.6527 5.1179 3.3548 21.7301 11.4688 36.9531 8.7629.9201-.1658 1.7995.4481 1.9636 1.3688.1638.9207-.4498 1.8027-1.3709 1.965-2.3854.4233-4.7734.6103-7.1221.6102z"/><path id="_281774400" d="m115.871 75.773h-18.4037c-.9348 0-1.693-.7584-1.693-1.6933.0001-.935.7581-1.6933 1.693-1.6933l18.4037-.0001c2.2497 0 4.0798-1.8308 4.0798-4.0815l.0001-6.5901c0-.9348.7581-1.6932 1.6933-1.6932s1.6933.7585 1.6933 1.6934l.0001 6.5897c0 4.117-3.3494 7.4685-7.4666 7.4684z"/><path id="_281774616" d="m85.168 69.8781c-1.813 0-3.2884 1.4747-3.2884 3.2879v1.8274c0 1.8133 1.4753 3.2879 3.2883 3.2879h7.318c1.8134 0 3.2882-1.4746 3.2882-3.2878l.0001-1.8275c0-1.8134-1.475-3.2878-3.2883-3.2878zm7.3179 11.7897h-7.3179c-3.6807 0-6.6751-2.9949-6.6751-6.6743l.0002-1.8275c0-3.6795 2.9942-6.6745 6.6748-6.6745l7.318-.0002c3.6807 0 6.6749 2.9953 6.6749 6.6747v1.8274c0 3.6794-2.9944 6.6746-6.6749 6.6744z"/></g></g></g></svg>