<?xml version="1.0" encoding="UTF-8" standalone="no"?>
<!-- Created with Inkscape (http://www.inkscape.org/) -->

<svg
   version="1.1"
   id="svg5583"
   xml:space="preserve"
   width="682.66669"
   height="682.66669"
   viewBox="0 0 682.66669 682.66669"
   xmlns="http://www.w3.org/2000/svg"
   xmlns:svg="http://www.w3.org/2000/svg"><defs
     id="defs5587"><clipPath
       clipPathUnits="userSpaceOnUse"
       id="clipPath5597"><path
         d="M 0,512 H 512 V 0 H 0 Z"
         id="path5595" /></clipPath></defs><g
     id="g5589"
     transform="matrix(1.3333333,0,0,-1.3333333,0,682.66667)"><g
       id="g5591"><g
         id="g5593"
         clip-path="url(#clipPath5597)"><g
           id="g5599"
           transform="translate(461.9443,304.4663)"><path
             d="M 0,0 V -296.966"
             style="fill:none;stroke:#000000;stroke-width:15;stroke-linecap:round;stroke-linejoin:round;stroke-miterlimit:10;stroke-dasharray:none;stroke-opacity:1"
             id="path5601" /></g><g
           id="g5603"
           transform="translate(50.0557,7.5)"><path
             d="M 0,0 V 296.966"
             style="fill:none;stroke:#000000;stroke-width:15;stroke-linecap:round;stroke-linejoin:round;stroke-miterlimit:10;stroke-dasharray:none;stroke-opacity:1"
             id="path5605" /></g><g
           id="g5607"
           transform="translate(330.1396,87.8594)"><path
             d="M 0,0 V -80.359"
             style="fill:none;stroke:#000000;stroke-width:15;stroke-linecap:round;stroke-linejoin:round;stroke-miterlimit:10;stroke-dasharray:none;stroke-opacity:1"
             id="path5609" /></g><g
           id="g5611"
           transform="translate(181.8604,7.5)"><path
             d="m 0,0 v 151.771 c 0,39.704 33.193,71.891 74.14,71.891 40.946,0 74.139,-32.187 74.139,-71.891 v -41.412"
             style="fill:none;stroke:#000000;stroke-width:15;stroke-linecap:round;stroke-linejoin:round;stroke-miterlimit:10;stroke-dasharray:none;stroke-opacity:1"
             id="path5613" /></g><g
           id="g5615"
           transform="translate(148.9092,7.5)"><path
             d="m 0,0 v 242.565 c 0,8.285 6.716,15 15,15 h 184.182 c 8.284,0 15,-6.715 15,-15 V 0"
             style="fill:none;stroke:#000000;stroke-width:15;stroke-linecap:round;stroke-linejoin:round;stroke-miterlimit:10;stroke-dasharray:none;stroke-opacity:1"
             id="path5617" /></g><g
           id="g5619"
           transform="translate(256,265.0654)"><path
             d="M 0,0 V -33.903"
             style="fill:none;stroke:#000000;stroke-width:15;stroke-linecap:round;stroke-linejoin:round;stroke-miterlimit:10;stroke-dasharray:none;stroke-opacity:1"
             id="path5621" /></g><g
           id="g5623"
           transform="translate(363.0908,136.1812)"><path
             d="M 0,0 H 98.854"
             style="fill:none;stroke:#000000;stroke-width:15;stroke-linecap:round;stroke-linejoin:round;stroke-miterlimit:10;stroke-dasharray:none;stroke-opacity:1"
             id="path5625" /></g><g
           id="g5627"
           transform="translate(363.0908,40.3262)"><path
             d="M 0,0 H 98.854"
             style="fill:none;stroke:#000000;stroke-width:15;stroke-linecap:round;stroke-linejoin:round;stroke-miterlimit:10;stroke-dasharray:none;stroke-opacity:1"
             id="path5629" /></g><g
           id="g5631"
           transform="translate(50.0557,40.3262)"><path
             d="M 0,0 H 98.854"
             style="fill:none;stroke:#000000;stroke-width:15;stroke-linecap:round;stroke-linejoin:round;stroke-miterlimit:10;stroke-dasharray:none;stroke-opacity:1"
             id="path5633" /></g><g
           id="g5635"
           transform="translate(50.0557,136.1812)"><path
             d="M 0,0 H 98.854"
             style="fill:none;stroke:#000000;stroke-width:15;stroke-linecap:round;stroke-linejoin:round;stroke-miterlimit:10;stroke-dasharray:none;stroke-opacity:1"
             id="path5637" /></g><g
           id="g5639"
           transform="translate(50.0557,200.0845)"><path
             d="M 0,0 H 98.854"
             style="fill:none;stroke:#000000;stroke-width:15;stroke-linecap:round;stroke-linejoin:round;stroke-miterlimit:10;stroke-dasharray:none;stroke-opacity:1"
             id="path5641" /></g><g
           id="g5643"
           transform="translate(363.0908,200.0845)"><path
             d="M 0,0 H 98.854"
             style="fill:none;stroke:#000000;stroke-width:15;stroke-linecap:round;stroke-linejoin:round;stroke-miterlimit:10;stroke-dasharray:none;stroke-opacity:1"
             id="path5645" /></g><g
           id="g5647"
           transform="translate(330.1396,304.4663)"><path
             d="M 0,0 H 145.946"
             style="fill:none;stroke:#000000;stroke-width:15;stroke-linecap:round;stroke-linejoin:round;stroke-miterlimit:10;stroke-dasharray:none;stroke-opacity:1"
             id="path5649" /></g><g
           id="g5651"
           transform="translate(35.9141,304.4663)"><path
             d="M 0,0 H 259.73"
             style="fill:none;stroke:#000000;stroke-width:15;stroke-linecap:round;stroke-linejoin:round;stroke-miterlimit:10;stroke-dasharray:none;stroke-opacity:1"
             id="path5653" /></g><g
           id="g5655"
           transform="translate(7.5,7.5)"><path
             d="M 0,0 H 497"
             style="fill:none;stroke:#000000;stroke-width:15;stroke-linecap:round;stroke-linejoin:round;stroke-miterlimit:10;stroke-dasharray:none;stroke-opacity:1"
             id="path5657" /></g><g
           id="g5659"
           transform="translate(50.0557,304.4663)"><path
             d="m 0,0 v 24.401 c 0,8.284 6.716,15 15,15 h 381.889 c 8.284,0 15,-6.716 15,-15 V 0"
             style="fill:none;stroke:#000000;stroke-width:15;stroke-linecap:round;stroke-linejoin:round;stroke-miterlimit:10;stroke-dasharray:none;stroke-opacity:1"
             id="path5661" /></g><g
           id="g5663"
           transform="translate(83.0068,343.8672)"><path
             d="m 0,0 v 32.928 c 0,8.284 6.716,15 15,15 h 315.986 c 8.285,0 15,-6.716 15,-15 V 0"
             style="fill:none;stroke:#000000;stroke-width:15;stroke-linecap:round;stroke-linejoin:round;stroke-miterlimit:10;stroke-dasharray:none;stroke-opacity:1"
             id="path5665" /></g><g
           id="g5667"
           transform="translate(99.4824,391.7949)"><path
             d="m 0,0 v 32.927 c 0,8.284 6.716,15 15,15 h 283.035 c 8.284,0 15,-6.716 15,-15 V 0"
             style="fill:none;stroke:#000000;stroke-width:15;stroke-linecap:round;stroke-linejoin:round;stroke-miterlimit:10;stroke-dasharray:none;stroke-opacity:1"
             id="path5669" /></g><g
           id="g5671"
           transform="translate(363.0908,439.7222)"><path
             d="m 0,0 v 17.826 c 0,8.284 -6.716,15 -15,15 h -17.951 l -3.826,3.71 c -18.649,18.083 -43.941,28.242 -70.314,28.242 -26.373,0 -51.665,-10.159 -70.313,-28.242 l -3.826,-3.71 h -17.952 c -8.284,0 -15,-6.716 -15,-15 V 0"
             style="fill:none;stroke:#000000;stroke-width:15;stroke-linecap:round;stroke-linejoin:round;stroke-miterlimit:10;stroke-dasharray:none;stroke-opacity:1"
             id="path5673" /></g><path
           d="M 330.14,343.867 H 181.861 v 47.928 H 330.14 Z"
           style="fill:none;stroke:#000000;stroke-width:15;stroke-linecap:round;stroke-linejoin:round;stroke-miterlimit:10;stroke-dasharray:none;stroke-opacity:1"
           id="path5675" /><g
           id="g5677"
           transform="translate(428.9932,248.0122)"><path
             d="m 0,0 c 0,-8.823 -7.377,-15.976 -16.476,-15.976 -9.099,0 -16.475,7.153 -16.475,15.976 0,8.823 7.376,15.976 16.475,15.976 C -7.377,15.976 0,8.823 0,0 Z"
             style="fill:none;stroke:#000000;stroke-width:15;stroke-linecap:round;stroke-linejoin:round;stroke-miterlimit:10;stroke-dasharray:none;stroke-opacity:1"
             id="path5679" /></g><g
           id="g5681"
           transform="translate(115.958,248.0122)"><path
             d="m 0,0 c 0,-8.823 -7.376,-15.976 -16.476,-15.976 -9.098,0 -16.475,7.153 -16.475,15.976 0,8.823 7.377,15.976 16.475,15.976 C -7.376,15.976 0,8.823 0,0 Z"
             style="fill:none;stroke:#000000;stroke-width:15;stroke-linecap:round;stroke-linejoin:round;stroke-miterlimit:10;stroke-dasharray:none;stroke-opacity:1"
             id="path5683" /></g></g></g></g></svg>
