<?xml version="1.0" encoding="utf-8"?>
<!-- Generator: Adobe Illustrator 18.0.0, SVG Export Plug-In . SVG Version: 6.00 Build 0)  -->
<!DOCTYPE svg PUBLIC "-//W3C//DTD SVG 1.1//EN" "http://www.w3.org/Graphics/SVG/1.1/DTD/svg11.dtd">
<svg version="1.1" id="Layer_1" xmlns="http://www.w3.org/2000/svg" xmlns:xlink="http://www.w3.org/1999/xlink" x="0px" y="0px"
	 viewBox="0 0 700 700" enable-background="new 0 0 700 700" xml:space="preserve">
<g>
	<path stroke="#000000" stroke-miterlimit="10" d="M443.9,182c-22.7-29.7-56.6-46.1-93.9-46.1c-37.3,0-71.2,16.9-93.9,46.1
		c-32.1,42-32.1,100.9,0,143.5L350,448l93.9-122.5C476,283.5,476,224.6,443.9,182L443.9,182z M350,191.3c32.7,0,59.5,26.8,59.5,59.5
		s-26.8,59.5-59.5,59.5s-59.5-26.8-59.5-59.5C290.5,218.2,317.3,191.3,350,191.3z"/>
	<path stroke="#000000" stroke-miterlimit="10" d="M469.6,400.7h-68.8L350,467.8l-50.7-67.1h-68.8L123.7,564.1h452.7L469.6,400.7z"
		/>
</g>
</svg>
