<svg id="Layer_1" enable-background="new 0 0 500 500" viewBox="0 0 500 500" xmlns="http://www.w3.org/2000/svg"><path clip-rule="evenodd" d="m311.858 369.568c-.173 3.649-3.079 6.379-6.942 6.379-6.141 0-8.975-7.58-4.502-11.653 4.275-3.894 11.736-.883 11.444 5.274zm27.667-70.222c0 14.758-9.371 27.91-23.317 32.722-2.84.992-4.609 3.471-4.609 6.474v6.525c0 3.702-2.992 6.689-6.683 6.689s-6.689-2.987-6.689-6.689v-6.525c0-8.757 5.347-16.257 13.625-19.119 8.548-2.953 14.301-11.022 14.301-20.077 0-11.715-9.534-21.244-21.238-21.244-6.075 0-11.873 2.609-15.902 7.156-4.07 4.589-11.687 1.704-11.687-4.44 0-1.578.552-3.156 1.685-4.435 6.559-7.41 16.003-11.653 25.904-11.653 19.092 0 34.61 15.524 34.61 34.616zm17.807 67.033c26.963-26.963 26.963-70.842 0-97.817-26.949-26.955-70.851-26.96-97.811 0-26.974 26.975-26.974 70.854 0 97.817 26.966 26.961 70.853 26.981 97.811 0zm9.461-107.272c-32.187-32.181-84.552-32.181-116.733 0-32.181 32.187-32.181 84.552 0 116.734 32.182 32.182 84.556 32.177 116.733 0 32.181-32.182 32.181-84.548 0-116.734zm64.03 198.147-34.463-34.464 17.378-17.384 34.475 34.463zm-49.763-67.141c.98-.981 1.927-1.978 2.851-2.975l14.6 14.595-5.832 5.821-14.589-14.595c.998-.93 1.996-1.877 2.97-2.846zm-137.695-9.461c35.354 35.354 92.881 35.354 128.246 0 35.354-35.365 35.354-92.886 0-128.246-35.365-35.354-92.892-35.354-128.246 0-35.365 35.36-35.365 92.881 0 128.246zm-115.979-15.761h87.95c-5.714-10.909-9.36-22.624-10.949-34.57h-56.113c-3.691 0-6.683-2.986-6.683-6.689 0-3.691 2.992-6.689 6.683-6.689h55.206c-.045-11.687 1.859-23.385 5.725-34.559h-60.931c-3.691 0-6.683-2.992-6.683-6.689 0-3.691 2.992-6.683 6.683-6.683h66.633c6.845-13.354 16.561-25.164 28.614-34.571h-95.248c-3.691 0-6.683-2.986-6.683-6.689 0-3.691 2.992-6.689 6.683-6.689h117.787c27.938-12.081 60.136-11.349 87.55 2.186v-149.623c0-17.057-13.873-30.947-30.936-30.947h-216.526c-7.455.169-14.284 1.24-20.517 3.268 15.637 4.395 27.132 18.787 27.132 35.81v268.511c.001 8.059 6.565 14.623 14.623 14.623zm-75.638-244.061v-39.072c0-5.597 1.749-10.035 4.762-14.234 3.939-5.252 9.889-8.65 16.291-9.427l2.772-.158c13.135 0 23.813 10.684 23.813 23.819v39.073h-47.638zm406.01 309.675-34.649-34.649c-3.894-3.894-9.625-4.852-14.426-2.868l-16.302-16.291c28.811-40.605 25.042-97.389-11.321-133.751-4.406-4.401-9.123-8.334-14.07-11.783v-157.537c0-24.467-19.875-44.302-44.313-44.302h-216.602c-.045 0-.09 0-.13 0-25.182.508-45.209 10.369-59.555 29.409-5.01 6.339-8.019 14.341-8.019 23.024v45.756c0 3.702 2.998 6.689 6.689 6.689h54.326v216.066c0 15.434 12.566 27.994 28 27.994h96.324c33.871 45.955 98.154 55.635 143.939 23.177l16.291 16.29c-1.978 4.795-1.026 10.526 2.874 14.426l34.649 34.649c5.166 5.166 13.565 5.155 18.725 0l17.57-17.575c5.161-5.161 5.161-13.557 0-18.724zm-212.443-346.567c0-3.697 2.998-6.683 6.689-6.683h66.109c3.691 0 6.683 2.986 6.683 6.683 0 3.691-2.992 6.689-6.683 6.689h-66.109c-3.692 0-6.689-2.998-6.689-6.689zm0 95.879c0-3.691 2.998-6.683 6.689-6.683h66.109c3.691 0 6.683 2.992 6.683 6.683s-2.992 6.689-6.683 6.689h-66.109c-3.692 0-6.689-2.998-6.689-6.689zm0-47.942c0-3.691 2.998-6.689 6.689-6.689h66.109c3.691 0 6.683 2.998 6.683 6.689s-2.992 6.689-6.683 6.689h-66.109c-3.692 0-6.689-2.998-6.689-6.689zm-90.351 14.16c0-14.544 11.833-26.383 26.383-26.383 14.555 0 26.388 11.839 26.388 26.383v27.099h-52.771zm14.177-51.965c0-6.734 5.477-12.217 12.205-12.217 6.734 0 12.216 5.483 12.216 12.217s-5.483 12.205-12.216 12.205c-6.727 0-12.205-5.471-12.205-12.205zm-20.866 92.436c-3.691 0-6.683-2.998-6.683-6.689v-33.782c0-15.023 8.379-28.141 20.72-34.891-14.702-16.415-3.032-42.662 19.035-42.662 22.046 0 33.78 26.205 19.04 42.662 12.341 6.751 20.719 19.869 20.719 34.891v33.782c0 3.691-2.998 6.689-6.689 6.689z" fill-rule="evenodd"/></svg>