<svg id="Icons" height="512" viewBox="0 0 60 60" width="512" xmlns="http://www.w3.org/2000/svg"><path d="m4.868 59.47a.5.5 0 0 1 -.263-.926l11.826-7.31-13.902 8.026a.5.5 0 0 1 -.512-.859l13.973-8.629-14.557 8.405a.5.5 0 0 1 -.515-.857l18.808-11.728-18.446 10.649a.5.5 0 0 1 -.51-.859l9.808-5.995-9.3 5.368a.5.5 0 0 1 -.512-.855l19.088-11.909-18.574 10.723a.5.5 0 0 1 -.509-.86l3.291-1.994-2.782 1.606a.5.5 0 0 1 -.51-.86l8.138-4.96-7.628 4.4a.5.5 0 0 1 -.514-.857l19.691-12.303-19.177 11.071a.5.5 0 0 1 -.512-.857l14.526-8.957-14.014 8.089a.5.5 0 0 1 -.509-.86l4.584-2.781-4.075 2.352a.5.5 0 0 1 -.511-.858l13.508-8.313-13 7.5a.5.5 0 0 1 -.509-.859l7.792-4.742-7.28 4.2a.5.5 0 0 1 -.51-.859l8.817-5.38-8.307 4.8a.5.5 0 0 1 -.514-.857l19.77-12.359-19.256 11.114a.5.5 0 0 1 -.515-.856l21.008-13.187-20.493 11.831a.5.5 0 0 1 -.512-.857l15.907-9.84-15.395 8.888a.5.5 0 0 1 -.511-.859l12.664-7.779-12.153 7.016a.5.5 0 0 1 -.509-.861l1.382-.836-.873.5a.5.5 0 0 1 -.512-.857l14.308-8.858-13.796 7.969a.5.5 0 0 1 -.518-.854l19.031-12.142-18.513 10.688a.5.5 0 0 1 -.518-.855l15.22-9.7-14.702 8.488a.5.5 0 0 1 -.513-.857l4.785-2.965-4.272 2.466a.5.5 0 0 1 -.525-.851l13.986-9.212-13.461 7.771a.5.5 0 0 1 -.525-.851l10.524-6.933-10 5.772a.5.5 0 0 1 -.526-.85l7.982-5.29-7.456 4.3a.5.5 0 0 1 -.537-.842l8.365-5.861-7.827 4.524a.5.5 0 0 1 -.535-.843l4.817-3.341-4.282 2.473a.5.5 0 0 1 -.556-.828l5.193-4.032-4.637 2.681a.5.5 0 0 1 -.541-.84l.489-.348a.506.506 0 0 1 -.6-.158.5.5 0 0 1 .05-.66l2.388-2.323-1.786 1.029a.5.5 0 0 1 -.671-.7l.853-1.332a.5.5 0 0 1 -.395-.911l1.659-.957a.494.494 0 0 1 .611.087.5.5 0 0 1 .063.613l-.84 1.309 3.484-2.009a.5.5 0 0 1 .6.791l-2.387 2.317 5.389-3.108a.5.5 0 0 1 .67.162.5.5 0 0 1 -.129.678l-.46.328 2.023-1.168a.5.5 0 0 1 .557.827l-5.192 4.028 8.414-4.855a.5.5 0 0 1 .535.843l-4.82 3.342 7.256-4.185a.5.5 0 0 1 .537.841l-8.37 5.859 11.61-6.7a.5.5 0 0 1 .527.849l-7.981 5.288 10.632-6.137a.5.5 0 0 1 .525.85l-10.528 6.935 13.488-7.785a.5.5 0 0 1 .526.85l-13.983 9.21 17.426-10.06a.5.5 0 0 1 .514.857l-4.787 2.964 6.623-3.821a.5.5 0 0 1 .518.854l-15.225 9.7 18.287-10.554a.5.5 0 0 1 .518.854l-19.026 12.137 22.495-12.991a.5.5 0 0 1 .513.857l-14.317 8.866 15.351-8.862a.5.5 0 0 1 .509.86l-1.374.831 1.2-.694a.5.5 0 0 1 .512.858l-12.649 7.77 12.149-7.012a.5.5 0 0 1 .512.858l-15.922 9.849 15.41-8.9a.5.5 0 0 1 .515.856l-21 13.181 20.485-11.818a.5.5 0 0 1 .514.856l-19.781 12.362 19.267-11.118a.5.5 0 0 1 .51.86l-8.817 5.38 8.307-4.8a.5.5 0 0 1 .509.859l-7.763 4.73 7.254-4.187a.5.5 0 0 1 .511.858l-13.508 8.313 13-7.5a.5.5 0 0 1 .509.86l-4.583 2.782 4.071-2.355a.5.5 0 0 1 .512.858l-14.526 8.955 14.014-8.09a.5.5 0 0 1 .514.856l-19.691 12.307 19.177-11.072a.5.5 0 0 1 .51.86l-8.138 4.961 7.628-4.4a.5.5 0 0 1 .509.861l-3.323 2.004 2.814-1.62a.5.5 0 0 1 .514.857l-19.076 11.9 18.562-10.716a.5.5 0 0 1 .51.859l-9.83 6.009 9.322-5.381a.5.5 0 0 1 .514.856l-18.8 11.72 18.284-10.554a.5.5 0 0 1 .512.859l-13.983 8.635 13.471-7.777a.5.5 0 0 1 .512.857l-11.832 7.316 11.32-6.535a.5.5 0 0 1 .516.855l-15.15 9.56 14.634-8.449a.5.5 0 0 1 .515.856l-10.235 6.412 9.723-5.613a.5.5 0 0 1 .519.853l-12.15 7.78 11.628-6.715a.5.5 0 0 1 .521.852l-10.821 7.011 10.3-5.946a.5.5 0 0 1 .519.853l-6.156 3.942 5.637-3.254a.5.5 0 0 1 .53.847l-9.263 6.262 8.733-5.041a.5.5 0 0 1 .54.84l-8.373 5.951 7.833-4.521a.5.5 0 0 1 .549.834l-6.291 4.679 5.742-3.314a.5.5 0 0 1 .538.841l-1.836 1.3 1.3-.749a.5.5 0 0 1 .551.832l-1.74 1.31 1.189-.685a.5.5 0 0 1 .619.769l-2.181 2.391 1.562-.9a.5.5 0 0 1 .624.765l-.445.5a.493.493 0 0 1 .337.24.5.5 0 0 1 -.182.683l-2.065 1.184a.5.5 0 0 1 -.624-.764l.186-.209-1.688.973a.5.5 0 0 1 -.619-.769l2.18-2.39-5.472 3.159a.5.5 0 0 1 -.551-.832l1.74-1.31-3.712 2.142a.5.5 0 0 1 -.538-.84l1.839-1.3-3.708 2.14a.5.5 0 0 1 -.548-.834l6.291-4.68-9.552 5.514a.5.5 0 0 1 -.54-.839l8.37-5.95-11.76 6.789a.5.5 0 0 1 -.53-.846l9.264-6.264-12.319 7.11a.5.5 0 0 1 -.519-.853l6.155-3.941-8.3 4.794a.5.5 0 0 1 -.521-.852l10.825-7.014-13.628 7.866a.5.5 0 0 1 -.52-.853l12.147-7.777-14.948 8.63a.5.5 0 0 1 -.516-.856l10.247-6.417-12.6 7.273a.5.5 0 0 1 -.516-.855l15.145-9.556-18.033 10.411a.5.5 0 0 1 -.25.07z" fill="#895a4b"/><path d="m6.066 55.47a.5.5 0 0 1 -.26-.927l1.356-.83-1.818 1.05a.5.5 0 0 1 -.519-.855l16.315-10.382-15.86 9.157a.5.5 0 0 1 -.516-.856l13.5-8.488-12.984 7.495a.5.5 0 0 1 -.518-.855l16.338-10.394-15.82 9.133a.5.5 0 0 1 -.512-.859l6.537-4.03-6.025 3.478a.5.5 0 0 1 -.515-.857l11.965-7.484-11.45 6.61a.5.5 0 0 1 -.515-.856l12.417-7.779-11.902 6.872a.5.5 0 0 1 -.513-.858l9.485-5.891-8.972 5.18a.5.5 0 0 1 -.517-.855l15.2-9.62-14.683 8.475a.5.5 0 0 1 -.519-.853l17.711-11.347-17.192 9.925a.5.5 0 0 1 -.511-.859l5.913-3.641-5.4 3.118a.5.5 0 0 1 -.518-.855l16.57-10.554-16.054 9.267a.5.5 0 0 1 -.517-.855l15.188-9.613-14.671 8.469a.5.5 0 0 1 -.514-.856l11.043-6.89-10.529 6.078a.5.5 0 0 1 -.521-.852l16.086-10.383-15.565 8.985a.5.5 0 0 1 -.514-.856l6.382-3.991-5.868 3.387a.5.5 0 0 1 -.517-.855l6.737-4.258-6.22 3.591a.5.5 0 0 1 -.524-.851l10-6.568-9.476 5.473a.5.5 0 0 1 -.52-.854l4.451-2.863-3.931 2.265a.5.5 0 0 1 -.523-.85l4.472-2.929-3.949 2.279a.5.5 0 0 1 -.535-.842l6.306-4.384-5.771 3.331a.5.5 0 0 1 -.535-.844l3.517-2.44-2.982 1.72a.5.5 0 0 1 -.545-.836l3.036-2.215-2.491 1.437a.5.5 0 0 1 -.569-.817l2.843-2.365-2.274 1.312a.5.5 0 0 1 -.633-.754l1.738-2.066-1.1.636a.5.5 0 0 1 -.68-.686l.38-.646a.5.5 0 0 1 -.147-.921l1.156-.668a.5.5 0 0 1 .606.081.5.5 0 0 1 .075.605l-.248.422 1.92-1.108a.5.5 0 0 1 .632.754l-1.736 2.064 4.885-2.818a.5.5 0 0 1 .569.817l-2.843 2.363 5.513-3.18a.5.5 0 0 1 .545.837l-3.035 2.214 5.286-3.051a.5.5 0 0 1 .535.843l-3.515 2.441 5.688-3.284a.5.5 0 0 1 .535.842l-6.3 4.384 9.048-5.226a.5.5 0 0 1 .524.85l-4.469 2.927 6.543-3.777a.5.5 0 0 1 .52.853l-4.459 2.868 6.447-3.721a.5.5 0 0 1 .524.85l-9.993 6.566 12.846-7.416a.5.5 0 0 1 .517.855l-6.743 4.262 8.863-5.117a.5.5 0 0 1 .515.856l-6.379 3.986 8.39-4.842a.5.5 0 0 1 .521.852l-16.077 10.377 18.4-10.623a.5.5 0 0 1 .514.857l-11.05 6.894 10.612-6.126a.5.5 0 0 1 .517.856l-15.177 9.606 14.66-8.464a.5.5 0 0 1 .518.855l-16.58 10.56 16.062-9.272a.5.5 0 0 1 .511.858l-5.913 3.642 5.4-3.118a.5.5 0 0 1 .519.853l-17.709 11.347 17.192-9.925a.5.5 0 0 1 .517.855l-15.2 9.62 14.683-8.475a.5.5 0 0 1 .513.857l-9.485 5.891 8.972-5.177a.5.5 0 0 1 .515.857l-12.417 7.775 11.9-6.871a.5.5 0 0 1 .515.856l-11.963 7.483 11.45-6.611a.5.5 0 0 1 .512.859l-6.532 4.032 6.02-3.48a.5.5 0 0 1 .518.854l-16.338 10.399 15.82-9.134a.5.5 0 0 1 .516.855l-13.5 8.489 12.983-7.5a.5.5 0 0 1 .518.855l-16.317 10.389 15.8-9.122a.5.5 0 0 1 .51.859l-1.356.829.846-.487a.5.5 0 0 1 .522.851l-15.1 9.813 14.578-8.415a.5.5 0 0 1 .514.857l-3.406 2.121 2.892-1.669a.5.5 0 0 1 .522.853l-9.384 6.085 8.862-5.115a.5.5 0 0 1 .516.855l-1.206.759.69-.4a.5.5 0 0 1 .521.853l-4.227 2.732 3.706-2.139a.5.5 0 0 1 .528.847l-5.739 3.852 5.211-3.006a.5.5 0 0 1 .523.852l-.7.459.18-.1a.5.5 0 0 1 .531.846l-2.366 1.61 1.835-1.058a.5.5 0 0 1 .558.826l-4.395 3.435 3.834-2.213a.5.5 0 0 1 .557.827l-1.685 1.313 1.128-.651a.5.5 0 0 1 .6.789l-1.545 1.519.945-.545a.5.5 0 0 1 .7.651l-.543 1.12a.5.5 0 0 1 .474.248.5.5 0 0 1 -.184.683l-1.16.669a.5.5 0 0 1 -.7-.651l.5-1.044-2.93 1.695a.5.5 0 0 1 -.6-.789l1.546-1.52-4 2.309a.5.5 0 0 1 -.557-.827l1.686-1.312-3.709 2.139a.5.5 0 0 1 -.558-.826l4.392-3.439-7.39 4.265a.5.5 0 0 1 -.531-.845l2.36-1.607-4.247 2.452a.5.5 0 0 1 -.524-.851l.711-.464-2.279 1.315a.5.5 0 0 1 -.529-.847l5.74-3.852-8.141 4.7a.5.5 0 0 1 -.521-.852l4.224-2.731-6.206 3.582a.5.5 0 0 1 -.516-.855l1.214-.765-2.806 1.62a.5.5 0 0 1 -.523-.852l9.387-6.083-12.021 6.935a.5.5 0 0 1 -.514-.857l3.409-2.123-5.163 2.98a.5.5 0 0 1 -.523-.851l15.1-9.811-18.472 10.662a.5.5 0 0 1 -.25.07z" fill="#fff"/><path d="m21.506 30.47a.5.5 0 0 1 -.41-.786l1.175-1.684-1.991 1.152a.5.5 0 0 1 -.628-.759l1.988-2.293-1.36.785a.5.5 0 0 1 -.6-.785l.679-.684-.075.043a.5.5 0 0 1 -.677-.692l.355-.583a.5.5 0 0 1 -.308-.235.5.5 0 0 1 .183-.682l1.161-.67a.5.5 0 0 1 .678.692l-.2.327 1.637-.945a.5.5 0 0 1 .605.785l-.679.683.684-.395a.5.5 0 0 1 .628.76l-1.992 2.296 1.361-.785a.5.5 0 0 1 .66.718l-1.174 1.677.514-.3a.5.5 0 0 1 .5.865l-2.464 1.425a.49.49 0 0 1 -.25.07z" fill="#f96771"/><path d="m25.711 30.47a.5.5 0 0 1 -.378-.827l.311-.359-1.194.689a.5.5 0 0 1 -.623-.766l1.688-1.888-1.235.713a.5.5 0 0 1 -.653-.136.5.5 0 0 1 .065-.665l.6-.548h-.009a.5.5 0 0 1 -.626-.763l1.931-2.2-1.3.753a.5.5 0 0 1 -.611-.777l1.536-1.61-.925.533a.5.5 0 0 1 -.6-.786l1.075-1.077-.472.272a.5.5 0 0 1 -.7-.645l.564-1.2a.5.5 0 0 1 -.309-.929l1.161-.67a.5.5 0 0 1 .7.645l-.532 1.129 2.359-1.358a.5.5 0 0 1 .6.786l-1.076 1.078.658-.38a.5.5 0 0 1 .611.778l-1.527 1.612.923-.532a.5.5 0 0 1 .626.762l-1.933 2.2 1.307-.754a.5.5 0 0 1 .588.8l-.594.546h.006a.5.5 0 0 1 .623.765l-1.689 1.889 1.066-.615a.5.5 0 0 1 .628.759l-.413.477a.481.481 0 0 1 .467.249.5.5 0 0 1 -.182.683l-2.259 1.3a.49.49 0 0 1 -.253.067z" fill="#f9c32f"/><path d="m28.884 30.457a.5.5 0 0 1 -.36-.848l.6-.62-.84.485a.5.5 0 0 1 -.6-.788l1.185-1.175-.589.34a.5.5 0 0 1 -.6-.793l.97-.933-.374.216a.5.5 0 0 1 -.6-.788l1.19-1.18-.589.34a.5.5 0 0 1 -.59-.8l.352-.327a.483.483 0 0 1 -.367-.149.5.5 0 0 1 -.075-.605l.379-.644a.5.5 0 0 1 -.146-.921l1.161-.67a.5.5 0 0 1 .681.686l-.247.418 1.747-1.008a.5.5 0 0 1 .59.8l-.152.141.107-.061a.5.5 0 0 1 .6.788l-1.19 1.18.589-.34a.5.5 0 0 1 .6.793l-.968.93.372-.214a.5.5 0 0 1 .6.788l-1.187 1.177.586-.338a.5.5 0 0 1 .609.78l-.6.619a.5.5 0 0 1 .491.871l-3.085 1.783a.489.489 0 0 1 -.25.067z" fill="#7ade8a"/><path d="m34.757 30.47a.5.5 0 0 1 -.422-.769l.113-.177-1.456.84a.5.5 0 0 1 -.628-.76l1.283-1.482-1.367.789a.5.5 0 0 1 -.591-.8l.73-.681-.139.08a.5.5 0 0 1 -.628-.76l1.988-2.29-1.36.785a.5.5 0 0 1 -.628-.761l1.988-2.284-1.36.784a.5.5 0 0 1 -.629-.758l2.011-2.332-1.382.8a.5.5 0 0 1 -.6-.792l.92-.902-.324.186a.5.5 0 0 1 -.707-.635l.607-1.363a.5.5 0 0 1 -.347-.922l1.161-.67a.5.5 0 0 1 .707.635l-.588 1.321 2.491-1.437a.5.5 0 0 1 .6.792l-.92.892.437-.252a.5.5 0 0 1 .629.759l-2.011 2.332 1.382-.8a.5.5 0 0 1 .628.761l-1.986 2.288 1.361-.787a.5.5 0 0 1 .628.76l-1.988 2.296 1.36-.785a.5.5 0 0 1 .591.8l-.733.684.142-.082a.5.5 0 0 1 .628.76l-1.284 1.483.656-.378a.5.5 0 0 1 .672.7l-.313.49a.492.492 0 0 1 .271.223.5.5 0 0 1 -.183.682l-1.16.67a.49.49 0 0 1 -.25.067z" fill="#25a9fe"/><path d="m17.062 51.409a.5.5 0 0 1 -.372-.834l1.749-1.948-3.531 2.038a.5.5 0 0 1 -.567-.818l1.1-.905-1.761 1.016a.5.5 0 0 1 -.576-.812l2.284-1.954-2.948 1.7a.5.5 0 0 1 -.549-.833l.891-.668a.484.484 0 0 1 -.419-.193.5.5 0 0 1 .037-.656l3.647-3.727a.5.5 0 0 1 .206-.636l1.018-.588a.5.5 0 0 1 .608.782l-2.214 2.263 3.5-2.018a.5.5 0 0 1 .55.833l-.521.39.39-.225a.5.5 0 0 1 .575.813l-2.283 1.953 2.31-1.333a.5.5 0 0 1 .567.818l-1.1.9 1.011-.583a.5.5 0 0 1 .622.767l-1.75 1.949 1.826-1.053a.5.5 0 0 1 .662.717l-.423.609.257-.148a.5.5 0 0 1 .5.865l-2.19 1.264a.5.5 0 0 1 -.661-.718l.423-.608-2.614 1.508a.489.489 0 0 1 -.254.073z" fill="#25a9fe"/><path d="m22.132 50.053a.5.5 0 0 1 -.355-.853l.366-.367-.357.2a.5.5 0 0 1 -.593-.8l1.134-1.065-1.257.732a.5.5 0 0 1 -.563-.822l.048-.038-.02.011a.5.5 0 0 1 -.6-.791l1.847-1.8-2.112 1.219a.5.5 0 0 1 -.653-.728l.955-1.308-1.161.67a.5.5 0 0 1 -.6-.071.5.5 0 0 1 -.1-.591l.225-.437a.549.549 0 0 1 -.446-.25.5.5 0 0 1 .183-.683l1.185-.683a.5.5 0 0 1 .694.661l-.174.338 1.737-1a.5.5 0 0 1 .654.727l-.954 1.308 3.523-2.032a.5.5 0 0 1 .6.79l-1.849 1.8 2.216-1.278a.5.5 0 0 1 .564.822l-.444.356a.5.5 0 0 1 .323.864l-1.166 1.1a.5.5 0 0 1 .517.825l-1.6 1.612c.006.012.014.023.02.034a.5.5 0 0 1 -.183.683l-1.351.78a.49.49 0 0 1 -.253.065z" fill="#f9c32f"/><path d="m11.6 48.238a.5.5 0 0 1 -.308-.893l1.776-1.391-1.908 1.1a.5.5 0 0 1 -.559-.826l2.368-1.863-2.348 1.355a.5.5 0 0 1 -.561-.824l2.892-2.3-2.642 1.523a.5.5 0 0 1 -.66-.144.5.5 0 0 1 .086-.67l3.933-3.334-3.222 1.859a.5.5 0 0 1 -.546-.836l.832-.611a.5.5 0 0 1 -.394-.871l1.971-1.736a.5.5 0 0 1 -.12-.915l3.41-1.969a.5.5 0 0 1 .58.807l-1.408 1.239 3.036-1.751a.5.5 0 0 1 .545.835l-.555.409.175-.1a.5.5 0 0 1 .573.814l-3.932 3.335 3.654-2.11a.5.5 0 0 1 .561.824l-2.894 2.3 2.57-1.483a.5.5 0 0 1 .559.825l-2.364 1.864 2.031-1.172a.5.5 0 0 1 .557.826l-5.5 4.307a.5.5 0 0 1 -.241.529l-1.693.978a.491.491 0 0 1 -.254.07z" fill="#7ade8a"/><path d="m19.462 43.5a.5.5 0 0 1 -.351-.856l2.085-2.05-2.916 1.678a.5.5 0 0 1 -.557-.826l.339-.265a.5.5 0 0 1 -.362-.881l.642-.55-.067.038a.5.5 0 0 1 -.649-.733l1.374-1.824-.725.418a.5.5 0 0 1 -.739-.537l.286-1.337a.49.49 0 0 1 -.229-.206.5.5 0 0 1 .181-.683l.464-.269a.5.5 0 0 1 .74.537l-.228 1.067 1.878-1.084a.5.5 0 0 1 .649.733l-1.369 1.83 2.612-1.508a.5.5 0 0 1 .58.808l-.644.551.985-.568a.5.5 0 0 1 .557.827l-.04.031.146-.083a.5.5 0 0 1 .6.789l-2.091 2.053 2.373-1.369a.5.5 0 0 1 .609.084.5.5 0 0 1 .067.611l-1.009 1.632.914-.528a.5.5 0 0 1 .74.536l-.142.668a.5.5 0 0 1 .061.9l-.479.276a.5.5 0 0 1 -.739-.536l.088-.413-1.661.958a.5.5 0 0 1 -.676-.695l1.009-1.631-4.056 2.341a.489.489 0 0 1 -.25.066z" fill="#f96771"/><path d="m17.947 10.47a.5.5 0 0 1 -.294-.905l.993-.719-2.123 1.224a.5.5 0 0 1 -.535-.843l.194-.134a.5.5 0 0 1 -.474-.859l4.273-3.6-3.7 2.136a.5.5 0 0 1 -.692-.666l.476-.9a.5.5 0 0 1 -.231-.932l1.166-.672a.5.5 0 0 1 .692.666l-.409.776 7.085-4.097a.5.5 0 0 1 .572.815l-4.271 3.6 5.323-3.073a.5.5 0 0 1 .535.844l-.084.057.022-.011a.5.5 0 0 1 .544.837l-.994.72 1.97-1.134a.5.5 0 0 1 .556.828l-1.776 1.372 2.858-1.651a.5.5 0 0 1 .552.832l-.724.547.269-.154a.5.5 0 0 1 .6.785l-1.5 1.51.894-.516a.5.5 0 0 1 .689.672l-.5.917a.5.5 0 0 1 .278.932l-1.267.731a.5.5 0 0 1 -.69-.672l.451-.826-2.6 1.5a.5.5 0 0 1 -.6-.785l1.5-1.51-3.975 2.288a.5.5 0 0 1 -.552-.831l.722-.547-2.383 1.378a.5.5 0 0 1 -.556-.828l1.78-1.372-3.811 2.2a.493.493 0 0 1 -.253.07z" fill="#d5dff7"/><path d="m19.94 2.97a.5.5 0 0 1 -.25-.933l2.384-1.376a.5.5 0 1 1 .5.865l-2.384 1.374a.5.5 0 0 1 -.25.07z" fill="#d5dff7"/><path d="m32.194 49.27a.5.5 0 0 1 -.372-.834l1.639-1.823-3.92 2.262a.5.5 0 0 1 -.563-.822l.955-.767-.606.349a.5.5 0 0 1 -.581-.808l1.47-1.3-.7.4a.5.5 0 0 1 -.651-.733l1.588-2.118-.666.385a.5.5 0 0 1 -.716-.614l.656-1.677a.5.5 0 0 1 -.012-.872l.608-.352a.5.5 0 0 1 .716.614l-.517 1.322 1.546-.882a.5.5 0 0 1 .651.733l-1.588 2.118 2.9-1.677a.5.5 0 0 1 .581.808l-1.469 1.3 1.928-1.113a.5.5 0 0 1 .564.822l-.961.772 1.01-.582a.5.5 0 0 1 .622.766l-1.638 1.823 1.913-1.1a.5.5 0 0 1 .7.657l-.4.8.435-.251a.5.5 0 1 1 .5.865l-1.885 1.089a.5.5 0 0 1 -.7-.657l.4-.8-3.187 1.827a.49.49 0 0 1 -.25.07z" fill="#895a4b"/><path d="m37.551 47.89a.5.5 0 0 1 -.331-.874l.884-.783-1.2.694a.5.5 0 0 1 -.547-.835l1.814-1.342-2.186 1.262a.5.5 0 0 1 -.532-.845l2.4-1.641-2.76 1.593a.5.5 0 0 1 -.53-.847l5.62-3.81-6.183 3.569a.5.5 0 0 1 -.523-.851l2.838-1.85-3.183 1.837a.5.5 0 0 1 -.537-.842l8.551-6.012-9.43 5.444a.5.5 0 0 1 -.53-.847l6.482-4.394-6.968 4.016a.5.5 0 0 1 -.533-.844l7.162-4.919-2.047 1.18a.5.5 0 0 1 -.556-.828l5.809-4.487a.5.5 0 0 1 -.471-.856l3.138-2.753a.5.5 0 0 1 .226-.587l1.338-.772a.5.5 0 0 1 .58.81l-.813.712 1.867-1.074a.5.5 0 0 1 .556.828l-5.722 4.42 6.654-3.841a.5.5 0 0 1 .533.845l-7.155 4.915 7.892-4.556a.5.5 0 0 1 .531.846l-6.481 4.394 7.135-4.119a.5.5 0 0 1 .537.842l-8.556 6.012 9.476-5.471a.5.5 0 0 1 .523.852l-2.835 1.848 2.173-1.254a.5.5 0 0 1 .53.846l-5.618 3.81 2.045-1.181a.5.5 0 0 1 .532.845l-3.533 2.42a.5.5 0 0 1 .229.9l-3.464 2.562a.487.487 0 0 1 .173.15.5.5 0 0 1 -.075.666l-3.18 2.818a.5.5 0 0 1 -.229.579l-1.269.732a.493.493 0 0 1 -.251.068z" fill="#f9c32f"/><path d="m54.07 30.474a.5.5 0 0 1 -.357-.85l2.3-2.356-3.12 1.8a.5.5 0 0 1 -.575-.813l2.061-1.755-2.567 1.48a.5.5 0 0 1 -.585-.8l3.164-2.87-3.962 2.29a.5.5 0 0 1 -.589-.8l3.336-3.082-4.2 2.426a.5.5 0 0 1 -.558-.827l1.2-.937-1.33.767a.5.5 0 0 1 -.6-.786l2.084-2.088a.5.5 0 0 1 -.233-.932l2.8-1.617a.5.5 0 0 1 .6.786l-1.875 1.88 4.247-2.452a.5.5 0 0 1 .557.826l-1.2.94 1.893-1.093a.5.5 0 0 1 .589.8l-3.337 3.083 4.131-2.385a.5.5 0 0 1 .586.8l-3.165 2.871 3.265-1.88a.5.5 0 0 1 .574.813l-2.055 1.749 1.515-.874a.5.5 0 0 1 .607.782l-2.3 2.356.168-.1a.5.5 0 0 1 .5.865l-3.319 1.915a.49.49 0 0 1 -.25.068z" fill="#d85063"/><path d="m51.675 33.943a.5.5 0 0 1 -.372-.834l1.425-1.588-2.007 1.158a.5.5 0 0 1 -.592-.8l.683-.642-.973.562a.5.5 0 0 1 -.632-.755l1.561-1.85-2.246 1.3a.5.5 0 0 1 -.653-.137.5.5 0 0 1 .066-.665l.509-.465-.757.436a.5.5 0 0 1 -.61-.779l1.2-1.246-1.662.959a.5.5 0 0 1 -.62-.769l1.394-1.537-1.956 1.129a.5.5 0 0 1 -.58-.809l.159-.139-.337.194a.5.5 0 0 1 -.591-.8l2.836-2.637a.5.5 0 0 1 .243-.516l.867-.5a.5.5 0 0 1 .591.8l-.621.579.9-.518a.5.5 0 0 1 .58.809l-.162.141.34-.2a.5.5 0 0 1 .62.769l-1.398 1.541 1.956-1.129a.5.5 0 0 1 .61.779l-1.2 1.246 1.662-.959a.5.5 0 0 1 .588.8l-.51.466.757-.437a.5.5 0 0 1 .632.755l-1.561 1.85 2.246-1.3a.5.5 0 0 1 .591.8l-.68.639.97-.56a.5.5 0 0 1 .622.767l-2.587 2.887a.5.5 0 0 1 -.2.645l-.848.49a.489.489 0 0 1 -.253.07z" fill="#d5dff7"/><g fill="#262626"><path d="m44.687 5.015c-4.5-.9-9.379-.08-14-.347-.247-1.374-1.987-1.282-3.23-1.228-1.349-3.973-7.41-3.847-8.836 0-1.141-.087-2.721-.129-3.188 1.06-6.458.6-17.346-3.367-15.164 7.141v33.559c.972 4.048-2.546 13.132 2.659 14.3q17.589.006 35.179 0c2.435 0 7.54.891 7.624-2.793.121-5.364-.017-10.742 0-16.108 4.341-5.522 12.181-9.392 14.006-16.353-1.223-8.907-10.352-5.808-14.013-.3-.746-5.53 1.591-14.425-1.037-18.931zm-4.4 41.025c.037 2.674.139 5.372-.016 8.028-.038.646.032.385-.433.461-11.152-.019-22.415.031-33.534 0-1.644-14.077-.027-29.759-.576-44.357-.511-1.723 8.031-.236 9.6-.7-.547 1.684 15.768 1.764 15.3-.054 2.721.6 8.1-1.3 9.652.944.232 6.332-.082 12.7 0 19.037l-7.284 7.284c-4.571-.32-7.119.886-.636.636a9.239 9.239 0 0 0 -3.869 8.344c-.146 1.313-.666 3.154.971 3.762 3.767.217 8.429-.025 10.825-3.385zm-7.132 2.111c-5.345 1.808-2.839-3.912-2.667-6.856l6.357 6.358a12.419 12.419 0 0 1 -3.69.498zm-1.221-7.276-.734-.735c4.318-4.393 8.749-8.682 13.079-13.067q1.5 1.5 2.993 2.993l-13.072 13.073zm8.5-35.543c3.846-.847 4.225 2.111 3.843 5.147q0 7.46 0 14.918l-2.551 2.551c-1.358-18.537 5.533-20.26-10.988-19.365-.008-1.083 0-2.167 0-3.251zm-23.7-.377c.075-.557.463-.41.928-.41 2.931.723 2.341-3.338 5.38-2.993a3.507 3.507 0 0 1 3.1 2.642c.081.289.409.351.664.351.791.174 2.257-.5 2.455.589-.187 1.3.41 3.2-.218 4.321-3.916.014-7.982.013-11.911 0-.902-.995-.274-3.163-.397-4.5zm26.321 53.545c-12.967.022-25.97-.015-38.95 0-1.174 0-2.259-.083-2.374-1.672-.031-16.584-.031-33.228 0-49.812 1.124-3.386 10.244-.716 13.531-1.516-.006 1 .016 2.012 0 3.018-3.2.615-10.276-2.093-10.989 2.207q.009 21.664 0 43.333c.134 1.259 1.107 1.416 2.132 1.416 11.085-.046 22.178.073 33.258 0 4.045-.359 1.318-7.971 2.068-10.874l2.54-2.54c-.688 3.549 1.572 14.986-1.216 16.44zm-2.349-14.56c-.913.913-1.813 2.007-2.8 2.9l-3.045-3.04 13.073-13.071q1.5 1.5 2.993 2.993zm8.768-22.066c5.216-6.6 12.634 2.575 6.173 7.149l-6.661-6.661zm-1.435 1.435q3.325 3.324 6.65 6.65-1.392 1.385-2.777 2.775-3.324-3.326-6.649-6.649z"/><path d="m19.862 35.056c-17.262-3.162-13.327 23.044 2.099 14.58 5.739-3.41 4.493-12.892-2.099-14.58zm4.368 7.644h-6.506v-7.3a7.867 7.867 0 0 1 6.506 7.3zm-13.494-3.75a6.892 6.892 0 0 1 5.54-3.63v7.756l-5.2 4.159a8 8 0 0 1 -.34-8.285zm.8 8.924 5.109-4.088 3.834 6.131c-2.943 1.759-6.862.496-8.942-2.043zm10.1 1.189q-1.8-2.883-3.607-5.767h6.236a8.109 8.109 0 0 1 -2.627 5.767z"/><path d="m27.678 30.065a5.094 5.094 0 0 0 4.257.14c7.885 2.74 3.944-8.922 4.8-13.254-.06-1.746-2.085-1.438-3.3-1.436-2.9-.173-2.07 3.085-2.167 4.977a18.682 18.682 0 0 0 -2.538.037c.456-2.464-.852-3.188-3.123-2.82-2.994-.261-2.288 2.881-2.332 4.864-4.969-.949-3.99 3.1-4 6.513.2 2 3.307 1.463 4.643 1.026a6.866 6.866 0 0 0 3.76-.047zm-.385-.35h.022zm5.438-12.778c.069-.186-.058-.467.181-.452.745.081 2.121-.405 2.358.588-.165 4.057.359 8.509-.191 12.442-.765-.141-2.162.44-2.349-.636.025-3.979-.03-7.967.001-11.942zm-3.226 4.585c2.9-.639 1.434 3.058 1.762 4.79-.117 2.117.744 3.656-2.148 3.168-.979-1.745-.1-4.438-.386-6.494.011-.654-.267-1.746.772-1.464zm-8.582 1.861c.011.023-.01.031-.037.035.005.008.034-.042.037-.035zm.581 6.19c-1.537-.27-.651-4.831-.626-6.146.8.125 2.361-.458 2.4.757-.1 1.772.207 3.685-.151 5.389zm3.227-.686c.177-3.472-.378-7.275.2-10.595 3.061-.639 2.286 1.855 2.344 3.915-.168 2.446.293 5.214-.191 7.517-.904.056-2.229.195-2.353-.837z"/><path d="m9.708 17.373c2.247-.255 4.924.546 6.961-.38.524-.763-9.422-.559-6.961.38z"/><path d="m9.738 23.486c1.006-.245 8.457.755 6.524-.972-1.006.245-8.457-.755-6.524.972z"/><path d="m9.931 29.513c.892-.113 8.933.548 6.138-1.026-.892.113-8.933-.548-6.138 1.026z"/></g></svg>