<?xml version="1.0" encoding="UTF-8" standalone="no"?>
<!-- Created with Inkscape (http://www.inkscape.org/) -->

<svg
   version="1.1"
   id="svg5043"
   xml:space="preserve"
   width="682.66669"
   height="682.66669"
   viewBox="0 0 682.66669 682.66669"
   xmlns="http://www.w3.org/2000/svg"
   xmlns:svg="http://www.w3.org/2000/svg"><defs
     id="defs5047"><clipPath
       clipPathUnits="userSpaceOnUse"
       id="clipPath5057"><path
         d="M 0,512 H 512 V 0 H 0 Z"
         id="path5055" /></clipPath></defs><g
     id="g5049"
     transform="matrix(1.3333333,0,0,-1.3333333,0,682.66667)"><g
       id="g5051"><g
         id="g5053"
         clip-path="url(#clipPath5057)"><g
           id="g5059"
           transform="translate(267.2085,497.5322)"><path
             d="m 0,0 17.492,-35.443 c 1.821,-3.689 5.341,-6.246 9.411,-6.837 l 39.115,-5.684 c 10.252,-1.49 14.345,-14.089 6.927,-21.32 L 44.642,-96.873 c -2.946,-2.871 -4.29,-7.009 -3.595,-11.064 l 6.682,-38.956 c 1.75,-10.211 -8.967,-17.997 -18.136,-13.175 l -34.985,18.392 c -3.641,1.914 -7.992,1.914 -11.633,0 l -34.985,-18.392 c -9.169,-4.822 -19.886,2.964 -18.136,13.175 l 6.682,38.956 c 0.695,4.055 -0.649,8.193 -3.595,11.064 l -28.303,27.589 c -7.418,7.231 -3.325,19.83 6.927,21.32 l 39.115,5.684 c 4.07,0.591 7.59,3.148 9.411,6.837 L -22.417,0 C -17.832,9.29 -4.585,9.29 0,0 Z"
             style="fill:none;stroke:#000000;stroke-width:15;stroke-linecap:round;stroke-linejoin:round;stroke-miterlimit:10;stroke-dasharray:none;stroke-opacity:1"
             id="path5061" /></g><g
           id="g5063"
           transform="translate(419.583,411.0225)"><path
             d="m 0,0 12.496,-25.319 c 1.301,-2.635 3.815,-4.462 6.723,-4.885 l 27.942,-4.06 c 7.323,-1.064 10.248,-10.064 4.948,-15.23 L 31.89,-69.202 c -2.104,-2.052 -3.064,-5.007 -2.568,-7.903 l 4.773,-27.83 c 1.252,-7.294 -6.405,-12.856 -12.955,-9.412 l -24.992,13.139 c -2.601,1.367 -5.709,1.367 -8.31,0 l -24.991,-13.139 c -6.551,-3.444 -14.207,2.118 -12.956,9.412 l 4.773,27.83 c 0.497,2.896 -0.463,5.851 -2.568,7.903 l -20.219,19.708 c -5.299,5.166 -2.375,14.166 4.949,15.23 l 27.942,4.06 c 2.908,0.423 5.422,2.25 6.723,4.885 L -16.014,0 C -12.738,6.637 -3.275,6.637 0,0 Z"
             style="fill:none;stroke:#000000;stroke-width:15;stroke-linecap:round;stroke-linejoin:round;stroke-miterlimit:10;stroke-dasharray:none;stroke-opacity:1"
             id="path5065" /></g><g
           id="g5067"
           transform="translate(107.4302,411.0225)"><path
             d="m 0,0 12.496,-25.319 c 1.3,-2.635 3.815,-4.462 6.723,-4.885 l 27.941,-4.06 c 7.324,-1.064 10.248,-10.064 4.949,-15.23 L 31.89,-69.202 c -2.104,-2.052 -3.065,-5.007 -2.568,-7.903 l 4.773,-27.83 c 1.251,-7.294 -6.405,-12.856 -12.955,-9.412 l -24.992,13.139 c -2.601,1.367 -5.709,1.367 -8.31,0 l -24.992,-13.139 c -6.55,-3.444 -14.206,2.118 -12.955,9.412 l 4.773,27.83 c 0.497,2.896 -0.464,5.851 -2.568,7.903 l -20.219,19.708 c -5.299,5.166 -2.375,14.166 4.949,15.23 l 27.941,4.06 c 2.908,0.423 5.422,2.25 6.723,4.885 L -16.014,0 C -12.739,6.637 -3.275,6.637 0,0 Z"
             style="fill:none;stroke:#000000;stroke-width:15;stroke-linecap:round;stroke-linejoin:round;stroke-miterlimit:10;stroke-dasharray:none;stroke-opacity:1"
             id="path5069" /></g><g
           id="g5071"
           transform="translate(265.2563,438.0752)"><path
             d="m 0,0 c -1.106,0.913 -7.103,5.45 -13.458,2.202 -6.633,-3.389 -7.998,-12.289 -4.313,-16.68 3.383,-4.029 7.41,-4.222 13.409,-6.34 13.427,-4.742 8.464,-23.655 -5.194,-23.745 -5.33,-0.037 -7.822,0.302 -12.504,3.361"
             style="fill:none;stroke:#000000;stroke-width:15;stroke-linecap:round;stroke-linejoin:round;stroke-miterlimit:10;stroke-dasharray:none;stroke-opacity:1"
             id="path5073" /></g><g
           id="g5075"
           transform="translate(256,393.5117)"><path
             d="M 0,0 V -9.642"
             style="fill:none;stroke:#000000;stroke-width:15;stroke-linecap:round;stroke-linejoin:round;stroke-miterlimit:10;stroke-dasharray:none;stroke-opacity:1"
             id="path5077" /></g><g
           id="g5079"
           transform="translate(256,450.0996)"><path
             d="M 0,0 V -8.674"
             style="fill:none;stroke:#000000;stroke-width:15;stroke-linecap:round;stroke-linejoin:round;stroke-miterlimit:10;stroke-dasharray:none;stroke-opacity:1"
             id="path5081" /></g><g
           id="g5083"
           transform="translate(78.29,81.5635)"><path
             d="m 0,0 -41.934,-17.279 c -9.375,-3.863 -15.492,-12.999 -15.492,-23.139 v -23.635 c 0,-5.529 4.482,-10.01 10.01,-10.01 h 126.11"
             style="fill:none;stroke:#000000;stroke-width:15;stroke-linecap:round;stroke-linejoin:round;stroke-miterlimit:10;stroke-dasharray:none;stroke-opacity:1"
             id="path5085" /></g><g
           id="g5087"
           transform="translate(160.5254,65.1035)"><path
             d="M 0,0 -39.945,16.46"
             style="fill:none;stroke:#000000;stroke-width:15;stroke-linecap:round;stroke-linejoin:round;stroke-miterlimit:10;stroke-dasharray:none;stroke-opacity:1"
             id="path5089" /></g><g
           id="g5091"
           transform="translate(391.4497,104.4258)"><path
             d="M 0,0 V -22.664"
             style="fill:none;stroke:#000000;stroke-width:15;stroke-linecap:round;stroke-linejoin:round;stroke-miterlimit:10;stroke-dasharray:none;stroke-opacity:1"
             id="path5093" /></g><g
           id="g5095"
           transform="translate(432.7778,81.7617)"><path
             d="M 0,0 V 22.6"
             style="fill:none;stroke:#000000;stroke-width:15;stroke-linecap:round;stroke-linejoin:round;stroke-miterlimit:10;stroke-dasharray:none;stroke-opacity:1"
             id="path5097" /></g><g
           id="g5099"
           transform="translate(441.8501,223.8213)"><path
             d="m 0,0 c 0.805,2.759 1.237,5.678 1.237,8.696 0,17.111 -13.87,30.981 -30.981,30.981 -17.11,0 -30.98,-13.87 -30.98,-30.981 0,-2.998 0.426,-5.897 1.221,-8.64"
             style="fill:none;stroke:#000000;stroke-width:15;stroke-linecap:round;stroke-linejoin:round;stroke-miterlimit:10;stroke-dasharray:none;stroke-opacity:1"
             id="path5101" /></g><g
           id="g5103"
           transform="translate(366.4551,152.3848)"><path
             d="m 0,0 c 3.822,-27.948 26.778,-57.705 45.651,-57.705 19.229,0 42.665,30.845 45.841,59.223"
             style="fill:none;stroke:#000000;stroke-width:15;stroke-linecap:round;stroke-linejoin:round;stroke-miterlimit:10;stroke-dasharray:none;stroke-opacity:1"
             id="path5105" /></g><g
           id="g5107"
           transform="translate(442.1729,223.3223)"><path
             d="m 0,0 c -17.56,13.062 -43.896,11.38 -60.126,0 -16.623,-11.655 -30.238,-43.514 -15.634,-70.625 27.638,0 58.881,36.578 58.881,36.578 0,0 17.793,-34.744 32.72,-34.744 C 29.38,-35.344 12.019,-8.94 0,0 Z"
             style="fill:none;stroke:#000000;stroke-width:15;stroke-linecap:round;stroke-linejoin:round;stroke-miterlimit:10;stroke-dasharray:none;stroke-opacity:1"
             id="path5109" /></g><g
           id="g5111"
           transform="translate(355.1914,7.5)"><path
             d="m 0,0 h 125.483 c 5.528,0 10.01,4.481 10.01,10.011 v 23.635 c 0,10.139 -6.117,19.276 -15.492,23.138 L 77.586,74.262 C 77.776,60.636 72.903,47.424 63.911,37.185 L 56.915,29.22 49.778,37.419 C 40.984,47.52 36.177,60.48 36.256,73.872 l 0.002,0.39 -40.009,-16.487"
             style="fill:none;stroke:#000000;stroke-width:15;stroke-linecap:round;stroke-linejoin:round;stroke-miterlimit:10;stroke-dasharray:none;stroke-opacity:1"
             id="path5113" /></g><g
           id="g5115"
           transform="translate(78.771,105.9736)"><path
             d="M 0,0 V -24.102"
             style="fill:none;stroke:#000000;stroke-width:15;stroke-linecap:round;stroke-linejoin:round;stroke-miterlimit:10;stroke-dasharray:none;stroke-opacity:1"
             id="path5117" /></g><g
           id="g5119"
           transform="translate(120.0991,81.8779)"><path
             d="M 0,0 V 23.983"
             style="fill:none;stroke:#000000;stroke-width:15;stroke-linecap:round;stroke-linejoin:round;stroke-miterlimit:10;stroke-dasharray:none;stroke-opacity:1"
             id="path5121" /></g><g
           id="g5123"
           transform="translate(78.771,81.8721)"><path
             d="m 0,0 v -10.121 l 0.007,-0.008 c 10.896,-12.577 30.408,-12.58 41.308,-0.007 l 0.013,0.015 V 0.006"
             style="fill:none;stroke:#000000;stroke-width:15;stroke-linecap:round;stroke-linejoin:round;stroke-miterlimit:10;stroke-dasharray:none;stroke-opacity:1"
             id="path5125" /></g><g
           id="g5127"
           transform="translate(53.8184,175.7168)"><path
             d="m 0,0 c -0.395,-3.012 -0.593,-6.175 -0.593,-9.479 0,-29.908 25.546,-71.558 46.203,-71.558 20.671,0 46.203,41.65 46.203,71.558 0,29.906 -16.297,48.144 -46.203,48.144 -11.899,0 -21.643,-2.887 -29.064,-8.247"
             style="fill:none;stroke:#000000;stroke-width:15;stroke-linecap:round;stroke-linejoin:round;stroke-miterlimit:10;stroke-dasharray:none;stroke-opacity:1"
             id="path5129" /></g><g
           id="g5131"
           transform="translate(412.1138,36.7197)"><path
             d="M 0,0 V -29.22"
             style="fill:none;stroke:#000000;stroke-width:15;stroke-linecap:round;stroke-linejoin:round;stroke-miterlimit:10;stroke-dasharray:none;stroke-opacity:1"
             id="path5133" /></g><g
           id="g5135"
           transform="translate(78.771,81.7617)"><path
             d="M 0,0 V -74.262"
             style="fill:none;stroke:#000000;stroke-width:15;stroke-linecap:round;stroke-linejoin:round;stroke-miterlimit:10;stroke-dasharray:none;stroke-opacity:1"
             id="path5137" /></g><g
           id="g5139"
           transform="translate(120.0991,81.7617)"><path
             d="M 0,0 V -74.262"
             style="fill:none;stroke:#000000;stroke-width:15;stroke-linecap:round;stroke-linejoin:round;stroke-miterlimit:10;stroke-dasharray:none;stroke-opacity:1"
             id="path5141" /></g><g
           id="g5143"
           transform="translate(229.9731,137.8086)"><path
             d="m 0,0 v -36.774 l 0.008,-0.01 c 13.725,-15.841 38.301,-15.845 52.03,-0.009 l 0.016,0.019 v 36.711"
             style="fill:none;stroke:#000000;stroke-width:15;stroke-linecap:round;stroke-linejoin:round;stroke-miterlimit:10;stroke-dasharray:none;stroke-opacity:1"
             id="path5145" /></g><g
           id="g5147"
           transform="translate(198.667,198.7832)"><path
             d="m 0,0 c 4.269,-34.042 24.147,-68.869 57.324,-68.869 33.244,0 53.136,34.968 57.35,69.075"
             style="fill:none;stroke:#000000;stroke-width:15;stroke-linecap:round;stroke-linejoin:round;stroke-miterlimit:10;stroke-dasharray:none;stroke-opacity:1"
             id="path5149" /></g><g
           id="g5151"
           transform="translate(193.4648,263.0186)"><path
             d="m 0,0 c -8.548,-23.267 -1.685,-52.111 5.333,-63.075 0,0 12.951,22.265 42.89,33.162 9.786,3.561 17.702,9.518 23.453,16.241"
             style="fill:none;stroke:#000000;stroke-width:15;stroke-linecap:round;stroke-linejoin:round;stroke-miterlimit:10;stroke-dasharray:none;stroke-opacity:1"
             id="path5153" /></g><g
           id="g5155"
           transform="translate(275.938,278.1572)"><path
             d="m 0,0 c -0.339,3.36 -1.387,6.468 -3.091,9.13 -8.811,13.764 -34.196,15.392 -56.989,1.893"
             style="fill:none;stroke:#000000;stroke-width:15;stroke-linecap:round;stroke-linejoin:round;stroke-miterlimit:10;stroke-dasharray:none;stroke-opacity:1"
             id="path5157" /></g><g
           id="g5159"
           transform="translate(275.938,278.1572)"><path
             d="m 0,0 c 10.059,4.363 26.667,4.75 37.304,-6.02 22.564,-22.847 8.331,-58.938 0.285,-71.506 0,0 -11.735,14.671 -29.421,25.992 -9.431,6.037 -16.055,14.362 -18.965,22.723 z"
             style="fill:none;stroke:#000000;stroke-width:15;stroke-linecap:round;stroke-linejoin:round;stroke-miterlimit:10;stroke-dasharray:none;stroke-opacity:1"
             id="path5161" /></g><g
           id="g5163"
           transform="translate(305.4258,91.3926)"><path
             d="M 0,0 -22.917,9.443"
             style="fill:none;stroke:#000000;stroke-width:15;stroke-linecap:round;stroke-linejoin:round;stroke-miterlimit:10;stroke-dasharray:none;stroke-opacity:1"
             id="path5165" /></g><g
           id="g5167"
           transform="translate(229.5903,100.876)"><path
             d="m 0,0 -53.962,-22.234 c -11.249,-4.635 -18.59,-15.6 -18.59,-27.767 v -43.375 h 197.924 v 43.375 c 0,11.653 -6.734,22.203 -17.186,27.147"
             style="fill:none;stroke:#000000;stroke-width:15;stroke-linecap:round;stroke-linejoin:round;stroke-miterlimit:10;stroke-dasharray:none;stroke-opacity:1"
             id="path5169" /></g><g
           id="g5171"
           transform="translate(292.3984,37.6113)"><path
             d="M 0,0 H 28.329"
             style="fill:none;stroke:#000000;stroke-width:15;stroke-linecap:round;stroke-linejoin:round;stroke-miterlimit:10;stroke-dasharray:none;stroke-opacity:1"
             id="path5173" /></g><g
           id="g5175"
           transform="translate(255.9907,7.5)"><path
             d="m 0,0 v 45.789 c 0,3.862 3.131,6.994 6.994,6.994 3.862,0 6.993,3.131 6.993,6.993 v 23.836"
             style="fill:none;stroke:#000000;stroke-width:15;stroke-linecap:round;stroke-linejoin:round;stroke-miterlimit:10;stroke-dasharray:none;stroke-opacity:1"
             id="path5177" /></g><g
           id="g5179"
           transform="translate(120.1104,7.5)"><path
             d="M 0,0 40.495,57.571"
             style="fill:none;stroke:#000000;stroke-width:15;stroke-linecap:round;stroke-linejoin:round;stroke-miterlimit:10;stroke-dasharray:none;stroke-opacity:1"
             id="path5181" /></g><g
           id="g5183"
           transform="translate(78.771,7.5)"><path
             d="M 0,0 -40.495,57.571"
             style="fill:none;stroke:#000000;stroke-width:15;stroke-linecap:round;stroke-linejoin:round;stroke-miterlimit:10;stroke-dasharray:none;stroke-opacity:1"
             id="path5185" /></g></g></g></g></svg>
