<svg id="object" height="512" viewBox="0 0 100 100" width="512" xmlns="http://www.w3.org/2000/svg"><g id="_8-3"><g><circle cx="69.079" cy="77.817" r=".945"/><path d="m94.484 32.17-37.152-20.885c-.391-.217-.88-.151-1.196.166l-21.378 21.302c-.188.187-.294.441-.294.707s.104.52.292.708l3.578 3.591c.39.391 1.023.392 1.414.003l3.522-3.508v9.602h-25.523c-4.206 0-7.628 3.422-7.628 7.628v4.303h-4.113c-.552 0-1 .448-1 1v5.681c0 .552.448 1 1 1h4.113v24.375c0 .552.448 1 1 1h7.007c.552 0 1-.448 1-1v-24.375h24.143v24.375c0 .552.448 1 1 1h41.466c.553 0 1-.448 1-1v-51.909l4.282 2.408c.151.085.32.128.49.128.091 0 .182-.012.27-.037.256-.072.473-.242.603-.473l2.487-4.428c.271-.481.1-1.091-.382-1.361zm-9.75 17.935h-39.465v-4.25h39.466v4.25zm-41.466 1v4.681h-6.806v-9.931h6.806zm-14.575 4.681v-9.931h5.769v9.931zm-7.769 0v-9.931h5.769v9.931zm-8.806-4.303c0-3.103 2.525-5.628 5.628-5.628h1.178v9.931h-6.806zm5.007 35.359h-5.007v-23.375h5.007zm1-25.375h-11.119v-3.681h36.263v3.681h-25.143zm40.773 25.375v-18.053h12.203v18.053zm14.203 0v-19.053c0-.552-.447-1-1-1h-14.203c-.553 0-1 .448-1 1v19.053h-11.631v-34.737h39.466v34.738h-11.632zm11.632-42.987h-39.464v-11.594l12.606-12.555 26.859 15.103v9.046zm6.391-7.748-32.929-18.515c-.153-.086-.322-.128-.49-.128-.258 0-.514.1-.706.292l-17.955 17.883-2.167-2.174 20.138-20.065 35.618 20.024-1.508 2.684z"/><path d="m79.11 55.786h-28.763c-.552 0-1 .448-1 1v5.681c0 .552.448 1 1 1h28.763c.553 0 1-.448 1-1v-5.681c0-.552-.447-1-1-1zm-1 5.681h-26.764v-3.681h26.764z"/><path d="m56.705 23.821v5.358c0 .552.447 1 1 1s1-.448 1-1v-5.358c0-.552-.447-1-1-1s-1 .448-1 1z"/><path d="m54.403 25.5c-.553 0-1 .448-1 1v2.679c0 .552.447 1 1 1s1-.448 1-1v-2.679c0-.552-.447-1-1-1z"/><path d="m61.008 30.179c.553 0 1-.448 1-1v-3.679c0-.552-.447-1-1-1s-1 .448-1 1v3.679c0 .552.447 1 1 1z"/></g></g></svg>