<svg version="1.1" id="Capa_1" xmlns="http://www.w3.org/2000/svg" xmlns:xlink="http://www.w3.org/1999/xlink" x="0px" y="0px" viewBox="0 0 512 512" style="enable-background:new 0 0 512 512;" xml:space="preserve">
<g>
	<g>
		<path style="fill:#FE76A8;" d="M467.328,304.529c0,15.183-8.676,30.185-24.708,36.602c4.178,6.637,6.087,13.823,6.087,20.84&#10;&#9;&#9;&#9;c0,19.581-14.873,37.842-36.732,39.301c0.84,3.318,1.239,6.607,1.239,9.805c0,24.628-23.439,44.389-48.976,37.932&#10;&#9;&#9;&#9;c-1.459,21.859-19.72,36.732-39.301,36.732c-7.017,0-14.203-1.909-20.85-6.087c-6.417,16.032-21.41,24.708-36.592,24.708&#10;&#9;&#9;&#9;c-10.985,0-22.079-4.548-30.076-14.143c-8.006,9.595-19.091,14.143-30.085,14.143c-15.183,0-30.175-8.676-36.592-24.708&#10;&#9;&#9;&#9;c-6.647,4.178-13.833,6.087-20.85,6.087c-19.581,0-37.842-14.873-39.301-36.732c-3.318,0.839-6.607,1.239-9.805,1.239&#10;&#9;&#9;&#9;c-24.628,0-44.389-23.439-37.932-48.976c-21.859-1.459-36.732-19.721-36.732-39.301c0-7.017,1.909-14.203,6.087-20.84&#10;&#9;&#9;&#9;C16.186,334.715,7.5,319.712,7.5,304.529c0-10.985,4.548-22.079,14.153-30.076C12.048,266.448,7.5,255.363,7.5,244.368&#10;&#9;&#9;&#9;c0-15.183,8.686-30.176,24.708-36.592c-4.178-6.647-6.087-13.833-6.087-20.85c0-19.581,14.873-37.842,36.732-39.301&#10;&#9;&#9;&#9;c-0.84-3.318-1.239-6.607-1.239-9.805c0-24.618,23.439-44.379,48.976-37.922c1.459-21.87,19.721-36.742,39.311-36.742&#10;&#9;&#9;&#9;c7.017,0,14.193,1.909,20.84,6.087c6.417-16.022,21.41-24.698,36.592-24.698c10.995,0,22.079,4.548,30.085,14.143&#10;&#9;&#9;&#9;c19.051-22.859,55.613-17.072,66.668,10.555c6.647-4.178,13.823-6.087,20.84-6.087c19.591,0,37.852,14.873,39.311,36.742&#10;&#9;&#9;&#9;c3.318-0.84,6.607-1.239,9.805-1.239c24.628,0,44.389,23.439,37.932,48.966c21.859,1.459,36.732,19.72,36.732,39.301&#10;&#9;&#9;&#9;c0,7.017-1.909,14.203-6.087,20.85c16.032,6.417,24.708,21.41,24.708,36.602c0,10.985-4.548,22.069-14.143,30.075&#10;&#9;&#9;&#9;C462.781,282.45,467.328,293.535,467.328,304.529z"/>
		<path style="fill:#FE76A8;" d="M467.328,304.529c0,15.183-8.676,30.185-24.708,36.602c4.178,6.637,6.087,13.823,6.087,20.84&#10;&#9;&#9;&#9;c0,19.581-14.873,37.842-36.732,39.301c0.84,3.318,1.239,6.607,1.239,9.805c0,24.628-23.439,44.389-48.976,37.932&#10;&#9;&#9;&#9;c-1.459,21.859-19.72,36.732-39.301,36.732c-7.017,0-14.203-1.909-20.85-6.087c-6.417,16.032-21.41,24.708-36.592,24.708&#10;&#9;&#9;&#9;c-10.985,0-22.079-4.548-30.076-14.143c-8.006,9.595-19.091,14.143-30.085,14.143c-15.183,0-30.175-8.676-36.592-24.708&#10;&#9;&#9;&#9;c-6.647,4.178-13.833,6.087-20.85,6.087c-19.581,0-37.842-14.873-39.301-36.732c-3.318,0.839-6.607,1.239-9.805,1.239&#10;&#9;&#9;&#9;c-24.628,0-44.389-23.439-37.932-48.976c-21.859-1.459-36.732-19.721-36.732-39.301c0-7.017,1.909-14.203,6.087-20.84&#10;&#9;&#9;&#9;C16.186,334.715,7.5,319.712,7.5,304.529c0-10.985,4.548-22.079,14.153-30.076C12.048,266.448,7.5,255.363,7.5,244.368&#10;&#9;&#9;&#9;c0-15.183,8.686-30.176,24.708-36.592c-4.178-6.647-6.087-13.833-6.087-20.85c0-19.581,14.873-37.842,36.732-39.301&#10;&#9;&#9;&#9;c-0.84-3.318-1.239-6.607-1.239-9.805c0-24.618,23.439-44.379,48.976-37.922c1.459-21.87,19.721-36.742,39.311-36.742&#10;&#9;&#9;&#9;c7.017,0,14.193,1.909,20.84,6.087c6.417-16.022,21.41-24.698,36.592-24.698c10.995,0,22.079,4.548,30.085,14.143&#10;&#9;&#9;&#9;c19.051-22.859,55.613-17.072,66.668,10.555c6.647-4.178,13.823-6.087,20.84-6.087c19.591,0,37.852,14.873,39.311,36.742&#10;&#9;&#9;&#9;c3.318-0.84,6.607-1.239,9.805-1.239c24.628,0,44.389,23.439,37.932,48.966c21.859,1.459,36.732,19.72,36.732,39.301&#10;&#9;&#9;&#9;c0,7.017-1.909,14.203-6.087,20.85c16.032,6.417,24.708,21.41,24.708,36.602c0,10.985-4.548,22.069-14.143,30.075&#10;&#9;&#9;&#9;C462.781,282.45,467.328,293.535,467.328,304.529z"/>
		<path style="fill:#FE5694;" d="M467.33,304.528c0,15.18-8.68,30.19-24.71,36.6c4.18,6.64,6.09,13.83,6.09,20.84&#10;&#9;&#9;&#9;c0,19.58-14.88,37.85-36.73,39.31c0.83,3.31,1.23,6.6,1.23,9.8c0,24.63-23.43,44.39-48.97,37.93&#10;&#9;&#9;&#9;c-1.46,21.86-19.72,36.73-39.3,36.73c-7.02,0-14.21-1.9-20.85-6.08c-6.42,16.03-21.41,24.71-36.6,24.71&#10;&#9;&#9;&#9;c-9.05,0-18.18-3.09-25.59-9.56c88.73-33.64,151.8-119.42,151.8-219.94c0-100.77-63.39-186.73-152.46-220.18&#10;&#9;&#9;&#9;c19.76-18.04,52.49-11.32,62.85,14.56c6.64-4.18,13.82-6.09,20.84-6.09c19.59,0,37.85,14.87,39.31,36.74&#10;&#9;&#9;&#9;c3.32-0.84,6.6-1.24,9.8-1.24c24.63,0,44.39,23.44,37.94,48.97c21.85,1.46,36.73,19.72,36.73,39.3c0,7.01-1.91,14.2-6.09,20.85&#10;&#9;&#9;&#9;c16.03,6.42,24.71,21.41,24.71,36.6c0,10.99-4.55,22.07-14.14,30.08C462.78,282.448,467.33,293.538,467.33,304.528z"/>
		<path style="fill:#97DA7B;" d="M489.19,164.828H362.615c-8.455,0-15.31-6.855-15.31-15.31V22.942c0-8.455,6.855-15.31,15.31-15.31&#10;&#9;&#9;&#9;H489.19c8.455,0,15.31,6.855,15.31,15.31v126.575C504.5,157.973,497.645,164.828,489.19,164.828z"/>
		<path style="fill:#80D261;" d="M504.5,22.938v126.58c0,8.46-6.85,15.31-15.31,15.31h-30.01c8.45,0,15.31-6.85,15.31-15.31V22.938&#10;&#9;&#9;&#9;c0-8.45-6.86-15.31-15.31-15.31h30.01C497.65,7.628,504.5,14.488,504.5,22.938z"/>
		<g>
			<path style="fill:#F2FBFF;" d="M416.813,119.6c-3.692,0.001-7.232-1.517-9.776-4.193l-19.576-20.576&#10;&#9;&#9;&#9;&#9;c-5.137-5.399-4.924-13.94,0.474-19.077c5.401-5.136,13.942-4.924,19.077,0.475l10.041,10.553l27.972-27.972&#10;&#9;&#9;&#9;&#9;c5.269-5.27,13.812-5.269,19.083,0c5.27,5.269,5.27,13.813,0,19.083l-37.754,37.754C423.822,118.18,420.389,119.6,416.813,119.6z&#10;&#9;&#9;&#9;&#9;"/>
		</g>
		<g>
			<path style="fill:#F2FBFF;" d="M416.813,119.6c-3.692,0.001-7.232-1.517-9.776-4.193l-19.576-20.576&#10;&#9;&#9;&#9;&#9;c-5.137-5.399-4.924-13.94,0.474-19.077c5.401-5.136,13.942-4.924,19.077,0.475l10.041,10.553l27.972-27.972&#10;&#9;&#9;&#9;&#9;c5.269-5.27,13.812-5.269,19.083,0c5.27,5.269,5.27,13.813,0,19.083l-37.754,37.754C423.822,118.18,420.389,119.6,416.813,119.6z&#10;&#9;&#9;&#9;&#9;"/>
		</g>
		<path style="fill:#8AC9FE;" d="M168.456,274.454L168.456,274.454c0-8.515,6.903-15.418,15.418-15.418h108.418&#10;&#9;&#9;&#9;c8.515,0,15.418,6.903,15.418,15.418v0c0,8.515-6.903,15.418-15.418,15.418H183.874&#10;&#9;&#9;&#9;C175.359,289.872,168.456,282.969,168.456,274.454z"/>
	</g>
	<g>
		<path style="fill:none;stroke:#000000;stroke-width:15;stroke-linecap:round;stroke-linejoin:round;stroke-miterlimit:10;" d="&#10;&#9;&#9;&#9;M441.92,164.828c4.35,6.46,6.79,14.17,6.79,22.1c0,7.01-1.91,14.2-6.09,20.85c16.03,6.42,24.71,21.41,24.71,36.6&#10;&#9;&#9;&#9;c0,10.99-4.55,22.07-14.14,30.08c9.59,7.99,14.14,19.08,14.14,30.07c0,15.18-8.68,30.19-24.71,36.6&#10;&#9;&#9;&#9;c4.18,6.64,6.09,13.83,6.09,20.84c0,19.58-14.88,37.85-36.73,39.31c0.83,3.31,1.23,6.6,1.23,9.8c0,24.63-23.43,44.39-48.97,37.93&#10;&#9;&#9;&#9;c-1.46,21.86-19.72,36.73-39.3,36.73c-7.02,0-14.21-1.9-20.85-6.08c-6.42,16.03-21.41,24.71-36.6,24.71&#10;&#9;&#9;&#9;c-10.98,0-22.07-4.55-30.07-14.15c-8.01,9.6-19.09,14.15-30.09,14.15c-15.18,0-30.17-8.68-36.59-24.71&#10;&#9;&#9;&#9;c-6.65,4.18-13.83,6.08-20.85,6.08c-19.58,0-37.84-14.87-39.3-36.73c-3.32,0.84-6.61,1.24-9.8,1.24&#10;&#9;&#9;&#9;c-24.63,0-44.39-23.44-37.94-48.97c-21.86-1.46-36.73-19.73-36.73-39.31c0-7.01,1.91-14.2,6.09-20.84&#10;&#9;&#9;&#9;c-16.02-6.41-24.71-21.42-24.71-36.6c0-10.98,4.55-22.08,14.15-30.07c-9.6-8.01-14.15-19.09-14.15-30.09&#10;&#9;&#9;&#9;c0-15.18,8.69-30.17,24.71-36.59c-4.18-6.65-6.09-13.84-6.09-20.85c0-19.58,14.87-37.84,36.73-39.3&#10;&#9;&#9;&#9;c-0.84-3.32-1.24-6.61-1.24-9.81c0-24.62,23.44-44.38,48.98-37.92c1.46-21.87,19.72-36.74,39.31-36.74&#10;&#9;&#9;&#9;c7.02,0,14.19,1.91,20.84,6.09c6.42-16.03,21.41-24.7,36.59-24.7c11,0,22.08,4.54,30.09,14.14&#10;&#9;&#9;&#9;c19.05-22.86,55.61-17.07,66.67,10.56c6.64-4.18,13.82-6.09,20.84-6.09c8.03,0,15.85,2.5,22.37,6.97"/>
		<path style="fill:none;stroke:#000000;stroke-width:15;stroke-linecap:round;stroke-linejoin:round;stroke-miterlimit:10;" d="&#10;&#9;&#9;&#9;M441.92,164.828h-79.305c-8.455,0-15.31-6.855-15.31-15.31V22.942c0-8.455,6.855-15.31,15.31-15.31H489.19&#10;&#9;&#9;&#9;c8.455,0,15.31,6.855,15.31,15.31v126.575c0,8.455-6.855,15.31-15.31,15.31h-10.773"/>
		<g>
			<path style="fill:none;stroke:#000000;stroke-width:15;stroke-linecap:round;stroke-linejoin:round;stroke-miterlimit:10;" d="&#10;&#9;&#9;&#9;&#9;M416.813,119.6c-3.692,0.001-7.232-1.517-9.776-4.193l-19.576-20.576c-5.137-5.399-4.924-13.94,0.474-19.077&#10;&#9;&#9;&#9;&#9;c5.401-5.136,13.942-4.924,19.077,0.475l10.041,10.553l27.972-27.972c5.269-5.27,13.812-5.269,19.083,0&#10;&#9;&#9;&#9;&#9;c5.27,5.269,5.27,13.813,0,19.083l-37.754,37.754C423.822,118.18,420.389,119.6,416.813,119.6z"/>
		</g>
		<path style="fill:none;stroke:#000000;stroke-width:15;stroke-linecap:round;stroke-linejoin:round;stroke-miterlimit:10;" d="&#10;&#9;&#9;&#9;M384.61,164.828c22.82,30.59,36.33,68.53,36.33,109.62c0,101.36-82.17,183.53-183.52,183.53c-101.36,0-183.53-82.17-183.53-183.53&#10;&#9;&#9;&#9;c0-101.35,82.17-183.52,183.53-183.52c41.21,0,79.25,13.58,109.88,36.52"/>
		<path style="fill:none;stroke:#000000;stroke-width:15;stroke-linecap:round;stroke-linejoin:round;stroke-miterlimit:10;" d="&#10;&#9;&#9;&#9;M361.679,274.454c0,24.538-7.117,47.407-19.391,66.678c-22.049,34.623-60.781,57.582-104.869,57.582s-82.82-22.959-104.879-57.582&#10;&#9;&#9;&#9;c-12.274-19.271-19.391-42.14-19.391-66.678c0-24.538,7.117-47.407,19.391-66.678c22.059-34.623,60.791-57.582,104.879-57.582&#10;&#9;&#9;&#9;s82.82,22.959,104.869,57.582C354.563,227.047,361.679,249.916,361.679,274.454z"/>
		<path style="fill:none;stroke:#000000;stroke-width:15;stroke-linecap:round;stroke-linejoin:round;stroke-miterlimit:10;" d="&#10;&#9;&#9;&#9;M178.358,341.132H132.54c-12.274-19.271-19.391-42.14-19.391-66.678c0-24.538,7.117-47.407,19.391-66.678h209.749&#10;&#9;&#9;&#9;c12.274,19.271,19.391,42.14,19.391,66.678c0,24.538-7.117,47.407-19.391,66.678H213.473"/>
		<path style="fill:none;stroke:#000000;stroke-width:15;stroke-linecap:round;stroke-linejoin:round;stroke-miterlimit:10;" d="&#10;&#9;&#9;&#9;M314.512,407.58c-22.659,13.164-48.996,20.69-77.093,20.69s-54.434-7.526-77.103-20.69"/>
		<path style="fill:none;stroke:#000000;stroke-width:15;stroke-linecap:round;stroke-linejoin:round;stroke-miterlimit:10;" d="&#10;&#9;&#9;&#9;M160.316,141.328c22.669-13.164,49.006-20.69,77.103-20.69s54.434,7.526,77.093,20.69"/>
		<path style="fill:none;stroke:#000000;stroke-width:15;stroke-linecap:round;stroke-linejoin:round;stroke-miterlimit:10;" d="&#10;&#9;&#9;&#9;M168.456,274.454L168.456,274.454c0-8.515,6.903-15.418,15.418-15.418h108.418c8.515,0,15.418,6.903,15.418,15.418v0&#10;&#9;&#9;&#9;c0,8.515-6.903,15.418-15.418,15.418H183.874C175.359,289.872,168.456,282.969,168.456,274.454z"/>
		
			<line style="fill:none;stroke:#000000;stroke-width:15;stroke-linecap:round;stroke-linejoin:round;stroke-miterlimit:10;" x1="85.806" y1="274.454" x2="85.806" y2="274.454"/>
		
			<line style="fill:none;stroke:#000000;stroke-width:15;stroke-linecap:round;stroke-linejoin:round;stroke-miterlimit:10;" x1="391.382" y1="274.454" x2="391.382" y2="274.454"/>
	</g>
</g>
<g>
</g>
<g>
</g>
<g>
</g>
<g>
</g>
<g>
</g>
<g>
</g>
<g>
</g>
<g>
</g>
<g>
</g>
<g>
</g>
<g>
</g>
<g>
</g>
<g>
</g>
<g>
</g>
<g>
</g>
</svg>