
<svg xmlns="http://www.w3.org/2000/svg" xmlns:xlink="http://www.w3.org/1999/xlink" x="0px" y="0px"
	 viewBox="0 0 512 512" style="enable-background:new 0 0 512 512;" xml:space="preserve" fill="#116d42">
<g>
	<path class="st0" d="M368.5,15c-33.9,0-65.8,13.4-89.7,37.6l-22.8,23l-22.8-22.9C209.3,28.4,177.5,15,143.5,15
		C73.8,15,17,72.2,17,142.6c0,28.3,9.1,55.2,25.9,77.3c39.7-13.8,76.4,12.5,103.3,45.6l105.7-106.6c24.5-24.7,65-21.4,85.3,6.9
		c43.4-9.4,79.9,33,64.8,74.9c9.2,7.7,15.7,18,18.6,29.7l37.1-37.2c24.1-24.1,37.3-56.3,37.3-90.5C495,72.2,438.2,15,368.5,15
		L368.5,15z"/>
	<path class="st0" d="M357.3,333.3L357.3,333.3l28.7-29c11-11.1,11-29,0-40.1c-11-11.1-28.8-11.1-39.8,0l22.8-23
		c11-11.1,11-29,0-40.1c-11-11.1-28.8-11.1-39.8,0L311.6,219l0,0c11-11.1,11-29,0-40.1c-11-11.1-28.8-11.1-39.8,0L142.6,309.3
		c0,0-58.3-101.6-109.4-50.1l-9.9,10l33.1,33.4c31.1,31.4,31.1,82.2,0,113.6L17,455.9V497h255.3c12.9-9.1,8.8-7.4,124.7-123.6
		c11-11.1,11-29,0-40.1C386.1,322.2,368.3,322.2,357.3,333.3L357.3,333.3z"/>
</g>
</svg>
