<svg enable-background="new 0 0 32 32" height="512" viewBox="0 0 32 32" width="512" xmlns="http://www.w3.org/2000/svg" fill="#116d42"><path d="m24.5124207 14.2649231c-2.8271484-2.828125-7.4282227-2.8291016-10.2553711 0-2.8276367 2.8271484-2.8276367 7.4277344 0 10.2548828 1.4135742 1.4140625 3.2705078 2.1210938 5.1274414 2.1210938 1.8574219 0 3.7143555-.7070312 5.1279297-2.1210938 2.8276367-2.8271484 2.8276367-7.4277344 0-10.2548828z"/><path d="m28.2897644 26.8830872-1.5756836-1.5751953c-.390625-.390625-1.0234375-.390625-1.4140625 0s-.390625 1.0234375 0 1.4140625l1.5756836 1.5751953c.1953125.1953125.4511719.2929688.7070312.2929688s.5117188-.0976562.7070312-.2929688c.3906251-.390625.3906251-1.0234375.0000001-1.4140625z"/><path d="m12.8472595 25.9312439c-3.6099854-3.6000366-3.6099854-9.4700317 0-13.0800171 3.6000366-3.6099854 9.4700317-3.6099854 13.0800171 0 1.2700195 1.2700195 2.0900269 2.8099976 2.460022 4.4400024.1300049-.7999878.1900024-1.6300049.1900024-2.4699707v-4.7800293c0-2.1400146-1.3400269-4.0899658-3.3400269-4.8599854l-7.3699951-2.8300171c-1.210022-.4699707-2.5299683-.4699707-3.7399902 0l-7.3699951 2.8300172c-2 .7700195-3.3400269 2.7199707-3.3400269 4.8599854v4.7800293c0 6.7799683 3.9899902 12.1999512 10.9400024 14.8800049.5300293.1999512 1.0900269.2999878 1.6400146.2999878s1.1099854-.1000366 1.6400146-.2999878c.8399658-.3200073 1.6400146-.6900024 2.3900146-1.0900269-.210022.0200195-.4300537.0300293-.6400146.0300293-2.3699949 0-4.7399901-.9000244-6.5400389-2.710022z"/></svg>