<svg enable-background="new 0 0 68 68" height="512" viewBox="0 0 68 68" width="512" xmlns="http://www.w3.org/2000/svg" fill="#116d42"><g><path d="m60.7971497 7.2177072c-7.7001953-7.7000122-20.7299805-6.2999878-29.0698242 2.0400395-7.8701172 7.8699942-8.9902344 18.7799683-4.3701172 26.1499634-.0200195-.0200195-.0400391-.0499878-.0600586-.0800171-3.3198242 4.9200439-7.1098633 9.5200195-11.3198252 13.7300415l-2.9101563 2.9199829 2.9799814 2.9799805 2.9101563-2.9199829c4.2099609-4.210022 8.8100586-8 13.7299805-11.3300171.0400391.0400391.0800781.0599976.1201172.0800171 6.9199219 4.3499756 17.5698242 3.3900146 25.3696289-3.9400024 8.5600586-7.500001 10.6499023-21.5999757 2.6201172-29.6300054zm-20.1098633 1.1900029v2.7299805h-4.3203125c1.3603515-1.1299439 2.8203125-2.0399781 4.3203125-2.7299805zm-5.0903321 4.7299804h5.090332v5.0900259h-5.090332zm0 7.0900259h5.090332v5.0999756l-5.090332-.0099487zm0 7.0900269 5.090332.0099487v5.0900288h-5.090332zm-2 8.2099628c-.199707-.1699829-.3999023-.3399658-.5898438-.5299683-.1899414-.1799927-.3500977-.3900146-.5200195-.5800171h1.1098633zm0-3.1099853h-2.5395508c-.8803711-1.5399799-1.4604492-3.2600117-1.6904297-5.0999775h4.2299805zm0-7.0999775h-4.3295898c0-1.6700439.2695313-3.3900146.8198242-5.0900269h3.5097656zm0-7.0900269h-2.7397461c.6796875-1.4899902 1.6000977-2.9500113 2.7397461-4.3300161zm7.1000977 20.4299946c-1.8100586-.2199707-3.5400391-.7799683-5.1000977-1.6799927v-2.5599976h5.1000977zm7.0898438-.7600097c-1.6899414.5500488-3.409668.8400269-5.0898438.8600464v-4.3400269h5.0898438zm0-5.4799805h-5.0996094v-5.0900288h5.0996094zm0-7.0900288h-5.0996094v-5.0999756h5.0996094zm0-7.0999756h-5.0996094v-5.0900259h5.0996094zm0-7.0999746-5.0996094.0099487v-3.5000004c1.699707-.5499878 3.4199219-.8299561 5.0996094-.8399658zm9.090332-1.1000366c.199707.1700439.3999023.3300171.5800781.5200195.1899414.1900024.3500977.3900146.5200195.5899658h-1.1000977v-1.1099853zm0 3.1099853h2.5600586c.8896484 1.5600586 1.4199219 3.3000479 1.6396484 5.0900259h-4.199707zm-7.090332 23.9900523v-2.710022h4.300293c-1.3403321 1.1099853-2.7900391 2.0200195-4.300293 2.710022zm5.090332-4.710022h-5.090332v-5.0900288h5.090332zm0-7.0900288h-5.090332v-5.0999756h5.090332zm0-7.0999756h-5.090332v-5.0900259h5.090332zm0-7.0900259-5.090332-.0099487v-4.230042c1.8203125.2300415 3.5400391.8000488 5.090332 1.6900029zm2 20.6100455v-4.420044h2.7797852c-.709961 1.6100464-1.6396485 3.1000367-2.7797852 4.420044zm0-6.420044v-5.0999756h4.3198242c-.0097656 1.710022-.2700195 3.4400024-.7900391 5.0999756z"/><path d="m11.3283987 53.0749474c-.2963867-.2963867-.7768555-.2963867-1.0727539 0l-7.8657227 7.8656006c-.2963867.2963257-.2963867.7767944 0 1.0731812l3.609863 3.6101036c.2963867.2963867.7768555.2963867 1.0732422 0l7.8657227-7.8655968c.2963867-.2963257.2963867-.7767944 0-1.0731812z"/><path d="m17.5759583 14.9064894c0-2.2423096-1.817872-4.0600586-4.0600595-4.0600586s-4.0600586 1.817749-4.0600586 4.0600586v1.5599356h8.1201181z"/><path d="m7.9670706 32.9677086c1.3901367 0 1.3901367-2.0000019 2.7700195-2.0000019 1.3901367 0 1.3901367 2.0000019 2.7700195 2.0000019 1.3901367 0 1.3901367-2.0000019 2.7700205-2.0000019 1.3901367 0 1.3901367 2.0000019 2.7700195 2.0000019 1.3901367 0 1.3901367-2.0000019 2.7797852-2.0000019l-3.659668-12.5h-9.3002939l-3.659668 12.5c1.3798829 0 1.3798829 2.0000019 2.7597657 2.0000019z"/></g></svg>