<svg enable-background="new 0 0 511.993 511.993" height="512" viewBox="0 0 511.993 511.993" width="512" xmlns="http://www.w3.org/2000/svg"><g fill="#116d42"><path d="m471.997 312.993h-432c-8.284 0-15 6.716-15 15v49c0 8.284 6.716 15 15 15h17.25l9.974 13.298c19.202 25.603 29.776 57.326 29.776 89.329v2.373c0 8.284 6.716 15 15 15s15-6.716 15-15c0-8.591-.252-15.994-1.602-26h66.148c1.549 11.105 1.453 18.563 1.453 26 0 8.284 6.716 15 15 15s15-6.716 15-15c0-7.933.07-14.933-1.209-26h68.418c-1.29 11.162-1.209 18.504-1.209 26 0 8.284 6.716 15 15 15s15-6.716 15-15c0-7.948-.083-14.989 1.453-26h66.148c-1.325 9.822-1.602 17.168-1.602 26 0 8.284 6.716 15 15 15s15-6.716 15-15v-2.373c0-32.003 10.575-63.727 29.776-89.329l9.974-13.298h17.25c8.284 0 15-6.716 15-15v-49c.002-8.284-6.714-15-14.998-15zm-353.295 128c-5.48-17.418-13.595-34.002-24.086-49h59.911c13.105 14.453 23.076 31.064 29.582 49zm96.982 0c-5.132-17.394-12.903-33.89-23.115-49h126.857c-10.212 15.11-17.983 31.606-23.115 49zm177.608 0h-65.407c6.506-17.936 16.478-34.547 29.582-49h59.911c-10.491 14.999-18.606 31.583-24.086 49z"/><path d="m441.415 142.123c-7.527-27.958-21.218-53.411-39.529-74.806l-75.017 75.017c34.126 24.954 80.469 24.899 114.546-.211z"/><path d="m380.673 46.104c-21.395-18.311-46.848-32.002-74.806-39.529-25.077 34.033-25.197 80.376-.211 114.546z"/><path d="m70.585 241.86c3.89 14.448 9.409 28.235 16.381 41.134h56.817l41.341-41.341c-34.124-24.953-80.463-24.899-114.539.207z"/><path d="m284.254 142.523c-32.788-41.555-35.68-97.792-10.409-141.692-52.073-4.823-103.061 11.499-142.524 45.273l124.676 124.676z"/><path d="m186.21 282.993h31.438c-2.976-7.18-6.78-13.934-11.31-20.128z"/><path d="m206.526 220.251 28.258-28.258-124.676-124.676c-32.63 38.127-50.263 88.758-45.282 142.53 43.82-25.229 100.076-22.438 141.7 10.404z"/><path d="m305.467 163.736-28.258 28.258 91 91h56.817c17.926-33.161 25.658-70.797 22.133-108.849-43.913 25.279-100.152 22.366-141.692-10.409z"/><path d="m227.739 241.464c9.652 12.232 17.104 26.277 21.758 41.529h76.287l-69.787-69.787z"/></g></svg>